<mxfile host="app.diagrams.net" agent="Mozilla/5.0 (Macintosh; Intel Mac OS X 10_15_7) AppleWebKit/537.36 (KHTML, like Gecko) Chrome/134.0.0.0 Safari/537.36" version="26.1.3">
  <diagram name="Page-1" id="2a216829-ef6e-dabb-86c1-c78162f3ba2b">
    <mxGraphModel grid="1" page="1" gridSize="10" guides="1" tooltips="1" connect="1" arrows="1" fold="1" pageScale="1" pageWidth="850" pageHeight="1100" background="none" math="0" shadow="0">
      <root>
        <mxCell id="0" />
        <mxCell id="1" parent="0" />
        <mxCell id="gSadtIf43q3BKI0Gub7u-1" value="Input Data" style="points=[[0.25,0,0],[0.5,0,0],[0.75,0,0],[1,0.25,0],[1,0.5,0],[1,0.75,0],[0.75,1,0],[0.5,1,0],[0.25,1,0],[0,0.75,0],[0,0.5,0],[0,0.25,0]];shape=mxgraph.bpmn.task2;whiteSpace=wrap;rectStyle=rounded;size=10;html=1;container=1;expand=0;collapsible=0;taskMarker=abstract;fontFamily=Helvetica;fontSize=11;fontColor=default;labelBackgroundColor=default;" vertex="1" parent="1">
          <mxGeometry x="42.5" y="180" width="120" height="80" as="geometry" />
        </mxCell>
        <mxCell id="gSadtIf43q3BKI0Gub7u-2" value="Insert Data" style="points=[[0.25,0,0],[0.5,0,0],[0.75,0,0],[1,0.25,0],[1,0.5,0],[1,0.75,0],[0.75,1,0],[0.5,1,0],[0.25,1,0],[0,0.75,0],[0,0.5,0],[0,0.25,0]];shape=mxgraph.bpmn.task2;whiteSpace=wrap;rectStyle=rounded;size=10;html=1;container=1;expand=0;collapsible=0;taskMarker=abstract;fontFamily=Helvetica;fontSize=11;fontColor=default;labelBackgroundColor=default;" vertex="1" parent="1">
          <mxGeometry x="272.37" y="180" width="120" height="80" as="geometry" />
        </mxCell>
        <mxCell id="gSadtIf43q3BKI0Gub7u-19" value="" style="html=1;shape=mxgraph.flowchart.annotation_2;align=left;labelPosition=right;fontFamily=Helvetica;fontSize=11;fontColor=default;labelBackgroundColor=default;direction=south;" vertex="1" parent="1">
          <mxGeometry x="259.87" y="260" width="145" height="40" as="geometry" />
        </mxCell>
        <mxCell id="gSadtIf43q3BKI0Gub7u-20" value="" style="shape=partialRectangle;whiteSpace=wrap;html=1;bottom=1;right=1;left=1;top=0;fillColor=none;routingCenterX=-0.5;" vertex="1" parent="1">
          <mxGeometry x="259.87" y="330" width="145" height="20" as="geometry" />
        </mxCell>
        <mxCell id="gSadtIf43q3BKI0Gub7u-21" value="&lt;b&gt;DataBase:&lt;/b&gt; SuperStoreDW&lt;br&gt;&lt;b&gt;Table:&lt;/b&gt; Category&lt;div&gt;&lt;b&gt;Mappings:&lt;/b&gt; &lt;br&gt;Category -&amp;gt; category_name&lt;/div&gt;" style="text;html=1;align=left;verticalAlign=middle;whiteSpace=wrap;rounded=0;fontFamily=Helvetica;fontSize=11;fontColor=default;labelBackgroundColor=default;" vertex="1" parent="1">
          <mxGeometry x="264.12" y="300" width="200" height="30" as="geometry" />
        </mxCell>
        <mxCell id="gSadtIf43q3BKI0Gub7u-41" value="Input Data" style="points=[[0.25,0,0],[0.5,0,0],[0.75,0,0],[1,0.25,0],[1,0.5,0],[1,0.75,0],[0.75,1,0],[0.5,1,0],[0.25,1,0],[0,0.75,0],[0,0.5,0],[0,0.25,0]];shape=mxgraph.bpmn.task2;whiteSpace=wrap;rectStyle=rounded;size=10;html=1;container=1;expand=0;collapsible=0;taskMarker=abstract;fontFamily=Helvetica;fontSize=11;fontColor=default;labelBackgroundColor=default;" vertex="1" parent="1">
          <mxGeometry x="40" y="440" width="120" height="80" as="geometry" />
        </mxCell>
        <mxCell id="gSadtIf43q3BKI0Gub7u-42" value="Insert Data" style="points=[[0.25,0,0],[0.5,0,0],[0.75,0,0],[1,0.25,0],[1,0.5,0],[1,0.75,0],[0.75,1,0],[0.5,1,0],[0.25,1,0],[0,0.75,0],[0,0.5,0],[0,0.25,0]];shape=mxgraph.bpmn.task2;whiteSpace=wrap;rectStyle=rounded;size=10;html=1;container=1;expand=0;collapsible=0;taskMarker=abstract;fontFamily=Helvetica;fontSize=11;fontColor=default;labelBackgroundColor=default;" vertex="1" parent="1">
          <mxGeometry x="828.42" y="440" width="120" height="80" as="geometry" />
        </mxCell>
        <mxCell id="gSadtIf43q3BKI0Gub7u-47" value="" style="html=1;shape=mxgraph.flowchart.annotation_2;align=left;labelPosition=right;fontFamily=Helvetica;fontSize=11;fontColor=default;labelBackgroundColor=default;direction=south;" vertex="1" parent="1">
          <mxGeometry x="815.92" y="520" width="145" height="40" as="geometry" />
        </mxCell>
        <mxCell id="gSadtIf43q3BKI0Gub7u-48" value="" style="shape=partialRectangle;whiteSpace=wrap;html=1;bottom=1;right=1;left=1;top=0;fillColor=none;routingCenterX=-0.5;" vertex="1" parent="1">
          <mxGeometry x="815.92" y="570" width="145" height="20" as="geometry" />
        </mxCell>
        <mxCell id="gSadtIf43q3BKI0Gub7u-54" value="&lt;b&gt;DataBase:&lt;/b&gt; SuperStoreDW&lt;br&gt;&lt;b&gt;Table:&lt;/b&gt; CalendarMonth" style="text;html=1;align=left;verticalAlign=middle;whiteSpace=wrap;rounded=0;fontFamily=Helvetica;fontSize=11;fontColor=default;labelBackgroundColor=default;" vertex="1" parent="1">
          <mxGeometry x="818.61" y="550" width="200" height="30" as="geometry" />
        </mxCell>
        <mxCell id="-H4ae2L4HeG6YgwZ0joz-13" value="Add Column" style="points=[[0.25,0,0],[0.5,0,0],[0.75,0,0],[1,0.25,0],[1,0.5,0],[1,0.75,0],[0.75,1,0],[0.5,1,0],[0.25,1,0],[0,0.75,0],[0,0.5,0],[0,0.25,0]];shape=mxgraph.bpmn.task2;whiteSpace=wrap;rectStyle=rounded;size=10;html=1;container=1;expand=0;collapsible=0;taskMarker=abstract;fontFamily=Helvetica;fontSize=11;fontColor=default;labelBackgroundColor=default;" vertex="1" parent="1">
          <mxGeometry x="226.50000000000003" y="440" width="120" height="80" as="geometry" />
        </mxCell>
        <mxCell id="-H4ae2L4HeG6YgwZ0joz-14" value="" style="html=1;shape=mxgraph.flowchart.annotation_2;align=left;labelPosition=right;fontFamily=Helvetica;fontSize=11;fontColor=default;labelBackgroundColor=default;direction=south;" vertex="1" parent="1">
          <mxGeometry x="216.50000000000003" y="520" width="150" height="40" as="geometry" />
        </mxCell>
        <mxCell id="-H4ae2L4HeG6YgwZ0joz-15" value="" style="shape=partialRectangle;whiteSpace=wrap;html=1;bottom=1;right=1;left=1;top=0;fillColor=none;routingCenterX=-0.5;" vertex="1" parent="1">
          <mxGeometry x="216.50000000000003" y="570" width="150" height="20" as="geometry" />
        </mxCell>
        <mxCell id="-H4ae2L4HeG6YgwZ0joz-16" value="&lt;b&gt;Column: &lt;/b&gt;calendar_month_number&lt;br&gt;&lt;b&gt;Expression:&lt;/b&gt;&amp;nbsp;" style="text;html=1;align=left;verticalAlign=middle;whiteSpace=wrap;rounded=0;fontFamily=Helvetica;fontSize=11;fontColor=default;labelBackgroundColor=default;" vertex="1" parent="1">
          <mxGeometry x="226.50000000000003" y="550" width="130" height="30" as="geometry" />
        </mxCell>
        <mxCell id="-H4ae2L4HeG6YgwZ0joz-18" value="" style="html=1;shape=mxgraph.flowchart.annotation_2;align=left;labelPosition=right;fontFamily=Helvetica;fontSize=11;fontColor=default;labelBackgroundColor=default;direction=south;" vertex="1" parent="1">
          <mxGeometry x="424.26" y="520" width="148.48" height="40" as="geometry" />
        </mxCell>
        <mxCell id="-H4ae2L4HeG6YgwZ0joz-19" value="" style="shape=partialRectangle;whiteSpace=wrap;html=1;bottom=1;right=1;left=1;top=0;fillColor=none;routingCenterX=-0.5;" vertex="1" parent="1">
          <mxGeometry x="423.5" y="580" width="150" height="20" as="geometry" />
        </mxCell>
        <mxCell id="-H4ae2L4HeG6YgwZ0joz-20" value="&lt;b&gt;Column: &lt;/b&gt;calendar_month_name&lt;br&gt;&lt;b&gt;Expression:&lt;/b&gt; " style="text;html=1;align=left;verticalAlign=middle;whiteSpace=wrap;rounded=0;fontFamily=Helvetica;fontSize=11;fontColor=default;labelBackgroundColor=default;" vertex="1" parent="1">
          <mxGeometry x="438.5" y="555" width="130" height="30" as="geometry" />
        </mxCell>
        <mxCell id="-H4ae2L4HeG6YgwZ0joz-17" value="Add Column" style="points=[[0.25,0,0],[0.5,0,0],[0.75,0,0],[1,0.25,0],[1,0.5,0],[1,0.75,0],[0.75,1,0],[0.5,1,0],[0.25,1,0],[0,0.75,0],[0,0.5,0],[0,0.25,0]];shape=mxgraph.bpmn.task2;whiteSpace=wrap;rectStyle=rounded;size=10;html=1;container=1;expand=0;collapsible=0;taskMarker=abstract;fontFamily=Helvetica;fontSize=11;fontColor=default;labelBackgroundColor=default;" vertex="1" parent="1">
          <mxGeometry x="438.5" y="440" width="120" height="80" as="geometry" />
        </mxCell>
        <mxCell id="-H4ae2L4HeG6YgwZ0joz-26" value="Add Column" style="points=[[0.25,0,0],[0.5,0,0],[0.75,0,0],[1,0.25,0],[1,0.5,0],[1,0.75,0],[0.75,1,0],[0.5,1,0],[0.25,1,0],[0,0.75,0],[0,0.5,0],[0,0.25,0]];shape=mxgraph.bpmn.task2;whiteSpace=wrap;rectStyle=rounded;size=10;html=1;container=1;expand=0;collapsible=0;taskMarker=abstract;fontFamily=Helvetica;fontSize=11;fontColor=default;labelBackgroundColor=default;" vertex="1" parent="1">
          <mxGeometry x="633.87" y="440" width="120" height="80" as="geometry" />
        </mxCell>
        <mxCell id="-H4ae2L4HeG6YgwZ0joz-27" value="" style="html=1;shape=mxgraph.flowchart.annotation_2;align=left;labelPosition=right;fontFamily=Helvetica;fontSize=11;fontColor=default;labelBackgroundColor=default;direction=south;" vertex="1" parent="1">
          <mxGeometry x="623.87" y="520" width="150" height="40" as="geometry" />
        </mxCell>
        <mxCell id="-H4ae2L4HeG6YgwZ0joz-28" value="" style="shape=partialRectangle;whiteSpace=wrap;html=1;bottom=1;right=1;left=1;top=0;fillColor=none;routingCenterX=-0.5;" vertex="1" parent="1">
          <mxGeometry x="623.87" y="570" width="150" height="20" as="geometry" />
        </mxCell>
        <mxCell id="-H4ae2L4HeG6YgwZ0joz-29" value="&lt;b&gt;Column: &lt;/b&gt;year_number&lt;br&gt;&lt;b&gt;Expression:&lt;/b&gt; " style="text;html=1;align=left;verticalAlign=middle;whiteSpace=wrap;rounded=0;fontFamily=Helvetica;fontSize=11;fontColor=default;labelBackgroundColor=default;" vertex="1" parent="1">
          <mxGeometry x="633.87" y="550" width="130" height="30" as="geometry" />
        </mxCell>
        <mxCell id="-H4ae2L4HeG6YgwZ0joz-40" style="edgeStyle=orthogonalEdgeStyle;rounded=0;orthogonalLoop=1;jettySize=auto;html=1;exitX=1;exitY=0.5;exitDx=0;exitDy=0;exitPerimeter=0;entryX=0;entryY=0.5;entryDx=0;entryDy=0;entryPerimeter=0;" edge="1" parent="1" source="-H4ae2L4HeG6YgwZ0joz-26" target="gSadtIf43q3BKI0Gub7u-42">
          <mxGeometry relative="1" as="geometry" />
        </mxCell>
        <mxCell id="RT6RwITCp96EGcr6qQkf-1" value="Input Data" style="points=[[0.25,0,0],[0.5,0,0],[0.75,0,0],[1,0.25,0],[1,0.5,0],[1,0.75,0],[0.75,1,0],[0.5,1,0],[0.25,1,0],[0,0.75,0],[0,0.5,0],[0,0.25,0]];shape=mxgraph.bpmn.task2;whiteSpace=wrap;rectStyle=rounded;size=10;html=1;container=1;expand=0;collapsible=0;taskMarker=abstract;fontFamily=Helvetica;fontSize=11;fontColor=default;labelBackgroundColor=default;" vertex="1" parent="1">
          <mxGeometry x="65" y="650" width="120" height="80" as="geometry" />
        </mxCell>
        <mxCell id="RT6RwITCp96EGcr6qQkf-2" value="Insert Data" style="points=[[0.25,0,0],[0.5,0,0],[0.75,0,0],[1,0.25,0],[1,0.5,0],[1,0.75,0],[0.75,1,0],[0.5,1,0],[0.25,1,0],[0,0.75,0],[0,0.5,0],[0,0.25,0]];shape=mxgraph.bpmn.task2;whiteSpace=wrap;rectStyle=rounded;size=10;html=1;container=1;expand=0;collapsible=0;taskMarker=abstract;fontFamily=Helvetica;fontSize=11;fontColor=default;labelBackgroundColor=default;" vertex="1" parent="1">
          <mxGeometry x="265.16" y="650" width="120" height="80" as="geometry" />
        </mxCell>
        <mxCell id="RT6RwITCp96EGcr6qQkf-7" value="" style="html=1;shape=mxgraph.flowchart.annotation_2;align=left;labelPosition=right;fontFamily=Helvetica;fontSize=11;fontColor=default;labelBackgroundColor=default;direction=south;" vertex="1" parent="1">
          <mxGeometry x="252.66000000000003" y="730" width="145" height="40" as="geometry" />
        </mxCell>
        <mxCell id="RT6RwITCp96EGcr6qQkf-8" value="" style="shape=partialRectangle;whiteSpace=wrap;html=1;bottom=1;right=1;left=1;top=0;fillColor=none;routingCenterX=-0.5;" vertex="1" parent="1">
          <mxGeometry x="252.66000000000003" y="800" width="145" height="20" as="geometry" />
        </mxCell>
        <mxCell id="RT6RwITCp96EGcr6qQkf-9" value="&lt;b&gt;DataBase:&lt;/b&gt; SuperStoreDW&lt;br&gt;&lt;b&gt;Table:&lt;/b&gt;&amp;nbsp;Shipping&lt;div&gt;&lt;b&gt;Mappings:&lt;/b&gt; &lt;br&gt;Ship Mode -&amp;gt; shipping_mode&lt;/div&gt;" style="text;html=1;align=left;verticalAlign=middle;whiteSpace=wrap;rounded=0;fontFamily=Helvetica;fontSize=11;fontColor=default;labelBackgroundColor=default;" vertex="1" parent="1">
          <mxGeometry x="255" y="770" width="200" height="30" as="geometry" />
        </mxCell>
        <mxCell id="RT6RwITCp96EGcr6qQkf-10" value="" style="edgeStyle=orthogonalEdgeStyle;shape=connector;rounded=0;orthogonalLoop=1;jettySize=auto;html=1;exitX=1;exitY=0.5;exitDx=0;exitDy=0;exitPerimeter=0;entryX=0;entryY=0.5;entryDx=0;entryDy=0;entryPerimeter=0;strokeColor=default;align=center;verticalAlign=middle;fontFamily=Helvetica;fontSize=11;fontColor=default;labelBackgroundColor=default;endArrow=classic;" edge="1" parent="1" source="RT6RwITCp96EGcr6qQkf-1" target="RT6RwITCp96EGcr6qQkf-2">
          <mxGeometry relative="1" as="geometry">
            <mxPoint x="185" y="690" as="sourcePoint" />
            <mxPoint x="295" y="690" as="targetPoint" />
          </mxGeometry>
        </mxCell>
        <mxCell id="DmKk6OdaDrpml34-n-Ne-1" value="&lt;h1 style=&quot;margin-top: 0px;&quot;&gt;Category&lt;/h1&gt;" style="text;html=1;whiteSpace=wrap;overflow=hidden;rounded=0;" vertex="1" parent="1">
          <mxGeometry x="-200" y="190" width="180" height="120" as="geometry" />
        </mxCell>
        <mxCell id="DmKk6OdaDrpml34-n-Ne-2" value="&lt;h1 style=&quot;margin-top: 0px;&quot;&gt;CalendarMonth&lt;/h1&gt;" style="text;html=1;whiteSpace=wrap;overflow=hidden;rounded=0;" vertex="1" parent="1">
          <mxGeometry x="-200" y="465" width="180" height="120" as="geometry" />
        </mxCell>
        <mxCell id="DmKk6OdaDrpml34-n-Ne-3" value="&lt;h1 style=&quot;margin-top: 0px;&quot;&gt;Shipping&lt;/h1&gt;" style="text;html=1;whiteSpace=wrap;overflow=hidden;rounded=0;" vertex="1" parent="1">
          <mxGeometry x="-200" y="670" width="180" height="120" as="geometry" />
        </mxCell>
        <mxCell id="DmKk6OdaDrpml34-n-Ne-4" value="O add column é quando queremos algo no DW que nao temos diretamente no Dataset.&amp;nbsp;&lt;br&gt;O mappings é quando vamos pegar em algo que existe diretamente no DW, mas queremos usar com um nome diferente" style="text;html=1;align=center;verticalAlign=middle;whiteSpace=wrap;rounded=0;fontFamily=Helvetica;fontSize=11;fontColor=default;labelBackgroundColor=default;" vertex="1" parent="1">
          <mxGeometry x="1445.88" y="360" width="160" height="120" as="geometry" />
        </mxCell>
        <mxCell id="RT6RwITCp96EGcr6qQkf-16" value="Input Data" style="points=[[0.25,0,0],[0.5,0,0],[0.75,0,0],[1,0.25,0],[1,0.5,0],[1,0.75,0],[0.75,1,0],[0.5,1,0],[0.25,1,0],[0,0.75,0],[0,0.5,0],[0,0.25,0]];shape=mxgraph.bpmn.task2;whiteSpace=wrap;rectStyle=rounded;size=10;html=1;container=1;expand=0;collapsible=0;taskMarker=abstract;fontFamily=Helvetica;fontSize=11;fontColor=default;labelBackgroundColor=default;" vertex="1" parent="1">
          <mxGeometry x="62.5" y="850" width="120" height="80" as="geometry" />
        </mxCell>
        <mxCell id="DmKk6OdaDrpml34-n-Ne-5" value="&lt;h1 style=&quot;margin-top: 0px;&quot;&gt;NOTAS:&lt;/h1&gt;" style="text;html=1;whiteSpace=wrap;overflow=hidden;rounded=0;" vertex="1" parent="1">
          <mxGeometry x="1470" y="70" width="180" height="50" as="geometry" />
        </mxCell>
        <mxCell id="RT6RwITCp96EGcr6qQkf-17" value="Insert Data" style="points=[[0.25,0,0],[0.5,0,0],[0.75,0,0],[1,0.25,0],[1,0.5,0],[1,0.75,0],[0.75,1,0],[0.5,1,0],[0.25,1,0],[0,0.75,0],[0,0.5,0],[0,0.25,0]];shape=mxgraph.bpmn.task2;whiteSpace=wrap;rectStyle=rounded;size=10;html=1;container=1;expand=0;collapsible=0;taskMarker=abstract;fontFamily=Helvetica;fontSize=11;fontColor=default;labelBackgroundColor=default;" vertex="1" parent="1">
          <mxGeometry x="256.48" y="850" width="120" height="80" as="geometry" />
        </mxCell>
        <mxCell id="RT6RwITCp96EGcr6qQkf-18" style="edgeStyle=orthogonalEdgeStyle;shape=connector;rounded=0;orthogonalLoop=1;jettySize=auto;html=1;exitX=1;exitY=0.5;exitDx=0;exitDy=0;exitPerimeter=0;entryX=0;entryY=0.5;entryDx=0;entryDy=0;entryPerimeter=0;strokeColor=default;align=center;verticalAlign=middle;fontFamily=Helvetica;fontSize=11;fontColor=default;labelBackgroundColor=default;endArrow=classic;" edge="1" parent="1" source="RT6RwITCp96EGcr6qQkf-16" target="RT6RwITCp96EGcr6qQkf-17">
          <mxGeometry relative="1" as="geometry">
            <mxPoint x="425" y="890" as="sourcePoint" />
          </mxGeometry>
        </mxCell>
        <mxCell id="RT6RwITCp96EGcr6qQkf-22" value="" style="html=1;shape=mxgraph.flowchart.annotation_2;align=left;labelPosition=right;fontFamily=Helvetica;fontSize=11;fontColor=default;labelBackgroundColor=default;direction=south;" vertex="1" parent="1">
          <mxGeometry x="226.5" y="930" width="185" height="40" as="geometry" />
        </mxCell>
        <mxCell id="RT6RwITCp96EGcr6qQkf-23" value="" style="shape=partialRectangle;whiteSpace=wrap;html=1;bottom=1;right=1;left=1;top=0;fillColor=none;routingCenterX=-0.5;" vertex="1" parent="1">
          <mxGeometry x="226.5" y="1020" width="185" height="20" as="geometry" />
        </mxCell>
        <mxCell id="RT6RwITCp96EGcr6qQkf-24" value="&lt;b&gt;DataBase:&lt;/b&gt; SuperStoreDW&lt;br&gt;&lt;b&gt;Table:&lt;/b&gt;&amp;nbsp;Customer&lt;div&gt;&lt;b&gt;Mappings:&lt;/b&gt; &lt;br&gt;Customer ID -&amp;gt; customer_id&lt;br&gt;Customer Name -&amp;gt; customer_name&lt;br&gt;Segment -&amp;gt; segment&lt;/div&gt;" style="text;html=1;align=left;verticalAlign=middle;whiteSpace=wrap;rounded=0;fontFamily=Helvetica;fontSize=11;fontColor=default;labelBackgroundColor=default;" vertex="1" parent="1">
          <mxGeometry x="233.98000000000002" y="980" width="200" height="30" as="geometry" />
        </mxCell>
        <mxCell id="DmKk6OdaDrpml34-n-Ne-6" value="&lt;h1 style=&quot;margin-top: 0px;&quot;&gt;Customer&lt;/h1&gt;" style="text;html=1;whiteSpace=wrap;overflow=hidden;rounded=0;" vertex="1" parent="1">
          <mxGeometry x="-200" y="880" width="180" height="120" as="geometry" />
        </mxCell>
        <mxCell id="DmKk6OdaDrpml34-n-Ne-7" value="" style="html=1;shape=mxgraph.flowchart.annotation_2;align=left;labelPosition=right;fontFamily=Helvetica;fontSize=11;fontColor=default;labelBackgroundColor=default;direction=south;" vertex="1" parent="1">
          <mxGeometry x="37.5" y="260" width="130" height="40" as="geometry" />
        </mxCell>
        <mxCell id="DmKk6OdaDrpml34-n-Ne-8" value="" style="shape=partialRectangle;whiteSpace=wrap;html=1;bottom=1;right=1;left=1;top=0;fillColor=none;routingCenterX=-0.5;" vertex="1" parent="1">
          <mxGeometry x="37.5" y="330" width="130" height="20" as="geometry" />
        </mxCell>
        <mxCell id="DmKk6OdaDrpml34-n-Ne-9" value="&lt;b&gt;File:&lt;/b&gt; Super-Store.xls&lt;div&gt;&lt;b&gt;Type: &lt;/b&gt;Excel&lt;br&gt;&lt;b&gt;Columns:&lt;/b&gt; Category,&amp;nbsp;&lt;br&gt;Sub-Category, Sales&lt;/div&gt;" style="text;html=1;align=left;verticalAlign=middle;whiteSpace=wrap;rounded=0;fontFamily=Helvetica;fontSize=11;fontColor=default;labelBackgroundColor=default;" vertex="1" parent="1">
          <mxGeometry x="42.5" y="300" width="130" height="30" as="geometry" />
        </mxCell>
        <mxCell id="DmKk6OdaDrpml34-n-Ne-13" value="" style="html=1;shape=mxgraph.flowchart.annotation_2;align=left;labelPosition=right;fontFamily=Helvetica;fontSize=11;fontColor=default;labelBackgroundColor=default;direction=south;" vertex="1" parent="1">
          <mxGeometry x="32.5" y="520" width="130" height="40" as="geometry" />
        </mxCell>
        <mxCell id="DmKk6OdaDrpml34-n-Ne-14" value="" style="shape=partialRectangle;whiteSpace=wrap;html=1;bottom=1;right=1;left=1;top=0;fillColor=none;routingCenterX=-0.5;" vertex="1" parent="1">
          <mxGeometry x="32.5" y="590" width="130" height="20" as="geometry" />
        </mxCell>
        <mxCell id="DmKk6OdaDrpml34-n-Ne-15" value="&lt;b&gt;File:&lt;/b&gt; Super-Store.xls&lt;div&gt;&lt;b&gt;Type: &lt;/b&gt;Excel&lt;br&gt;&lt;b&gt;Columns:&lt;/b&gt;&amp;nbsp;Order Date, Ship Date&lt;/div&gt;" style="text;html=1;align=left;verticalAlign=middle;whiteSpace=wrap;rounded=0;fontFamily=Helvetica;fontSize=11;fontColor=default;labelBackgroundColor=default;" vertex="1" parent="1">
          <mxGeometry x="37.5" y="560" width="130" height="30" as="geometry" />
        </mxCell>
        <mxCell id="DmKk6OdaDrpml34-n-Ne-16" value="" style="html=1;shape=mxgraph.flowchart.annotation_2;align=left;labelPosition=right;fontFamily=Helvetica;fontSize=11;fontColor=default;labelBackgroundColor=default;direction=south;" vertex="1" parent="1">
          <mxGeometry x="51.25" y="930" width="142.5" height="40" as="geometry" />
        </mxCell>
        <mxCell id="DmKk6OdaDrpml34-n-Ne-17" value="" style="shape=partialRectangle;whiteSpace=wrap;html=1;bottom=1;right=1;left=1;top=0;fillColor=none;routingCenterX=-0.5;" vertex="1" parent="1">
          <mxGeometry x="51.25" y="1000" width="142.5" height="20" as="geometry" />
        </mxCell>
        <mxCell id="DmKk6OdaDrpml34-n-Ne-18" value="&lt;b&gt;File:&lt;/b&gt; Super-Store.xls&lt;div&gt;&lt;b&gt;Type: &lt;/b&gt;Excel&lt;br&gt;&lt;b&gt;Columns:&lt;/b&gt;&amp;nbsp;Customer ID, Customer Name, Segment&lt;br&gt;&lt;/div&gt;" style="text;html=1;align=left;verticalAlign=middle;whiteSpace=wrap;rounded=0;fontFamily=Helvetica;fontSize=11;fontColor=default;labelBackgroundColor=default;" vertex="1" parent="1">
          <mxGeometry x="56.25" y="970" width="130" height="30" as="geometry" />
        </mxCell>
        <mxCell id="DmKk6OdaDrpml34-n-Ne-21" value="" style="html=1;shape=mxgraph.flowchart.annotation_2;align=left;labelPosition=right;fontFamily=Helvetica;fontSize=11;fontColor=default;labelBackgroundColor=default;direction=south;" vertex="1" parent="1">
          <mxGeometry x="57.5" y="730" width="130" height="40" as="geometry" />
        </mxCell>
        <mxCell id="DmKk6OdaDrpml34-n-Ne-22" value="" style="shape=partialRectangle;whiteSpace=wrap;html=1;bottom=1;right=1;left=1;top=0;fillColor=none;routingCenterX=-0.5;" vertex="1" parent="1">
          <mxGeometry x="57.5" y="800" width="130" height="20" as="geometry" />
        </mxCell>
        <mxCell id="DmKk6OdaDrpml34-n-Ne-23" value="&lt;b&gt;File:&lt;/b&gt; Super-Store.xls&lt;div&gt;&lt;b&gt;Type: &lt;/b&gt;Excel&lt;br&gt;&lt;b&gt;Columns:&lt;/b&gt;&amp;nbsp;Ship Mode&lt;br&gt;&lt;/div&gt;" style="text;html=1;align=left;verticalAlign=middle;whiteSpace=wrap;rounded=0;fontFamily=Helvetica;fontSize=11;fontColor=default;labelBackgroundColor=default;" vertex="1" parent="1">
          <mxGeometry x="62.5" y="770" width="130" height="30" as="geometry" />
        </mxCell>
        <mxCell id="DmKk6OdaDrpml34-n-Ne-24" value="&lt;h1 style=&quot;margin-top: 0px;&quot;&gt;Region&lt;/h1&gt;" style="text;html=1;whiteSpace=wrap;overflow=hidden;rounded=0;" vertex="1" parent="1">
          <mxGeometry x="-200" y="1100" width="180" height="120" as="geometry" />
        </mxCell>
        <mxCell id="DmKk6OdaDrpml34-n-Ne-25" value="Input Data" style="points=[[0.25,0,0],[0.5,0,0],[0.75,0,0],[1,0.25,0],[1,0.5,0],[1,0.75,0],[0.75,1,0],[0.5,1,0],[0.25,1,0],[0,0.75,0],[0,0.5,0],[0,0.25,0]];shape=mxgraph.bpmn.task2;whiteSpace=wrap;rectStyle=rounded;size=10;html=1;container=1;expand=0;collapsible=0;taskMarker=abstract;fontFamily=Helvetica;fontSize=11;fontColor=default;labelBackgroundColor=default;" vertex="1" parent="1">
          <mxGeometry x="61.25" y="1100" width="120" height="80" as="geometry" />
        </mxCell>
        <mxCell id="DmKk6OdaDrpml34-n-Ne-26" value="Insert Data" style="points=[[0.25,0,0],[0.5,0,0],[0.75,0,0],[1,0.25,0],[1,0.5,0],[1,0.75,0],[0.75,1,0],[0.5,1,0],[0.25,1,0],[0,0.75,0],[0,0.5,0],[0,0.25,0]];shape=mxgraph.bpmn.task2;whiteSpace=wrap;rectStyle=rounded;size=10;html=1;container=1;expand=0;collapsible=0;taskMarker=abstract;fontFamily=Helvetica;fontSize=11;fontColor=default;labelBackgroundColor=default;" vertex="1" parent="1">
          <mxGeometry x="263.11" y="1100" width="120" height="80" as="geometry" />
        </mxCell>
        <mxCell id="DmKk6OdaDrpml34-n-Ne-28" value="" style="html=1;shape=mxgraph.flowchart.annotation_2;align=left;labelPosition=right;fontFamily=Helvetica;fontSize=11;fontColor=default;labelBackgroundColor=default;direction=south;" vertex="1" parent="1">
          <mxGeometry x="245" y="1180" width="156.23" height="40" as="geometry" />
        </mxCell>
        <mxCell id="DmKk6OdaDrpml34-n-Ne-29" value="" style="shape=partialRectangle;whiteSpace=wrap;html=1;bottom=1;right=1;left=1;top=0;fillColor=none;routingCenterX=-0.5;" vertex="1" parent="1">
          <mxGeometry x="245" y="1250" width="156.23" height="20" as="geometry" />
        </mxCell>
        <mxCell id="DmKk6OdaDrpml34-n-Ne-30" value="&lt;b&gt;DataBase:&lt;/b&gt; SuperStoreDW&lt;br&gt;&lt;b&gt;Table:&lt;/b&gt;&amp;nbsp;Region&lt;div&gt;&lt;b&gt;Mappings:&lt;/b&gt; &lt;br&gt;Region -&amp;gt; region_name&lt;br&gt;Country -&amp;gt; country_name&lt;/div&gt;" style="text;html=1;align=left;verticalAlign=middle;whiteSpace=wrap;rounded=0;fontFamily=Helvetica;fontSize=11;fontColor=default;labelBackgroundColor=default;" vertex="1" parent="1">
          <mxGeometry x="255" y="1220" width="200" height="30" as="geometry" />
        </mxCell>
        <mxCell id="DmKk6OdaDrpml34-n-Ne-36" value="" style="html=1;shape=mxgraph.flowchart.annotation_2;align=left;labelPosition=right;fontFamily=Helvetica;fontSize=11;fontColor=default;labelBackgroundColor=default;direction=south;" vertex="1" parent="1">
          <mxGeometry x="50" y="1180" width="142.5" height="40" as="geometry" />
        </mxCell>
        <mxCell id="DmKk6OdaDrpml34-n-Ne-37" value="" style="shape=partialRectangle;whiteSpace=wrap;html=1;bottom=1;right=1;left=1;top=0;fillColor=none;routingCenterX=-0.5;" vertex="1" parent="1">
          <mxGeometry x="50" y="1250" width="142.5" height="20" as="geometry" />
        </mxCell>
        <mxCell id="DmKk6OdaDrpml34-n-Ne-38" value="&lt;b&gt;File:&lt;/b&gt; Super-Store.xls&lt;div&gt;&lt;b&gt;Type: &lt;/b&gt;Excel&lt;br&gt;&lt;b&gt;Columns:&lt;/b&gt;&amp;nbsp;Region, Country&lt;br&gt;&lt;/div&gt;" style="text;html=1;align=left;verticalAlign=middle;whiteSpace=wrap;rounded=0;fontFamily=Helvetica;fontSize=11;fontColor=default;labelBackgroundColor=default;" vertex="1" parent="1">
          <mxGeometry x="55" y="1220" width="130" height="30" as="geometry" />
        </mxCell>
        <mxCell id="DmKk6OdaDrpml34-n-Ne-43" style="edgeStyle=orthogonalEdgeStyle;rounded=0;orthogonalLoop=1;jettySize=auto;html=1;exitX=1;exitY=0.5;exitDx=0;exitDy=0;exitPerimeter=0;entryX=0;entryY=0.5;entryDx=0;entryDy=0;entryPerimeter=0;" edge="1" parent="1" source="DmKk6OdaDrpml34-n-Ne-25" target="DmKk6OdaDrpml34-n-Ne-26">
          <mxGeometry relative="1" as="geometry">
            <mxPoint x="637.5" y="1140" as="sourcePoint" />
          </mxGeometry>
        </mxCell>
        <mxCell id="DmKk6OdaDrpml34-n-Ne-44" value="&lt;h1 style=&quot;margin-top: 0px;&quot;&gt;State&lt;/h1&gt;" style="text;html=1;whiteSpace=wrap;overflow=hidden;rounded=0;" vertex="1" parent="1">
          <mxGeometry x="-190" y="1507.5" width="180" height="120" as="geometry" />
        </mxCell>
        <mxCell id="DmKk6OdaDrpml34-n-Ne-45" value="&lt;h1 style=&quot;margin-top: 0px;&quot;&gt;Location&lt;/h1&gt;" style="text;html=1;whiteSpace=wrap;overflow=hidden;rounded=0;" vertex="1" parent="1">
          <mxGeometry x="-200" y="2140" width="180" height="120" as="geometry" />
        </mxCell>
        <mxCell id="zF4Q_hd38RbBPgWRsxnY-12" style="edgeStyle=orthogonalEdgeStyle;rounded=0;orthogonalLoop=1;jettySize=auto;html=1;exitX=1;exitY=0.5;exitDx=0;exitDy=0;exitPerimeter=0;entryX=0;entryY=0.5;entryDx=0;entryDy=0;" edge="1" parent="1" source="zF4Q_hd38RbBPgWRsxnY-8">
          <mxGeometry relative="1" as="geometry">
            <mxPoint x="292" y="1510" as="targetPoint" />
          </mxGeometry>
        </mxCell>
        <mxCell id="zF4Q_hd38RbBPgWRsxnY-8" value="Input Data" style="points=[[0.25,0,0],[0.5,0,0],[0.75,0,0],[1,0.25,0],[1,0.5,0],[1,0.75,0],[0.75,1,0],[0.5,1,0],[0.25,1,0],[0,0.75,0],[0,0.5,0],[0,0.25,0]];shape=mxgraph.bpmn.task2;whiteSpace=wrap;rectStyle=rounded;size=10;html=1;container=1;expand=0;collapsible=0;taskMarker=abstract;fontFamily=Helvetica;fontSize=11;fontColor=default;labelBackgroundColor=default;" vertex="1" parent="1">
          <mxGeometry x="64.5" y="1470" width="120" height="80" as="geometry" />
        </mxCell>
        <mxCell id="zF4Q_hd38RbBPgWRsxnY-9" value="" style="html=1;shape=mxgraph.flowchart.annotation_2;align=left;labelPosition=right;fontFamily=Helvetica;fontSize=11;fontColor=default;labelBackgroundColor=default;direction=south;" vertex="1" parent="1">
          <mxGeometry x="53.25" y="1550" width="142.5" height="35" as="geometry" />
        </mxCell>
        <mxCell id="zF4Q_hd38RbBPgWRsxnY-10" value="" style="shape=partialRectangle;whiteSpace=wrap;html=1;bottom=1;right=1;left=1;top=0;fillColor=none;routingCenterX=-0.5;" vertex="1" parent="1">
          <mxGeometry x="53.75" y="1610" width="142.5" height="20" as="geometry" />
        </mxCell>
        <mxCell id="zF4Q_hd38RbBPgWRsxnY-11" value="&lt;b&gt;File:&lt;/b&gt; Super-Store.xls&lt;div&gt;&lt;b&gt;Type: &lt;/b&gt;Excel&lt;br&gt;&lt;b&gt;Columns:&lt;/b&gt;&amp;nbsp;State, Region, Country&lt;br&gt;&lt;/div&gt;" style="text;html=1;align=left;verticalAlign=middle;whiteSpace=wrap;rounded=0;fontFamily=Helvetica;fontSize=11;fontColor=default;labelBackgroundColor=default;" vertex="1" parent="1">
          <mxGeometry x="59.5" y="1585" width="130" height="30" as="geometry" />
        </mxCell>
        <mxCell id="zF4Q_hd38RbBPgWRsxnY-25" value="Lookup" style="rounded=1;whiteSpace=wrap;html=1;" vertex="1" parent="1">
          <mxGeometry x="295" y="1480" width="120" height="60" as="geometry" />
        </mxCell>
        <mxCell id="zF4Q_hd38RbBPgWRsxnY-30" value="" style="html=1;shape=mxgraph.flowchart.annotation_2;align=left;labelPosition=right;direction=north;" vertex="1" parent="1">
          <mxGeometry x="260" y="1430" width="180" height="50" as="geometry" />
        </mxCell>
        <mxCell id="zF4Q_hd38RbBPgWRsxnY-31" value="" style="shape=partialRectangle;whiteSpace=wrap;html=1;bottom=1;right=1;left=1;top=0;fillColor=none;routingCenterX=-0.5;direction=west;" vertex="1" parent="1">
          <mxGeometry x="260" y="1370" width="180" height="30" as="geometry" />
        </mxCell>
        <mxCell id="zF4Q_hd38RbBPgWRsxnY-32" value="&lt;b&gt;Retrieve:&lt;/b&gt; region_id&lt;br&gt;&lt;b&gt;DataBase:&lt;/b&gt; SuperStoreDW&lt;div&gt;&lt;b&gt;Query:&lt;/b&gt;&lt;/div&gt;&lt;div&gt;&lt;b&gt;Where:&lt;/b&gt; Region&lt;/div&gt;&lt;div&gt;&lt;b&gt;Matches:&lt;/b&gt; region_name&lt;/div&gt;" style="text;html=1;align=left;verticalAlign=middle;resizable=0;points=[];autosize=1;strokeColor=none;fillColor=none;rotation=0;" vertex="1" parent="1">
          <mxGeometry x="262" y="1370" width="170" height="90" as="geometry" />
        </mxCell>
        <mxCell id="zF4Q_hd38RbBPgWRsxnY-47" value="Insert Data" style="rounded=1;whiteSpace=wrap;html=1;" vertex="1" parent="1">
          <mxGeometry x="795" y="1480" width="120" height="60" as="geometry" />
        </mxCell>
        <mxCell id="zF4Q_hd38RbBPgWRsxnY-48" value="" style="html=1;shape=mxgraph.flowchart.annotation_2;align=left;labelPosition=right;fontFamily=Helvetica;fontSize=11;fontColor=default;labelBackgroundColor=default;direction=south;" vertex="1" parent="1">
          <mxGeometry x="780" y="1540" width="156.23" height="40" as="geometry" />
        </mxCell>
        <mxCell id="zF4Q_hd38RbBPgWRsxnY-49" value="" style="shape=partialRectangle;whiteSpace=wrap;html=1;bottom=1;right=1;left=1;top=0;fillColor=none;routingCenterX=-0.5;" vertex="1" parent="1">
          <mxGeometry x="780" y="1630" width="156.23" height="20" as="geometry" />
        </mxCell>
        <mxCell id="zF4Q_hd38RbBPgWRsxnY-50" value="&lt;b&gt;DataBase:&lt;/b&gt; SuperStoreDW&lt;br&gt;&lt;b&gt;Table:&lt;/b&gt;&amp;nbsp;State&lt;div&gt;&lt;b&gt;Mappings:&lt;/b&gt;&lt;/div&gt;&lt;div&gt; State -&amp;gt; state_name&lt;br&gt;Region -&amp;gt; region_name&lt;br&gt;Country -&amp;gt; country_name&lt;/div&gt;" style="text;html=1;align=left;verticalAlign=middle;whiteSpace=wrap;rounded=0;fontFamily=Helvetica;fontSize=11;fontColor=default;labelBackgroundColor=default;" vertex="1" parent="1">
          <mxGeometry x="783.61" y="1585" width="200" height="30" as="geometry" />
        </mxCell>
        <mxCell id="zF4Q_hd38RbBPgWRsxnY-57" style="edgeStyle=orthogonalEdgeStyle;rounded=0;orthogonalLoop=1;jettySize=auto;html=1;exitX=1;exitY=0.5;exitDx=0;exitDy=0;exitPerimeter=0;entryX=0;entryY=0.5;entryDx=0;entryDy=0;" edge="1" parent="1" source="zF4Q_hd38RbBPgWRsxnY-58">
          <mxGeometry relative="1" as="geometry">
            <mxPoint x="303.27" y="2150" as="targetPoint" />
          </mxGeometry>
        </mxCell>
        <mxCell id="ouovoWxsHXUEzODy_Mbh-4" value="Insert Data" style="rounded=1;whiteSpace=wrap;html=1;" vertex="1" parent="1">
          <mxGeometry x="460" y="1740" width="120" height="60" as="geometry" />
        </mxCell>
        <mxCell id="zF4Q_hd38RbBPgWRsxnY-58" value="Input Data" style="points=[[0.25,0,0],[0.5,0,0],[0.75,0,0],[1,0.25,0],[1,0.5,0],[1,0.75,0],[0.75,1,0],[0.5,1,0],[0.25,1,0],[0,0.75,0],[0,0.5,0],[0,0.25,0]];shape=mxgraph.bpmn.task2;whiteSpace=wrap;rectStyle=rounded;size=10;html=1;container=1;expand=0;collapsible=0;taskMarker=abstract;fontFamily=Helvetica;fontSize=11;fontColor=default;labelBackgroundColor=default;" vertex="1" parent="1">
          <mxGeometry x="75.77" y="2110" width="120" height="80" as="geometry" />
        </mxCell>
        <mxCell id="zF4Q_hd38RbBPgWRsxnY-59" value="" style="html=1;shape=mxgraph.flowchart.annotation_2;align=left;labelPosition=right;fontFamily=Helvetica;fontSize=11;fontColor=default;labelBackgroundColor=default;direction=south;" vertex="1" parent="1">
          <mxGeometry x="64.52" y="2190" width="142.5" height="35" as="geometry" />
        </mxCell>
        <mxCell id="zF4Q_hd38RbBPgWRsxnY-60" value="" style="shape=partialRectangle;whiteSpace=wrap;html=1;bottom=1;right=1;left=1;top=0;fillColor=none;routingCenterX=-0.5;" vertex="1" parent="1">
          <mxGeometry x="65" y="2260" width="142.5" height="20" as="geometry" />
        </mxCell>
        <mxCell id="zF4Q_hd38RbBPgWRsxnY-61" value="&lt;b&gt;File:&lt;/b&gt; Super-Store.xls&lt;div&gt;&lt;b&gt;Type: &lt;/b&gt;Excel&lt;br&gt;&lt;b&gt;Columns:&lt;/b&gt;&amp;nbsp;State, Region, Country, City, Postal-Code&lt;br&gt;&lt;/div&gt;" style="text;html=1;align=left;verticalAlign=middle;whiteSpace=wrap;rounded=0;fontFamily=Helvetica;fontSize=11;fontColor=default;labelBackgroundColor=default;" vertex="1" parent="1">
          <mxGeometry x="70.77" y="2230" width="130" height="30" as="geometry" />
        </mxCell>
        <mxCell id="zF4Q_hd38RbBPgWRsxnY-62" value="Lookup" style="rounded=1;whiteSpace=wrap;html=1;" vertex="1" parent="1">
          <mxGeometry x="306.27" y="2120" width="120" height="60" as="geometry" />
        </mxCell>
        <mxCell id="zF4Q_hd38RbBPgWRsxnY-63" value="" style="html=1;shape=mxgraph.flowchart.annotation_2;align=left;labelPosition=right;direction=north;" vertex="1" parent="1">
          <mxGeometry x="288.75" y="2070" width="158.73" height="50" as="geometry" />
        </mxCell>
        <mxCell id="zF4Q_hd38RbBPgWRsxnY-64" value="" style="shape=partialRectangle;whiteSpace=wrap;html=1;bottom=1;right=1;left=1;top=0;fillColor=none;routingCenterX=-0.5;direction=west;" vertex="1" parent="1">
          <mxGeometry x="288.75" y="2010" width="158.73" height="30" as="geometry" />
        </mxCell>
        <mxCell id="zF4Q_hd38RbBPgWRsxnY-65" value="&lt;b&gt;Retrieve:&lt;/b&gt; region_id&lt;br&gt;&lt;b&gt;DataBase:&lt;/b&gt; SuperStoreDW&lt;div&gt;&lt;b&gt;Query:&lt;/b&gt;&lt;/div&gt;&lt;div&gt;&lt;b&gt;Where:&lt;/b&gt; Region&lt;/div&gt;&lt;div&gt;&lt;b&gt;Matches:&lt;/b&gt; region_name&lt;/div&gt;" style="text;html=1;align=left;verticalAlign=middle;resizable=0;points=[];autosize=1;strokeColor=none;fillColor=none;rotation=0;" vertex="1" parent="1">
          <mxGeometry x="296.74999999999994" y="2010" width="170" height="90" as="geometry" />
        </mxCell>
        <mxCell id="zF4Q_hd38RbBPgWRsxnY-66" value="Insert Data" style="rounded=1;whiteSpace=wrap;html=1;" vertex="1" parent="1">
          <mxGeometry x="931.75" y="2235" width="120" height="60" as="geometry" />
        </mxCell>
        <mxCell id="zF4Q_hd38RbBPgWRsxnY-67" value="" style="html=1;shape=mxgraph.flowchart.annotation_2;align=left;labelPosition=right;fontFamily=Helvetica;fontSize=11;fontColor=default;labelBackgroundColor=default;direction=south;" vertex="1" parent="1">
          <mxGeometry x="915" y="2295" width="156.23" height="30" as="geometry" />
        </mxCell>
        <mxCell id="zF4Q_hd38RbBPgWRsxnY-68" value="" style="shape=partialRectangle;whiteSpace=wrap;html=1;bottom=1;right=1;left=1;top=0;fillColor=none;routingCenterX=-0.5;" vertex="1" parent="1">
          <mxGeometry x="915" y="2380" width="156.23" height="20" as="geometry" />
        </mxCell>
        <mxCell id="zF4Q_hd38RbBPgWRsxnY-69" value="&lt;b&gt;DataBase:&lt;/b&gt; SuperStoreDW&lt;br&gt;&lt;b&gt;Table:&lt;/b&gt;&amp;nbsp;Location&lt;div&gt;&lt;b&gt;Mappings:&lt;/b&gt;&lt;/div&gt;&lt;div&gt; State -&amp;gt; state_name&lt;br&gt;Region -&amp;gt; region_name&lt;br&gt;Country -&amp;gt; country_name&lt;/div&gt;" style="text;html=1;align=left;verticalAlign=middle;whiteSpace=wrap;rounded=0;fontFamily=Helvetica;fontSize=11;fontColor=default;labelBackgroundColor=default;" vertex="1" parent="1">
          <mxGeometry x="925.35" y="2340" width="200" height="30" as="geometry" />
        </mxCell>
        <mxCell id="zF4Q_hd38RbBPgWRsxnY-70" value="&lt;h1 style=&quot;margin-top: 0px;&quot;&gt;Product&lt;/h1&gt;" style="text;html=1;whiteSpace=wrap;overflow=hidden;rounded=0;" vertex="1" parent="1">
          <mxGeometry x="-176.91" y="2720" width="180" height="120" as="geometry" />
        </mxCell>
        <mxCell id="zF4Q_hd38RbBPgWRsxnY-72" style="edgeStyle=orthogonalEdgeStyle;rounded=0;orthogonalLoop=1;jettySize=auto;html=1;exitX=1;exitY=0.5;exitDx=0;exitDy=0;exitPerimeter=0;entryX=0;entryY=0.5;entryDx=0;entryDy=0;" edge="1" parent="1" source="zF4Q_hd38RbBPgWRsxnY-73">
          <mxGeometry relative="1" as="geometry">
            <mxPoint x="305.09" y="2810" as="targetPoint" />
          </mxGeometry>
        </mxCell>
        <mxCell id="zF4Q_hd38RbBPgWRsxnY-73" value="Input Data" style="points=[[0.25,0,0],[0.5,0,0],[0.75,0,0],[1,0.25,0],[1,0.5,0],[1,0.75,0],[0.75,1,0],[0.5,1,0],[0.25,1,0],[0,0.75,0],[0,0.5,0],[0,0.25,0]];shape=mxgraph.bpmn.task2;whiteSpace=wrap;rectStyle=rounded;size=10;html=1;container=1;expand=0;collapsible=0;taskMarker=abstract;fontFamily=Helvetica;fontSize=11;fontColor=default;labelBackgroundColor=default;" vertex="1" parent="1">
          <mxGeometry x="77.59000000000002" y="2770" width="120" height="80" as="geometry" />
        </mxCell>
        <mxCell id="zF4Q_hd38RbBPgWRsxnY-74" value="" style="html=1;shape=mxgraph.flowchart.annotation_2;align=left;labelPosition=right;fontFamily=Helvetica;fontSize=11;fontColor=default;labelBackgroundColor=default;direction=south;" vertex="1" parent="1">
          <mxGeometry x="66.34" y="2850" width="142.5" height="35" as="geometry" />
        </mxCell>
        <mxCell id="zF4Q_hd38RbBPgWRsxnY-75" value="" style="shape=partialRectangle;whiteSpace=wrap;html=1;bottom=1;right=1;left=1;top=0;fillColor=none;routingCenterX=-0.5;" vertex="1" parent="1">
          <mxGeometry x="66.82000000000001" y="2920" width="142.5" height="20" as="geometry" />
        </mxCell>
        <mxCell id="zF4Q_hd38RbBPgWRsxnY-76" value="&lt;b&gt;File:&lt;/b&gt; Super-Store.xls&lt;div&gt;&lt;b&gt;Type: &lt;/b&gt;Excel&lt;br&gt;&lt;b&gt;Columns:&lt;/b&gt;&amp;nbsp;Category, Sub-Category, ProductID, ProductName&lt;br&gt;&lt;/div&gt;" style="text;html=1;align=left;verticalAlign=middle;whiteSpace=wrap;rounded=0;fontFamily=Helvetica;fontSize=11;fontColor=default;labelBackgroundColor=default;" vertex="1" parent="1">
          <mxGeometry x="72.59000000000002" y="2890" width="130" height="30" as="geometry" />
        </mxCell>
        <mxCell id="krb8KjFSCPngvSBI7jEi-1" style="edgeStyle=orthogonalEdgeStyle;rounded=0;orthogonalLoop=1;jettySize=auto;html=1;exitX=1;exitY=0.5;exitDx=0;exitDy=0;entryX=0;entryY=0.5;entryDx=0;entryDy=0;endArrow=blockThin;endFill=1;startArrow=diamondThin;startFill=0;" edge="1" parent="1" source="zF4Q_hd38RbBPgWRsxnY-77" target="zF4Q_hd38RbBPgWRsxnY-163">
          <mxGeometry relative="1" as="geometry" />
        </mxCell>
        <mxCell id="zF4Q_hd38RbBPgWRsxnY-77" value="Lookup" style="rounded=1;whiteSpace=wrap;html=1;" vertex="1" parent="1">
          <mxGeometry x="308.09" y="2780" width="120" height="60" as="geometry" />
        </mxCell>
        <mxCell id="zF4Q_hd38RbBPgWRsxnY-78" value="" style="html=1;shape=mxgraph.flowchart.annotation_2;align=left;labelPosition=right;direction=north;" vertex="1" parent="1">
          <mxGeometry x="273.09" y="2730" width="170.73" height="50" as="geometry" />
        </mxCell>
        <mxCell id="zF4Q_hd38RbBPgWRsxnY-79" value="" style="shape=partialRectangle;whiteSpace=wrap;html=1;bottom=1;right=1;left=1;top=0;fillColor=none;routingCenterX=-0.5;direction=west;" vertex="1" parent="1">
          <mxGeometry x="273.09" y="2670" width="170.73" height="30" as="geometry" />
        </mxCell>
        <mxCell id="zF4Q_hd38RbBPgWRsxnY-80" value="&lt;b&gt;Retrieve:&lt;/b&gt;&amp;nbsp;category_id&lt;br&gt;&lt;b&gt;DataBase:&lt;/b&gt; SuperStoreDW&lt;div&gt;&lt;b&gt;Query:&lt;/b&gt;&lt;/div&gt;&lt;div&gt;&lt;b&gt;Where: &lt;/b&gt;Category&lt;/div&gt;&lt;div&gt;&lt;b&gt;Matches:&lt;/b&gt;&amp;nbsp;category_name&lt;/div&gt;" style="text;html=1;align=left;verticalAlign=middle;resizable=0;points=[];autosize=1;strokeColor=none;fillColor=none;rotation=0;" vertex="1" parent="1">
          <mxGeometry x="285.09" y="2670" width="170" height="90" as="geometry" />
        </mxCell>
        <mxCell id="zF4Q_hd38RbBPgWRsxnY-81" value="Insert Data" style="rounded=1;whiteSpace=wrap;html=1;" vertex="1" parent="1">
          <mxGeometry x="767.46" y="2780" width="120" height="60" as="geometry" />
        </mxCell>
        <mxCell id="zF4Q_hd38RbBPgWRsxnY-82" value="" style="html=1;shape=mxgraph.flowchart.annotation_2;align=left;labelPosition=right;fontFamily=Helvetica;fontSize=11;fontColor=default;labelBackgroundColor=default;direction=south;" vertex="1" parent="1">
          <mxGeometry x="738.23" y="2840" width="180.73" height="40" as="geometry" />
        </mxCell>
        <mxCell id="zF4Q_hd38RbBPgWRsxnY-83" value="" style="shape=partialRectangle;whiteSpace=wrap;html=1;bottom=1;right=1;left=1;top=0;fillColor=none;routingCenterX=-0.5;" vertex="1" parent="1">
          <mxGeometry x="738.23" y="2915" width="180.73" height="20" as="geometry" />
        </mxCell>
        <mxCell id="zF4Q_hd38RbBPgWRsxnY-84" value="&lt;b&gt;DataBase:&lt;/b&gt; SuperStoreDW&lt;br&gt;&lt;b&gt;Table:&lt;/b&gt;&amp;nbsp;Product&lt;div&gt;&lt;b&gt;Mappings:&lt;/b&gt; &lt;br&gt;Product ID -&amp;gt; product_id&lt;/div&gt;&lt;div&gt;Product Name -&amp;gt; product_name&lt;/div&gt;" style="text;html=1;align=left;verticalAlign=middle;whiteSpace=wrap;rounded=0;fontFamily=Helvetica;fontSize=11;fontColor=default;labelBackgroundColor=default;" vertex="1" parent="1">
          <mxGeometry x="751.96" y="2885" width="200" height="30" as="geometry" />
        </mxCell>
        <mxCell id="ouovoWxsHXUEzODy_Mbh-8" value="Found" style="text;html=1;align=center;verticalAlign=middle;whiteSpace=wrap;rounded=0;" vertex="1" parent="1">
          <mxGeometry x="425" y="1480" width="60" height="30" as="geometry" />
        </mxCell>
        <mxCell id="ouovoWxsHXUEzODy_Mbh-11" value="Not Found" style="text;html=1;align=center;verticalAlign=middle;whiteSpace=wrap;rounded=0;" vertex="1" parent="1">
          <mxGeometry x="365" y="1555" width="60" height="30" as="geometry" />
        </mxCell>
        <mxCell id="ouovoWxsHXUEzODy_Mbh-12" value="" style="html=1;shape=mxgraph.flowchart.annotation_2;align=left;labelPosition=right;fontFamily=Helvetica;fontSize=11;fontColor=default;labelBackgroundColor=default;direction=south;" vertex="1" parent="1">
          <mxGeometry x="470" y="1800" width="100" height="40" as="geometry" />
        </mxCell>
        <mxCell id="ouovoWxsHXUEzODy_Mbh-13" value="" style="shape=partialRectangle;whiteSpace=wrap;html=1;bottom=1;right=1;left=1;top=0;fillColor=none;routingCenterX=-0.5;" vertex="1" parent="1">
          <mxGeometry x="470" y="1855" width="100" height="20" as="geometry" />
        </mxCell>
        <mxCell id="ouovoWxsHXUEzODy_Mbh-14" value="&lt;b&gt;File: &lt;/b&gt;Errors.txt&lt;br&gt;&lt;b&gt;Type:&lt;/b&gt; Text" style="text;html=1;align=left;verticalAlign=middle;whiteSpace=wrap;rounded=0;" vertex="1" parent="1">
          <mxGeometry x="477.5" y="1830" width="160" height="30" as="geometry" />
        </mxCell>
        <mxCell id="ouovoWxsHXUEzODy_Mbh-17" value="" style="edgeStyle=elbowEdgeStyle;fontSize=12;html=1;endArrow=blockThin;endFill=1;startArrow=diamondThin;startFill=0;endSize=6;startSize=10;rounded=0;exitX=1;exitY=0.5;exitDx=0;exitDy=0;entryX=0;entryY=0.5;entryDx=0;entryDy=0;" edge="1" parent="1" target="zF4Q_hd38RbBPgWRsxnY-112">
          <mxGeometry width="160" relative="1" as="geometry">
            <mxPoint x="425.48" y="2150" as="sourcePoint" />
            <mxPoint x="535.48" y="2150" as="targetPoint" />
          </mxGeometry>
        </mxCell>
        <mxCell id="ouovoWxsHXUEzODy_Mbh-18" value="Found" style="text;html=1;align=center;verticalAlign=middle;whiteSpace=wrap;rounded=0;" vertex="1" parent="1">
          <mxGeometry x="435.48" y="2120" width="60" height="30" as="geometry" />
        </mxCell>
        <mxCell id="FOHmmWR7ApQ6qYltdzRu-2" style="edgeStyle=orthogonalEdgeStyle;rounded=0;orthogonalLoop=1;jettySize=auto;html=1;exitX=0.5;exitY=1;exitDx=0;exitDy=0;endArrow=blockThin;endFill=1;startArrow=diamondThin;startFill=0;entryX=0;entryY=0.5;entryDx=0;entryDy=0;" edge="1" parent="1" source="zF4Q_hd38RbBPgWRsxnY-25" target="zF4Q_hd38RbBPgWRsxnY-107">
          <mxGeometry relative="1" as="geometry">
            <mxPoint x="410" y="1680" as="targetPoint" />
          </mxGeometry>
        </mxCell>
        <mxCell id="FOHmmWR7ApQ6qYltdzRu-3" value="Insert Data" style="rounded=1;whiteSpace=wrap;html=1;" vertex="1" parent="1">
          <mxGeometry x="547.74" y="2360" width="120" height="60" as="geometry" />
        </mxCell>
        <mxCell id="FOHmmWR7ApQ6qYltdzRu-4" value="Not Found" style="text;html=1;align=center;verticalAlign=middle;whiteSpace=wrap;rounded=0;" vertex="1" parent="1">
          <mxGeometry x="372" y="2185" width="60" height="30" as="geometry" />
        </mxCell>
        <mxCell id="FOHmmWR7ApQ6qYltdzRu-5" value="" style="html=1;shape=mxgraph.flowchart.annotation_2;align=left;labelPosition=right;fontFamily=Helvetica;fontSize=11;fontColor=default;labelBackgroundColor=default;direction=south;" vertex="1" parent="1">
          <mxGeometry x="526.62" y="2420" width="156.23" height="40" as="geometry" />
        </mxCell>
        <mxCell id="FOHmmWR7ApQ6qYltdzRu-6" value="" style="shape=partialRectangle;whiteSpace=wrap;html=1;bottom=1;right=1;left=1;top=0;fillColor=none;routingCenterX=-0.5;" vertex="1" parent="1">
          <mxGeometry x="525" y="2470" width="156.23" height="20" as="geometry" />
        </mxCell>
        <mxCell id="FOHmmWR7ApQ6qYltdzRu-8" value="&lt;b&gt;File: &lt;/b&gt;Errors.txt&lt;br&gt;&lt;b&gt;Type:&lt;/b&gt; Text" style="text;html=1;align=left;verticalAlign=middle;whiteSpace=wrap;rounded=0;" vertex="1" parent="1">
          <mxGeometry x="533.25" y="2450" width="160" height="30" as="geometry" />
        </mxCell>
        <mxCell id="FOHmmWR7ApQ6qYltdzRu-9" value="Insert Data" style="rounded=1;whiteSpace=wrap;html=1;" vertex="1" parent="1">
          <mxGeometry x="432.87" y="2990" width="120" height="60" as="geometry" />
        </mxCell>
        <mxCell id="FOHmmWR7ApQ6qYltdzRu-10" value="Not Found" style="text;html=1;align=center;verticalAlign=middle;whiteSpace=wrap;rounded=0;" vertex="1" parent="1">
          <mxGeometry x="382.94" y="2855" width="60" height="30" as="geometry" />
        </mxCell>
        <mxCell id="FOHmmWR7ApQ6qYltdzRu-11" value="" style="html=1;shape=mxgraph.flowchart.annotation_2;align=left;labelPosition=right;fontFamily=Helvetica;fontSize=11;fontColor=default;labelBackgroundColor=default;direction=south;" vertex="1" parent="1">
          <mxGeometry x="411.75" y="3050" width="156.23" height="40" as="geometry" />
        </mxCell>
        <mxCell id="FOHmmWR7ApQ6qYltdzRu-12" value="" style="shape=partialRectangle;whiteSpace=wrap;html=1;bottom=1;right=1;left=1;top=0;fillColor=none;routingCenterX=-0.5;" vertex="1" parent="1">
          <mxGeometry x="410.75" y="3105" width="156.23" height="20" as="geometry" />
        </mxCell>
        <mxCell id="FOHmmWR7ApQ6qYltdzRu-14" value="&lt;b&gt;File: &lt;/b&gt;Errors.txt&lt;br&gt;&lt;b&gt;Type:&lt;/b&gt; Text" style="text;html=1;align=left;verticalAlign=middle;whiteSpace=wrap;rounded=0;" vertex="1" parent="1">
          <mxGeometry x="420" y="3085" width="160" height="30" as="geometry" />
        </mxCell>
        <mxCell id="FOHmmWR7ApQ6qYltdzRu-16" value="Found" style="text;html=1;align=center;verticalAlign=middle;whiteSpace=wrap;rounded=0;" vertex="1" parent="1">
          <mxGeometry x="652.36" y="2780" width="60" height="30" as="geometry" />
        </mxCell>
        <mxCell id="zF4Q_hd38RbBPgWRsxnY-101" value="Lookup" style="rounded=1;whiteSpace=wrap;html=1;" vertex="1" parent="1">
          <mxGeometry x="550.48" y="1480" width="120" height="60" as="geometry" />
        </mxCell>
        <mxCell id="zF4Q_hd38RbBPgWRsxnY-102" value="" style="shape=partialRectangle;whiteSpace=wrap;html=1;bottom=1;right=1;left=1;top=0;fillColor=none;routingCenterX=-0.5;direction=west;" vertex="1" parent="1">
          <mxGeometry x="519.27" y="1370" width="180" height="30" as="geometry" />
        </mxCell>
        <mxCell id="zF4Q_hd38RbBPgWRsxnY-103" value="&lt;b&gt;Retrieve:&lt;/b&gt;&amp;nbsp;country_id&lt;br&gt;&lt;b&gt;DataBase:&lt;/b&gt; SuperStoreDW&lt;div&gt;&lt;b&gt;Query:&lt;/b&gt;&lt;/div&gt;&lt;div&gt;&lt;b&gt;Where:&lt;/b&gt;&amp;nbsp;Country&lt;/div&gt;&lt;div&gt;&lt;b&gt;Matches:&lt;/b&gt;&amp;nbsp;country_name&lt;/div&gt;" style="text;html=1;align=left;verticalAlign=middle;resizable=0;points=[];autosize=1;strokeColor=none;fillColor=none;rotation=0;" vertex="1" parent="1">
          <mxGeometry x="527.52" y="1370" width="170" height="90" as="geometry" />
        </mxCell>
        <mxCell id="zF4Q_hd38RbBPgWRsxnY-104" value="" style="html=1;shape=mxgraph.flowchart.annotation_2;align=left;labelPosition=right;direction=north;" vertex="1" parent="1">
          <mxGeometry x="522.52" y="1430" width="180" height="50" as="geometry" />
        </mxCell>
        <mxCell id="zF4Q_hd38RbBPgWRsxnY-105" value="Not Found" style="text;html=1;align=center;verticalAlign=middle;whiteSpace=wrap;rounded=0;" vertex="1" parent="1">
          <mxGeometry x="618.24" y="1555" width="60" height="30" as="geometry" />
        </mxCell>
        <mxCell id="zF4Q_hd38RbBPgWRsxnY-106" style="edgeStyle=orthogonalEdgeStyle;rounded=0;orthogonalLoop=1;jettySize=auto;html=1;exitX=0.5;exitY=1;exitDx=0;exitDy=0;endArrow=blockThin;endFill=1;startArrow=diamondThin;startFill=0;entryX=1.008;entryY=0.633;entryDx=0;entryDy=0;entryPerimeter=0;" edge="1" parent="1" target="zF4Q_hd38RbBPgWRsxnY-107">
          <mxGeometry relative="1" as="geometry">
            <mxPoint x="608.24" y="1615" as="targetPoint" />
            <mxPoint x="608.24" y="1540" as="sourcePoint" />
            <Array as="points">
              <mxPoint x="608" y="1678" />
            </Array>
          </mxGeometry>
        </mxCell>
        <mxCell id="zF4Q_hd38RbBPgWRsxnY-108" style="edgeStyle=orthogonalEdgeStyle;rounded=0;orthogonalLoop=1;jettySize=auto;html=1;exitX=0.5;exitY=1;exitDx=0;exitDy=0;" edge="1" parent="1" source="zF4Q_hd38RbBPgWRsxnY-107" target="ouovoWxsHXUEzODy_Mbh-4">
          <mxGeometry relative="1" as="geometry" />
        </mxCell>
        <mxCell id="zF4Q_hd38RbBPgWRsxnY-107" value="Union" style="rounded=1;whiteSpace=wrap;html=1;" vertex="1" parent="1">
          <mxGeometry x="460" y="1640" width="120" height="60" as="geometry" />
        </mxCell>
        <mxCell id="zF4Q_hd38RbBPgWRsxnY-109" style="edgeStyle=orthogonalEdgeStyle;rounded=0;orthogonalLoop=1;jettySize=auto;html=1;endArrow=blockThin;endFill=1;startArrow=diamondThin;startFill=0;entryX=0;entryY=0.5;entryDx=0;entryDy=0;" edge="1" parent="1" target="zF4Q_hd38RbBPgWRsxnY-101">
          <mxGeometry relative="1" as="geometry">
            <mxPoint x="470" y="1680" as="targetPoint" />
            <mxPoint x="420" y="1510" as="sourcePoint" />
          </mxGeometry>
        </mxCell>
        <mxCell id="ZXuneneE7VjM2tNFzKEQ-1" style="edgeStyle=orthogonalEdgeStyle;rounded=0;orthogonalLoop=1;jettySize=auto;html=1;exitX=1;exitY=0.5;exitDx=0;exitDy=0;endArrow=blockThin;endFill=1;startArrow=diamondThin;startFill=0;" edge="1" parent="1">
          <mxGeometry relative="1" as="geometry">
            <mxPoint x="550" y="1510" as="targetPoint" />
            <mxPoint x="415" y="1510" as="sourcePoint" />
          </mxGeometry>
        </mxCell>
        <mxCell id="zF4Q_hd38RbBPgWRsxnY-110" style="edgeStyle=orthogonalEdgeStyle;rounded=0;orthogonalLoop=1;jettySize=auto;html=1;exitX=1;exitY=0.5;exitDx=0;exitDy=0;endArrow=blockThin;endFill=1;startArrow=diamondThin;startFill=0;" edge="1" parent="1" source="zF4Q_hd38RbBPgWRsxnY-101">
          <mxGeometry relative="1" as="geometry">
            <mxPoint x="790" y="1510" as="targetPoint" />
            <mxPoint x="657.5" y="1550" as="sourcePoint" />
          </mxGeometry>
        </mxCell>
        <mxCell id="zF4Q_hd38RbBPgWRsxnY-111" value="Found" style="text;html=1;align=center;verticalAlign=middle;whiteSpace=wrap;rounded=0;" vertex="1" parent="1">
          <mxGeometry x="675" y="1480" width="60" height="30" as="geometry" />
        </mxCell>
        <mxCell id="zF4Q_hd38RbBPgWRsxnY-112" value="Lookup" style="rounded=1;whiteSpace=wrap;html=1;" vertex="1" parent="1">
          <mxGeometry x="565" y="2120" width="120" height="60" as="geometry" />
        </mxCell>
        <mxCell id="zF4Q_hd38RbBPgWRsxnY-113" value="Lookup" style="rounded=1;whiteSpace=wrap;html=1;" vertex="1" parent="1">
          <mxGeometry x="822.36" y="2120" width="120" height="60" as="geometry" />
        </mxCell>
        <mxCell id="zF4Q_hd38RbBPgWRsxnY-114" value="Found" style="text;html=1;align=center;verticalAlign=middle;whiteSpace=wrap;rounded=0;" vertex="1" parent="1">
          <mxGeometry x="692.48" y="2120" width="60" height="30" as="geometry" />
        </mxCell>
        <mxCell id="zF4Q_hd38RbBPgWRsxnY-115" value="Found" style="text;html=1;align=center;verticalAlign=middle;whiteSpace=wrap;rounded=0;" vertex="1" parent="1">
          <mxGeometry x="950" y="2120" width="60" height="30" as="geometry" />
        </mxCell>
        <mxCell id="zF4Q_hd38RbBPgWRsxnY-116" value="" style="shape=partialRectangle;whiteSpace=wrap;html=1;bottom=1;right=1;left=1;top=0;fillColor=none;routingCenterX=-0.5;direction=west;" vertex="1" parent="1">
          <mxGeometry x="543.62" y="2010" width="162.76" height="30" as="geometry" />
        </mxCell>
        <mxCell id="zF4Q_hd38RbBPgWRsxnY-117" value="&lt;b&gt;Retrieve:&lt;/b&gt;&amp;nbsp;country_id&lt;br&gt;&lt;b&gt;DataBase:&lt;/b&gt; SuperStoreDW&lt;div&gt;&lt;b&gt;Query:&lt;/b&gt;&lt;/div&gt;&lt;div&gt;&lt;b&gt;Where:&lt;/b&gt;&amp;nbsp;Country&lt;/div&gt;&lt;div&gt;&lt;b&gt;Matches:&lt;/b&gt;&amp;nbsp;country_name&lt;/div&gt;" style="text;html=1;align=left;verticalAlign=middle;resizable=0;points=[];autosize=1;strokeColor=none;fillColor=none;rotation=0;" vertex="1" parent="1">
          <mxGeometry x="550.48" y="2010" width="170" height="90" as="geometry" />
        </mxCell>
        <mxCell id="zF4Q_hd38RbBPgWRsxnY-118" value="" style="shape=partialRectangle;whiteSpace=wrap;html=1;bottom=1;right=1;left=1;top=0;fillColor=none;routingCenterX=-0.5;direction=west;" vertex="1" parent="1">
          <mxGeometry x="803.85" y="2010" width="160.76" height="30" as="geometry" />
        </mxCell>
        <mxCell id="zF4Q_hd38RbBPgWRsxnY-119" value="&lt;b&gt;Retrieve:&lt;/b&gt;&amp;nbsp;state_id&lt;br&gt;&lt;b&gt;DataBase:&lt;/b&gt; SuperStoreDW&lt;div&gt;&lt;b&gt;Query:&lt;/b&gt;&lt;/div&gt;&lt;div&gt;&lt;b&gt;Where:&lt;/b&gt;&amp;nbsp;State&lt;/div&gt;&lt;div&gt;&lt;b&gt;Matches:&lt;/b&gt;&amp;nbsp;state_name&lt;/div&gt;" style="text;html=1;align=left;verticalAlign=middle;resizable=0;points=[];autosize=1;strokeColor=none;fillColor=none;rotation=0;" vertex="1" parent="1">
          <mxGeometry x="810.48" y="2010" width="170" height="90" as="geometry" />
        </mxCell>
        <mxCell id="gGdrBMgapLdlbPHmNJSQ-2" style="edgeStyle=orthogonalEdgeStyle;rounded=0;orthogonalLoop=1;jettySize=auto;html=1;exitX=0.5;exitY=1;exitDx=0;exitDy=0;entryX=0.5;entryY=0;entryDx=0;entryDy=0;" edge="1" parent="1" source="zF4Q_hd38RbBPgWRsxnY-120" target="FOHmmWR7ApQ6qYltdzRu-3">
          <mxGeometry relative="1" as="geometry" />
        </mxCell>
        <mxCell id="zF4Q_hd38RbBPgWRsxnY-120" value="Union" style="rounded=1;whiteSpace=wrap;html=1;" vertex="1" parent="1">
          <mxGeometry x="541.62" y="2270" width="120" height="60" as="geometry" />
        </mxCell>
        <mxCell id="zF4Q_hd38RbBPgWRsxnY-121" value="Not Found" style="text;html=1;align=center;verticalAlign=middle;whiteSpace=wrap;rounded=0;" vertex="1" parent="1">
          <mxGeometry x="562.48" y="2190" width="60" height="30" as="geometry" />
        </mxCell>
        <mxCell id="zF4Q_hd38RbBPgWRsxnY-122" value="Not Found" style="text;html=1;align=center;verticalAlign=middle;whiteSpace=wrap;rounded=0;" vertex="1" parent="1">
          <mxGeometry x="816.62" y="2195" width="60" height="30" as="geometry" />
        </mxCell>
        <mxCell id="_WkhKCvR2IUITg5wS5PV-1" value="" style="html=1;shape=mxgraph.flowchart.annotation_2;align=left;labelPosition=right;direction=north;" vertex="1" parent="1">
          <mxGeometry x="543.62" y="2070" width="162.76" height="50" as="geometry" />
        </mxCell>
        <mxCell id="_WkhKCvR2IUITg5wS5PV-2" value="" style="html=1;shape=mxgraph.flowchart.annotation_2;align=left;labelPosition=right;direction=north;" vertex="1" parent="1">
          <mxGeometry x="802.61" y="2070" width="162" height="50" as="geometry" />
        </mxCell>
        <mxCell id="gGdrBMgapLdlbPHmNJSQ-1" value="" style="edgeStyle=elbowEdgeStyle;fontSize=12;html=1;endArrow=blockThin;endFill=1;startArrow=diamondThin;startFill=0;endSize=6;startSize=10;rounded=0;exitX=1;exitY=0.5;exitDx=0;exitDy=0;entryX=0;entryY=0.5;entryDx=0;entryDy=0;" edge="1" parent="1" source="zF4Q_hd38RbBPgWRsxnY-112">
          <mxGeometry width="160" relative="1" as="geometry">
            <mxPoint x="682.84" y="2150" as="sourcePoint" />
            <mxPoint x="822.36" y="2150" as="targetPoint" />
          </mxGeometry>
        </mxCell>
        <mxCell id="zF4Q_hd38RbBPgWRsxnY-123" value="&lt;h1 style=&quot;margin-top: 0px;&quot;&gt;Calendar&lt;/h1&gt;" style="text;html=1;whiteSpace=wrap;overflow=hidden;rounded=0;" vertex="1" parent="1">
          <mxGeometry x="-190" y="3375" width="180" height="120" as="geometry" />
        </mxCell>
        <mxCell id="zF4Q_hd38RbBPgWRsxnY-124" style="edgeStyle=orthogonalEdgeStyle;rounded=0;orthogonalLoop=1;jettySize=auto;html=1;exitX=1;exitY=0.5;exitDx=0;exitDy=0;exitPerimeter=0;entryX=0;entryY=0.5;entryDx=0;entryDy=0;" edge="1" parent="1" source="zF4Q_hd38RbBPgWRsxnY-125">
          <mxGeometry relative="1" as="geometry">
            <mxPoint x="295" y="3360" as="targetPoint" />
          </mxGeometry>
        </mxCell>
        <mxCell id="zF4Q_hd38RbBPgWRsxnY-125" value="Input Data" style="points=[[0.25,0,0],[0.5,0,0],[0.75,0,0],[1,0.25,0],[1,0.5,0],[1,0.75,0],[0.75,1,0],[0.5,1,0],[0.25,1,0],[0,0.75,0],[0,0.5,0],[0,0.25,0]];shape=mxgraph.bpmn.task2;whiteSpace=wrap;rectStyle=rounded;size=10;html=1;container=1;expand=0;collapsible=0;taskMarker=abstract;fontFamily=Helvetica;fontSize=11;fontColor=default;labelBackgroundColor=default;" vertex="1" parent="1">
          <mxGeometry x="67.50000000000003" y="3320" width="120" height="80" as="geometry" />
        </mxCell>
        <mxCell id="zF4Q_hd38RbBPgWRsxnY-126" value="" style="html=1;shape=mxgraph.flowchart.annotation_2;align=left;labelPosition=right;fontFamily=Helvetica;fontSize=11;fontColor=default;labelBackgroundColor=default;direction=south;" vertex="1" parent="1">
          <mxGeometry x="49.84" y="3405" width="142.5" height="35" as="geometry" />
        </mxCell>
        <mxCell id="zF4Q_hd38RbBPgWRsxnY-127" value="" style="shape=partialRectangle;whiteSpace=wrap;html=1;bottom=1;right=1;left=1;top=0;fillColor=none;routingCenterX=-0.5;" vertex="1" parent="1">
          <mxGeometry x="48.59" y="3470" width="142.5" height="20" as="geometry" />
        </mxCell>
        <mxCell id="zF4Q_hd38RbBPgWRsxnY-128" value="&lt;b&gt;File:&lt;/b&gt; Super-Store.xls&lt;div&gt;&lt;b&gt;Type: &lt;/b&gt;Excel&lt;br&gt;&lt;b&gt;Columns:&lt;/b&gt;&amp;nbsp;Ship Date, Order Date&lt;br&gt;&lt;/div&gt;" style="text;html=1;align=left;verticalAlign=middle;whiteSpace=wrap;rounded=0;fontFamily=Helvetica;fontSize=11;fontColor=default;labelBackgroundColor=default;" vertex="1" parent="1">
          <mxGeometry x="62.500000000000014" y="3440" width="130" height="30" as="geometry" />
        </mxCell>
        <mxCell id="zF4Q_hd38RbBPgWRsxnY-133" value="Insert Data" style="rounded=1;whiteSpace=wrap;html=1;" vertex="1" parent="1">
          <mxGeometry x="1292.63" y="3770" width="120" height="60" as="geometry" />
        </mxCell>
        <mxCell id="zF4Q_hd38RbBPgWRsxnY-134" value="" style="html=1;shape=mxgraph.flowchart.annotation_2;align=left;labelPosition=right;fontFamily=Helvetica;fontSize=11;fontColor=default;labelBackgroundColor=default;direction=south;" vertex="1" parent="1">
          <mxGeometry x="1265.15" y="3830" width="180.73" height="40" as="geometry" />
        </mxCell>
        <mxCell id="zF4Q_hd38RbBPgWRsxnY-135" value="" style="shape=partialRectangle;whiteSpace=wrap;html=1;bottom=1;right=1;left=1;top=0;fillColor=none;routingCenterX=-0.5;" vertex="1" parent="1">
          <mxGeometry x="1265.15" y="3905" width="180.73" height="20" as="geometry" />
        </mxCell>
        <mxCell id="zF4Q_hd38RbBPgWRsxnY-136" value="&lt;b&gt;DataBase:&lt;/b&gt; SuperStoreDW&lt;br&gt;&lt;b&gt;Table:&lt;/b&gt;&amp;nbsp;Product&lt;div&gt;&lt;b&gt;Mappings:&lt;/b&gt; &lt;br&gt;Product ID -&amp;gt; product_id&lt;/div&gt;&lt;div&gt;Product Name -&amp;gt; product_name&lt;/div&gt;" style="text;html=1;align=left;verticalAlign=middle;whiteSpace=wrap;rounded=0;fontFamily=Helvetica;fontSize=11;fontColor=default;labelBackgroundColor=default;" vertex="1" parent="1">
          <mxGeometry x="1273.13" y="3870" width="200" height="30" as="geometry" />
        </mxCell>
        <mxCell id="zF4Q_hd38RbBPgWRsxnY-137" value="Insert Data" style="rounded=1;whiteSpace=wrap;html=1;" vertex="1" parent="1">
          <mxGeometry x="1724.75" y="3575" width="120" height="60" as="geometry" />
        </mxCell>
        <mxCell id="zF4Q_hd38RbBPgWRsxnY-139" value="" style="html=1;shape=mxgraph.flowchart.annotation_2;align=left;labelPosition=right;fontFamily=Helvetica;fontSize=11;fontColor=default;labelBackgroundColor=default;direction=south;" vertex="1" parent="1">
          <mxGeometry x="1703.63" y="3635" width="156.23" height="40" as="geometry" />
        </mxCell>
        <mxCell id="zF4Q_hd38RbBPgWRsxnY-140" value="" style="shape=partialRectangle;whiteSpace=wrap;html=1;bottom=1;right=1;left=1;top=0;fillColor=none;routingCenterX=-0.5;" vertex="1" parent="1">
          <mxGeometry x="1702.63" y="3690" width="156.23" height="20" as="geometry" />
        </mxCell>
        <mxCell id="zF4Q_hd38RbBPgWRsxnY-142" value="&lt;b&gt;File: &lt;/b&gt;Errors.txt&lt;br&gt;&lt;b&gt;Type:&lt;/b&gt; Text" style="text;html=1;align=left;verticalAlign=middle;whiteSpace=wrap;rounded=0;" vertex="1" parent="1">
          <mxGeometry x="1711.88" y="3670" width="160" height="30" as="geometry" />
        </mxCell>
        <mxCell id="zF4Q_hd38RbBPgWRsxnY-153" style="edgeStyle=orthogonalEdgeStyle;rounded=0;orthogonalLoop=1;jettySize=auto;html=1;exitX=1;exitY=0.5;exitDx=0;exitDy=0;" edge="1" parent="1" source="zF4Q_hd38RbBPgWRsxnY-145" target="zF4Q_hd38RbBPgWRsxnY-149">
          <mxGeometry relative="1" as="geometry" />
        </mxCell>
        <mxCell id="zF4Q_hd38RbBPgWRsxnY-145" value="Add column" style="rounded=1;whiteSpace=wrap;html=1;" vertex="1" parent="1">
          <mxGeometry x="921.52" y="3340" width="120" height="60" as="geometry" />
        </mxCell>
        <mxCell id="gGdrBMgapLdlbPHmNJSQ-4" value="" style="edgeStyle=elbowEdgeStyle;fontSize=12;html=1;endArrow=blockThin;endFill=1;startArrow=diamondThin;startFill=0;endSize=6;startSize=10;rounded=0;exitX=1;exitY=0.5;exitDx=0;exitDy=0;entryX=0.5;entryY=0;entryDx=0;entryDy=0;" edge="1" parent="1" source="zF4Q_hd38RbBPgWRsxnY-113" target="zF4Q_hd38RbBPgWRsxnY-66">
          <mxGeometry width="160" relative="1" as="geometry">
            <mxPoint x="973.12" y="2170" as="sourcePoint" />
            <mxPoint x="1110.48" y="2170" as="targetPoint" />
            <Array as="points">
              <mxPoint x="992" y="2150" />
            </Array>
          </mxGeometry>
        </mxCell>
        <mxCell id="zF4Q_hd38RbBPgWRsxnY-146" value="" style="html=1;shape=mxgraph.flowchart.annotation_2;align=left;labelPosition=right;fontFamily=Helvetica;fontSize=11;fontColor=default;labelBackgroundColor=default;direction=south;" vertex="1" parent="1">
          <mxGeometry x="900.76" y="3400" width="148.48" height="40" as="geometry" />
        </mxCell>
        <mxCell id="zF4Q_hd38RbBPgWRsxnY-147" value="" style="shape=partialRectangle;whiteSpace=wrap;html=1;bottom=1;right=1;left=1;top=0;fillColor=none;routingCenterX=-0.5;" vertex="1" parent="1">
          <mxGeometry x="900" y="3460" width="150" height="20" as="geometry" />
        </mxCell>
        <mxCell id="zF4Q_hd38RbBPgWRsxnY-148" value="&lt;b&gt;Column: &lt;/b&gt;full_date&lt;br&gt;&lt;b&gt;Expression:&lt;/b&gt; " style="text;html=1;align=left;verticalAlign=middle;whiteSpace=wrap;rounded=0;fontFamily=Helvetica;fontSize=11;fontColor=default;labelBackgroundColor=default;" vertex="1" parent="1">
          <mxGeometry x="915" y="3435" width="130" height="30" as="geometry" />
        </mxCell>
        <mxCell id="gGdrBMgapLdlbPHmNJSQ-5" style="edgeStyle=orthogonalEdgeStyle;rounded=0;orthogonalLoop=1;jettySize=auto;html=1;exitX=0.5;exitY=1;exitDx=0;exitDy=0;endArrow=blockThin;endFill=1;startArrow=diamondThin;startFill=0;entryX=0;entryY=0.5;entryDx=0;entryDy=0;" edge="1" parent="1" source="zF4Q_hd38RbBPgWRsxnY-62" target="zF4Q_hd38RbBPgWRsxnY-120">
          <mxGeometry relative="1" as="geometry">
            <mxPoint x="484.5" y="2400" as="targetPoint" />
            <mxPoint x="379.5" y="2270" as="sourcePoint" />
          </mxGeometry>
        </mxCell>
        <mxCell id="gGdrBMgapLdlbPHmNJSQ-6" style="edgeStyle=orthogonalEdgeStyle;rounded=0;orthogonalLoop=1;jettySize=auto;html=1;exitX=0.5;exitY=1;exitDx=0;exitDy=0;endArrow=blockThin;endFill=1;startArrow=diamondThin;startFill=0;entryX=0.5;entryY=0;entryDx=0;entryDy=0;" edge="1" parent="1" source="zF4Q_hd38RbBPgWRsxnY-112" target="zF4Q_hd38RbBPgWRsxnY-120">
          <mxGeometry relative="1" as="geometry">
            <mxPoint x="552" y="2310" as="targetPoint" />
            <mxPoint x="376" y="2190" as="sourcePoint" />
            <Array as="points">
              <mxPoint x="625" y="2225" />
              <mxPoint x="602" y="2225" />
            </Array>
          </mxGeometry>
        </mxCell>
        <mxCell id="gGdrBMgapLdlbPHmNJSQ-7" style="edgeStyle=orthogonalEdgeStyle;rounded=0;orthogonalLoop=1;jettySize=auto;html=1;exitX=0.5;exitY=1;exitDx=0;exitDy=0;endArrow=blockThin;endFill=1;startArrow=diamondThin;startFill=0;entryX=1;entryY=0.5;entryDx=0;entryDy=0;" edge="1" parent="1" source="zF4Q_hd38RbBPgWRsxnY-113" target="zF4Q_hd38RbBPgWRsxnY-120">
          <mxGeometry relative="1" as="geometry">
            <mxPoint x="562" y="2320" as="targetPoint" />
            <mxPoint x="386" y="2200" as="sourcePoint" />
          </mxGeometry>
        </mxCell>
        <mxCell id="zF4Q_hd38RbBPgWRsxnY-149" value="Add column" style="rounded=1;whiteSpace=wrap;html=1;" vertex="1" parent="1">
          <mxGeometry x="1123.02" y="3340" width="120" height="60" as="geometry" />
        </mxCell>
        <mxCell id="bl8tMDKpK7UkDRDbebup-12" style="edgeStyle=orthogonalEdgeStyle;rounded=0;orthogonalLoop=1;jettySize=auto;html=1;exitX=0.5;exitY=1;exitDx=0;exitDy=0;entryX=0.5;entryY=0;entryDx=0;entryDy=0;endArrow=blockThin;endFill=1;startArrow=diamondThin;startFill=0;" edge="1" parent="1" source="zF4Q_hd38RbBPgWRsxnY-156" target="zF4Q_hd38RbBPgWRsxnY-133">
          <mxGeometry relative="1" as="geometry" />
        </mxCell>
        <mxCell id="zF4Q_hd38RbBPgWRsxnY-156" value="Lookup" style="rounded=1;whiteSpace=wrap;html=1;" vertex="1" parent="1">
          <mxGeometry x="1292.3200000000002" y="3590" width="120" height="60" as="geometry" />
        </mxCell>
        <mxCell id="zF4Q_hd38RbBPgWRsxnY-150" value="" style="html=1;shape=mxgraph.flowchart.annotation_2;align=left;labelPosition=right;fontFamily=Helvetica;fontSize=11;fontColor=default;labelBackgroundColor=default;direction=south;" vertex="1" parent="1">
          <mxGeometry x="1102.26" y="3400" width="148.48" height="40" as="geometry" />
        </mxCell>
        <mxCell id="zF4Q_hd38RbBPgWRsxnY-151" value="" style="shape=partialRectangle;whiteSpace=wrap;html=1;bottom=1;right=1;left=1;top=0;fillColor=none;routingCenterX=-0.5;" vertex="1" parent="1">
          <mxGeometry x="1101.5" y="3460" width="150" height="20" as="geometry" />
        </mxCell>
        <mxCell id="zF4Q_hd38RbBPgWRsxnY-158" value="" style="edgeStyle=elbowEdgeStyle;fontSize=12;html=1;endArrow=blockThin;endFill=1;startArrow=diamondThin;startFill=0;endSize=6;startSize=10;rounded=0;exitX=1;exitY=0.5;exitDx=0;exitDy=0;entryX=0;entryY=0.5;entryDx=0;entryDy=0;" edge="1" parent="1">
          <mxGeometry width="160" relative="1" as="geometry">
            <mxPoint x="1412.3200000000002" y="3620" as="sourcePoint" />
            <mxPoint x="1522.3200000000002" y="3620" as="targetPoint" />
            <Array as="points">
              <mxPoint x="1456.8400000000001" y="4020" />
            </Array>
          </mxGeometry>
        </mxCell>
        <mxCell id="zF4Q_hd38RbBPgWRsxnY-152" value="&lt;b&gt;Column: &lt;/b&gt;day_number&lt;br&gt;&lt;b&gt;Expression:&lt;/b&gt; " style="text;html=1;align=left;verticalAlign=middle;whiteSpace=wrap;rounded=0;fontFamily=Helvetica;fontSize=11;fontColor=default;labelBackgroundColor=default;" vertex="1" parent="1">
          <mxGeometry x="1116.5" y="3435" width="130" height="30" as="geometry" />
        </mxCell>
        <mxCell id="zF4Q_hd38RbBPgWRsxnY-159" value="" style="shape=partialRectangle;whiteSpace=wrap;html=1;bottom=1;right=1;left=1;top=0;fillColor=none;routingCenterX=-0.5;direction=south;" vertex="1" parent="1">
          <mxGeometry x="1070.4" y="3575" width="30" height="85" as="geometry" />
        </mxCell>
        <mxCell id="zF4Q_hd38RbBPgWRsxnY-160" value="&lt;b&gt;Retrieve:&lt;/b&gt;&amp;nbsp;calendar_month_id&lt;br&gt;&lt;b&gt;DataBase:&lt;/b&gt; SuperStoreDW&lt;div&gt;&lt;b&gt;Query:&lt;/b&gt;&lt;/div&gt;&lt;div&gt;&lt;b&gt;Where: Month&lt;/b&gt;&lt;/div&gt;&lt;div&gt;&lt;b&gt;Matches:&lt;/b&gt;&amp;nbsp;calendar_month_number&lt;/div&gt;" style="text;html=1;align=left;verticalAlign=middle;resizable=0;points=[];autosize=1;strokeColor=none;fillColor=none;rotation=0;" vertex="1" parent="1">
          <mxGeometry x="1071.5" y="3570" width="210" height="90" as="geometry" />
        </mxCell>
        <mxCell id="zF4Q_hd38RbBPgWRsxnY-161" value="" style="html=1;shape=mxgraph.flowchart.annotation_2;align=left;labelPosition=right;direction=west;" vertex="1" parent="1">
          <mxGeometry x="1239.99" y="3575" width="50" height="85" as="geometry" />
        </mxCell>
        <mxCell id="zF4Q_hd38RbBPgWRsxnY-162" value="&lt;h1 style=&quot;margin-top: 0px;&quot;&gt;ShippingBehaviourS&lt;/h1&gt;" style="text;html=1;whiteSpace=wrap;overflow=hidden;rounded=0;" vertex="1" parent="1">
          <mxGeometry x="-238.61" y="4125" width="275" height="120" as="geometry" />
        </mxCell>
        <mxCell id="krb8KjFSCPngvSBI7jEi-2" style="edgeStyle=orthogonalEdgeStyle;rounded=0;orthogonalLoop=1;jettySize=auto;html=1;exitX=1;exitY=0.5;exitDx=0;exitDy=0;entryX=0;entryY=0.5;entryDx=0;entryDy=0;endArrow=blockThin;endFill=1;startArrow=diamondThin;startFill=0;" edge="1" parent="1" source="zF4Q_hd38RbBPgWRsxnY-163" target="zF4Q_hd38RbBPgWRsxnY-81">
          <mxGeometry relative="1" as="geometry" />
        </mxCell>
        <mxCell id="zF4Q_hd38RbBPgWRsxnY-163" value="Lookup" style="rounded=1;whiteSpace=wrap;html=1;" vertex="1" parent="1">
          <mxGeometry x="523.09" y="2780" width="120" height="60" as="geometry" />
        </mxCell>
        <mxCell id="krb8KjFSCPngvSBI7jEi-3" value="Usamos o formato:&lt;div&gt;- Retrieve Where Matches quando precisamos da chave&lt;br&gt;- Retrieve From Where&lt;br&gt;quando ja temos a chave&lt;/div&gt;" style="text;html=1;align=center;verticalAlign=middle;whiteSpace=wrap;rounded=0;fontFamily=Helvetica;fontSize=11;fontColor=default;labelBackgroundColor=default;" vertex="1" parent="1">
          <mxGeometry x="1445.88" y="520" width="160" height="120" as="geometry" />
        </mxCell>
        <mxCell id="krb8KjFSCPngvSBI7jEi-5" style="edgeStyle=orthogonalEdgeStyle;rounded=0;orthogonalLoop=1;jettySize=auto;html=1;exitX=1;exitY=0.5;exitDx=0;exitDy=0;exitPerimeter=0;entryX=0;entryY=0.5;entryDx=0;entryDy=0;entryPerimeter=0;" edge="1" parent="1" source="gSadtIf43q3BKI0Gub7u-1" target="gSadtIf43q3BKI0Gub7u-2">
          <mxGeometry relative="1" as="geometry" />
        </mxCell>
        <mxCell id="krb8KjFSCPngvSBI7jEi-6" style="edgeStyle=orthogonalEdgeStyle;rounded=0;orthogonalLoop=1;jettySize=auto;html=1;exitX=1;exitY=0.5;exitDx=0;exitDy=0;exitPerimeter=0;entryX=0;entryY=0.5;entryDx=0;entryDy=0;entryPerimeter=0;" edge="1" parent="1" source="gSadtIf43q3BKI0Gub7u-41" target="-H4ae2L4HeG6YgwZ0joz-13">
          <mxGeometry relative="1" as="geometry" />
        </mxCell>
        <mxCell id="krb8KjFSCPngvSBI7jEi-7" style="edgeStyle=orthogonalEdgeStyle;rounded=0;orthogonalLoop=1;jettySize=auto;html=1;exitX=1;exitY=0.5;exitDx=0;exitDy=0;exitPerimeter=0;entryX=0;entryY=0.5;entryDx=0;entryDy=0;entryPerimeter=0;" edge="1" parent="1" source="-H4ae2L4HeG6YgwZ0joz-13" target="-H4ae2L4HeG6YgwZ0joz-17">
          <mxGeometry relative="1" as="geometry" />
        </mxCell>
        <mxCell id="krb8KjFSCPngvSBI7jEi-8" style="edgeStyle=orthogonalEdgeStyle;rounded=0;orthogonalLoop=1;jettySize=auto;html=1;exitX=1;exitY=0.5;exitDx=0;exitDy=0;exitPerimeter=0;entryX=0;entryY=0.5;entryDx=0;entryDy=0;entryPerimeter=0;" edge="1" parent="1" source="-H4ae2L4HeG6YgwZ0joz-17" target="-H4ae2L4HeG6YgwZ0joz-26">
          <mxGeometry relative="1" as="geometry" />
        </mxCell>
        <mxCell id="zF4Q_hd38RbBPgWRsxnY-165" value="" style="html=1;shape=mxgraph.flowchart.annotation_2;align=left;labelPosition=right;direction=north;" vertex="1" parent="1">
          <mxGeometry x="496.09" y="2730" width="187" height="50" as="geometry" />
        </mxCell>
        <mxCell id="zF4Q_hd38RbBPgWRsxnY-166" value="" style="shape=partialRectangle;whiteSpace=wrap;html=1;bottom=1;right=1;left=1;top=0;fillColor=none;routingCenterX=-0.5;direction=west;" vertex="1" parent="1">
          <mxGeometry x="496.09" y="2670" width="187" height="30" as="geometry" />
        </mxCell>
        <mxCell id="zF4Q_hd38RbBPgWRsxnY-167" value="&lt;b&gt;Retrieve:&lt;/b&gt;&amp;nbsp;category_id&lt;br&gt;&lt;b&gt;DataBase:&lt;/b&gt; SuperStoreDW&lt;div&gt;&lt;b&gt;Query:&lt;/b&gt;&lt;/div&gt;&lt;div&gt;&lt;b&gt;Where: &lt;/b&gt;Sub-Category&lt;/div&gt;&lt;div&gt;&lt;b&gt;Matches:&lt;/b&gt;&amp;nbsp;sub_category_name&lt;/div&gt;" style="text;html=1;align=left;verticalAlign=middle;resizable=0;points=[];autosize=1;strokeColor=none;fillColor=none;rotation=0;" vertex="1" parent="1">
          <mxGeometry x="508.09" y="2670" width="190" height="90" as="geometry" />
        </mxCell>
        <mxCell id="zF4Q_hd38RbBPgWRsxnY-168" value="Found" style="text;html=1;align=center;verticalAlign=middle;whiteSpace=wrap;rounded=0;" vertex="1" parent="1">
          <mxGeometry x="431.82" y="2780" width="60" height="30" as="geometry" />
        </mxCell>
        <mxCell id="bl8tMDKpK7UkDRDbebup-1" style="edgeStyle=orthogonalEdgeStyle;rounded=0;orthogonalLoop=1;jettySize=auto;html=1;exitX=0.5;exitY=1;exitDx=0;exitDy=0;entryX=0.5;entryY=0;entryDx=0;entryDy=0;" edge="1" parent="1" source="bl8tMDKpK7UkDRDbebup-2">
          <mxGeometry relative="1" as="geometry">
            <mxPoint x="489.06999999999994" y="2990" as="targetPoint" />
          </mxGeometry>
        </mxCell>
        <mxCell id="bl8tMDKpK7UkDRDbebup-2" value="Union" style="rounded=1;whiteSpace=wrap;html=1;" vertex="1" parent="1">
          <mxGeometry x="422.68999999999994" y="2900" width="120" height="60" as="geometry" />
        </mxCell>
        <mxCell id="bl8tMDKpK7UkDRDbebup-3" style="edgeStyle=orthogonalEdgeStyle;rounded=0;orthogonalLoop=1;jettySize=auto;html=1;exitX=0.5;exitY=1;exitDx=0;exitDy=0;endArrow=blockThin;endFill=1;startArrow=diamondThin;startFill=0;entryX=0;entryY=0.5;entryDx=0;entryDy=0;" edge="1" parent="1" source="zF4Q_hd38RbBPgWRsxnY-77" target="bl8tMDKpK7UkDRDbebup-2">
          <mxGeometry relative="1" as="geometry">
            <mxPoint x="365.56999999999994" y="3080" as="targetPoint" />
            <mxPoint x="247.07000000000002" y="2860" as="sourcePoint" />
          </mxGeometry>
        </mxCell>
        <mxCell id="bl8tMDKpK7UkDRDbebup-6" value="Not Found" style="text;html=1;align=center;verticalAlign=middle;whiteSpace=wrap;rounded=0;" vertex="1" parent="1">
          <mxGeometry x="589.32" y="2852.5" width="60" height="30" as="geometry" />
        </mxCell>
        <mxCell id="bl8tMDKpK7UkDRDbebup-9" style="edgeStyle=orthogonalEdgeStyle;rounded=0;orthogonalLoop=1;jettySize=auto;html=1;exitX=0.5;exitY=1;exitDx=0;exitDy=0;entryX=0.5;entryY=0;entryDx=0;entryDy=0;endArrow=blockThin;endFill=1;startArrow=diamondThin;startFill=0;" edge="1" parent="1" source="zF4Q_hd38RbBPgWRsxnY-170" target="zF4Q_hd38RbBPgWRsxnY-156">
          <mxGeometry relative="1" as="geometry" />
        </mxCell>
        <mxCell id="bl8tMDKpK7UkDRDbebup-10" style="edgeStyle=orthogonalEdgeStyle;rounded=0;orthogonalLoop=1;jettySize=auto;html=1;exitX=1;exitY=0.5;exitDx=0;exitDy=0;entryX=0.5;entryY=0;entryDx=0;entryDy=0;endArrow=blockThin;endFill=1;startArrow=diamondThin;startFill=0;" edge="1" parent="1" source="zF4Q_hd38RbBPgWRsxnY-170" target="zF4Q_hd38RbBPgWRsxnY-180">
          <mxGeometry relative="1" as="geometry" />
        </mxCell>
        <mxCell id="zF4Q_hd38RbBPgWRsxnY-170" value="Lookup" style="rounded=1;whiteSpace=wrap;html=1;" vertex="1" parent="1">
          <mxGeometry x="1398.1100000000001" y="3415" width="120" height="60" as="geometry" />
        </mxCell>
        <mxCell id="zF4Q_hd38RbBPgWRsxnY-171" value="Not Found" style="text;html=1;align=center;verticalAlign=middle;whiteSpace=wrap;rounded=0;" vertex="1" parent="1">
          <mxGeometry x="1532.63" y="3415" width="60" height="30" as="geometry" />
        </mxCell>
        <mxCell id="zF4Q_hd38RbBPgWRsxnY-172" value="" style="edgeStyle=elbowEdgeStyle;fontSize=12;html=1;endArrow=blockThin;endFill=1;startArrow=diamondThin;startFill=0;endSize=6;startSize=10;rounded=0;exitX=1;exitY=0.5;exitDx=0;exitDy=0;entryX=0;entryY=0.5;entryDx=0;entryDy=0;" edge="1" parent="1" target="zF4Q_hd38RbBPgWRsxnY-170">
          <mxGeometry width="160" relative="1" as="geometry">
            <mxPoint x="1243.8600000000001" y="3369.5" as="sourcePoint" />
            <mxPoint x="1353.8600000000001" y="3369.5" as="targetPoint" />
            <Array as="points">
              <mxPoint x="1288.38" y="3769.5" />
            </Array>
          </mxGeometry>
        </mxCell>
        <mxCell id="zF4Q_hd38RbBPgWRsxnY-174" value="&lt;b&gt;Retrieve:&lt;/b&gt;&amp;nbsp;year_id&lt;br&gt;&lt;b&gt;DataBase:&lt;/b&gt; SuperStoreDW&lt;div&gt;&lt;b&gt;Query:&lt;/b&gt;&lt;/div&gt;&lt;div&gt;&lt;b&gt;Where: &lt;/b&gt;Year&lt;/div&gt;&lt;div&gt;&lt;b&gt;Matches:&lt;/b&gt;&amp;nbsp;year_number&lt;/div&gt;" style="text;html=1;align=left;verticalAlign=middle;resizable=0;points=[];autosize=1;strokeColor=none;fillColor=none;rotation=0;" vertex="1" parent="1">
          <mxGeometry x="1384.9900000000002" y="3300" width="170" height="90" as="geometry" />
        </mxCell>
        <mxCell id="bl8tMDKpK7UkDRDbebup-5" style="edgeStyle=orthogonalEdgeStyle;rounded=0;orthogonalLoop=1;jettySize=auto;html=1;exitX=0.5;exitY=1;exitDx=0;exitDy=0;endArrow=blockThin;endFill=1;startArrow=diamondThin;startFill=0;entryX=1;entryY=0.5;entryDx=0;entryDy=0;" edge="1" parent="1" source="zF4Q_hd38RbBPgWRsxnY-163" target="bl8tMDKpK7UkDRDbebup-2">
          <mxGeometry relative="1" as="geometry">
            <mxPoint x="443.06999999999994" y="3000" as="targetPoint" />
            <mxPoint x="763.07" y="2860" as="sourcePoint" />
          </mxGeometry>
        </mxCell>
        <mxCell id="zF4Q_hd38RbBPgWRsxnY-176" value="Found" style="text;html=1;align=center;verticalAlign=middle;resizable=0;points=[];autosize=1;strokeColor=none;fillColor=none;" vertex="1" parent="1">
          <mxGeometry x="1464.9900000000002" y="3480" width="60" height="30" as="geometry" />
        </mxCell>
        <mxCell id="zF4Q_hd38RbBPgWRsxnY-177" value="Found" style="text;html=1;align=center;verticalAlign=middle;resizable=0;points=[];autosize=1;strokeColor=none;fillColor=none;" vertex="1" parent="1">
          <mxGeometry x="1349.25" y="3660" width="60" height="30" as="geometry" />
        </mxCell>
        <mxCell id="bl8tMDKpK7UkDRDbebup-11" style="edgeStyle=orthogonalEdgeStyle;rounded=0;orthogonalLoop=1;jettySize=auto;html=1;exitX=1;exitY=0.5;exitDx=0;exitDy=0;entryX=0;entryY=0.5;entryDx=0;entryDy=0;" edge="1" parent="1" source="zF4Q_hd38RbBPgWRsxnY-180" target="zF4Q_hd38RbBPgWRsxnY-137">
          <mxGeometry relative="1" as="geometry" />
        </mxCell>
        <mxCell id="zF4Q_hd38RbBPgWRsxnY-180" value="Union" style="rounded=1;whiteSpace=wrap;html=1;" vertex="1" parent="1">
          <mxGeometry x="1518.1100000000001" y="3575" width="120" height="60" as="geometry" />
        </mxCell>
        <mxCell id="zF4Q_hd38RbBPgWRsxnY-157" value="Not Found" style="text;html=1;align=center;verticalAlign=middle;whiteSpace=wrap;rounded=0;" vertex="1" parent="1">
          <mxGeometry x="1421.5900000000001" y="3590" width="60" height="30" as="geometry" />
        </mxCell>
        <mxCell id="GUjmHXMHcnLCkvcHkijA-1" value="" style="html=1;shape=mxgraph.flowchart.annotation_2;align=left;labelPosition=right;fontFamily=Helvetica;fontSize=11;fontColor=default;labelBackgroundColor=default;direction=north;" vertex="1" parent="1">
          <mxGeometry x="1382.63" y="3360" width="160" height="55" as="geometry" />
        </mxCell>
        <mxCell id="GUjmHXMHcnLCkvcHkijA-2" value="" style="shape=partialRectangle;whiteSpace=wrap;html=1;bottom=1;right=1;left=1;top=0;fillColor=none;routingCenterX=-0.5;direction=west;" vertex="1" parent="1">
          <mxGeometry x="1383.1100000000001" y="3300" width="159.52" height="20" as="geometry" />
        </mxCell>
        <mxCell id="GUjmHXMHcnLCkvcHkijA-3" value="Add Column" style="points=[[0.25,0,0],[0.5,0,0],[0.75,0,0],[1,0.25,0],[1,0.5,0],[1,0.75,0],[0.75,1,0],[0.5,1,0],[0.25,1,0],[0,0.75,0],[0,0.5,0],[0,0.25,0]];shape=mxgraph.bpmn.task2;whiteSpace=wrap;rectStyle=rounded;size=10;html=1;container=1;expand=0;collapsible=0;taskMarker=abstract;fontFamily=Helvetica;fontSize=11;fontColor=default;labelBackgroundColor=default;" vertex="1" parent="1">
          <mxGeometry x="298.75" y="3330" width="120" height="80" as="geometry" />
        </mxCell>
        <mxCell id="GUjmHXMHcnLCkvcHkijA-4" value="" style="html=1;shape=mxgraph.flowchart.annotation_2;align=left;labelPosition=right;fontFamily=Helvetica;fontSize=11;fontColor=default;labelBackgroundColor=default;direction=south;" vertex="1" parent="1">
          <mxGeometry x="288.75" y="3410" width="150" height="40" as="geometry" />
        </mxCell>
        <mxCell id="GUjmHXMHcnLCkvcHkijA-5" value="" style="shape=partialRectangle;whiteSpace=wrap;html=1;bottom=1;right=1;left=1;top=0;fillColor=none;routingCenterX=-0.5;" vertex="1" parent="1">
          <mxGeometry x="288.75" y="3460" width="150" height="20" as="geometry" />
        </mxCell>
        <mxCell id="GUjmHXMHcnLCkvcHkijA-6" value="&lt;b&gt;Column: &lt;/b&gt;calendar_month_number&lt;br&gt;&lt;b&gt;Expression:&lt;/b&gt;&amp;nbsp;" style="text;html=1;align=left;verticalAlign=middle;whiteSpace=wrap;rounded=0;fontFamily=Helvetica;fontSize=11;fontColor=default;labelBackgroundColor=default;" vertex="1" parent="1">
          <mxGeometry x="298.75" y="3440" width="130" height="30" as="geometry" />
        </mxCell>
        <mxCell id="GUjmHXMHcnLCkvcHkijA-7" value="" style="html=1;shape=mxgraph.flowchart.annotation_2;align=left;labelPosition=right;fontFamily=Helvetica;fontSize=11;fontColor=default;labelBackgroundColor=default;direction=south;" vertex="1" parent="1">
          <mxGeometry x="496.51" y="3410" width="148.48" height="40" as="geometry" />
        </mxCell>
        <mxCell id="GUjmHXMHcnLCkvcHkijA-8" value="" style="shape=partialRectangle;whiteSpace=wrap;html=1;bottom=1;right=1;left=1;top=0;fillColor=none;routingCenterX=-0.5;" vertex="1" parent="1">
          <mxGeometry x="495.75" y="3470" width="150" height="20" as="geometry" />
        </mxCell>
        <mxCell id="GUjmHXMHcnLCkvcHkijA-9" value="&lt;b&gt;Column: &lt;/b&gt;calendar_month_name&lt;br&gt;&lt;b&gt;Expression:&lt;/b&gt; " style="text;html=1;align=left;verticalAlign=middle;whiteSpace=wrap;rounded=0;fontFamily=Helvetica;fontSize=11;fontColor=default;labelBackgroundColor=default;" vertex="1" parent="1">
          <mxGeometry x="510.75" y="3445" width="130" height="30" as="geometry" />
        </mxCell>
        <mxCell id="GUjmHXMHcnLCkvcHkijA-10" value="Add Column" style="points=[[0.25,0,0],[0.5,0,0],[0.75,0,0],[1,0.25,0],[1,0.5,0],[1,0.75,0],[0.75,1,0],[0.5,1,0],[0.25,1,0],[0,0.75,0],[0,0.5,0],[0,0.25,0]];shape=mxgraph.bpmn.task2;whiteSpace=wrap;rectStyle=rounded;size=10;html=1;container=1;expand=0;collapsible=0;taskMarker=abstract;fontFamily=Helvetica;fontSize=11;fontColor=default;labelBackgroundColor=default;" vertex="1" parent="1">
          <mxGeometry x="510.75" y="3330" width="120" height="80" as="geometry" />
        </mxCell>
        <mxCell id="GUjmHXMHcnLCkvcHkijA-17" style="edgeStyle=orthogonalEdgeStyle;rounded=0;orthogonalLoop=1;jettySize=auto;html=1;exitX=1;exitY=0.5;exitDx=0;exitDy=0;exitPerimeter=0;entryX=0;entryY=0.5;entryDx=0;entryDy=0;" edge="1" parent="1" source="GUjmHXMHcnLCkvcHkijA-11" target="zF4Q_hd38RbBPgWRsxnY-145">
          <mxGeometry relative="1" as="geometry" />
        </mxCell>
        <mxCell id="GUjmHXMHcnLCkvcHkijA-11" value="Add Column" style="points=[[0.25,0,0],[0.5,0,0],[0.75,0,0],[1,0.25,0],[1,0.5,0],[1,0.75,0],[0.75,1,0],[0.5,1,0],[0.25,1,0],[0,0.75,0],[0,0.5,0],[0,0.25,0]];shape=mxgraph.bpmn.task2;whiteSpace=wrap;rectStyle=rounded;size=10;html=1;container=1;expand=0;collapsible=0;taskMarker=abstract;fontFamily=Helvetica;fontSize=11;fontColor=default;labelBackgroundColor=default;" vertex="1" parent="1">
          <mxGeometry x="706.12" y="3330" width="120" height="80" as="geometry" />
        </mxCell>
        <mxCell id="GUjmHXMHcnLCkvcHkijA-12" value="" style="html=1;shape=mxgraph.flowchart.annotation_2;align=left;labelPosition=right;fontFamily=Helvetica;fontSize=11;fontColor=default;labelBackgroundColor=default;direction=south;" vertex="1" parent="1">
          <mxGeometry x="696.12" y="3410" width="150" height="40" as="geometry" />
        </mxCell>
        <mxCell id="GUjmHXMHcnLCkvcHkijA-13" value="" style="shape=partialRectangle;whiteSpace=wrap;html=1;bottom=1;right=1;left=1;top=0;fillColor=none;routingCenterX=-0.5;" vertex="1" parent="1">
          <mxGeometry x="696.12" y="3460" width="150" height="20" as="geometry" />
        </mxCell>
        <mxCell id="GUjmHXMHcnLCkvcHkijA-14" value="&lt;b&gt;Column: &lt;/b&gt;year_number&lt;br&gt;&lt;b&gt;Expression:&lt;/b&gt; " style="text;html=1;align=left;verticalAlign=middle;whiteSpace=wrap;rounded=0;fontFamily=Helvetica;fontSize=11;fontColor=default;labelBackgroundColor=default;" vertex="1" parent="1">
          <mxGeometry x="706.12" y="3440" width="130" height="30" as="geometry" />
        </mxCell>
        <mxCell id="GUjmHXMHcnLCkvcHkijA-15" style="edgeStyle=orthogonalEdgeStyle;rounded=0;orthogonalLoop=1;jettySize=auto;html=1;exitX=1;exitY=0.5;exitDx=0;exitDy=0;exitPerimeter=0;entryX=0;entryY=0.5;entryDx=0;entryDy=0;entryPerimeter=0;" edge="1" parent="1" source="GUjmHXMHcnLCkvcHkijA-3" target="GUjmHXMHcnLCkvcHkijA-10">
          <mxGeometry relative="1" as="geometry" />
        </mxCell>
        <mxCell id="GUjmHXMHcnLCkvcHkijA-16" style="edgeStyle=orthogonalEdgeStyle;rounded=0;orthogonalLoop=1;jettySize=auto;html=1;exitX=1;exitY=0.5;exitDx=0;exitDy=0;exitPerimeter=0;entryX=0;entryY=0.5;entryDx=0;entryDy=0;entryPerimeter=0;" edge="1" parent="1" source="GUjmHXMHcnLCkvcHkijA-10" target="GUjmHXMHcnLCkvcHkijA-11">
          <mxGeometry relative="1" as="geometry" />
        </mxCell>
        <mxCell id="GUjmHXMHcnLCkvcHkijA-19" style="edgeStyle=orthogonalEdgeStyle;rounded=0;orthogonalLoop=1;jettySize=auto;html=1;exitX=1;exitY=0.5;exitDx=0;exitDy=0;exitPerimeter=0;entryX=0;entryY=0.5;entryDx=0;entryDy=0;" edge="1" parent="1" source="zF4Q_hd38RbBPgWRsxnY-183" target="zF4Q_hd38RbBPgWRsxnY-187">
          <mxGeometry relative="1" as="geometry" />
        </mxCell>
        <mxCell id="zF4Q_hd38RbBPgWRsxnY-183" value="Input Data" style="points=[[0.25,0,0],[0.5,0,0],[0.75,0,0],[1,0.25,0],[1,0.5,0],[1,0.75,0],[0.75,1,0],[0.5,1,0],[0.25,1,0],[0,0.75,0],[0,0.5,0],[0,0.25,0]];shape=mxgraph.bpmn.task2;whiteSpace=wrap;rectStyle=rounded;size=10;html=1;container=1;expand=0;collapsible=0;taskMarker=abstract;fontFamily=Helvetica;fontSize=11;fontColor=default;labelBackgroundColor=default;" vertex="1" parent="1">
          <mxGeometry x="129.05" y="4140" width="120" height="80" as="geometry" />
        </mxCell>
        <mxCell id="zF4Q_hd38RbBPgWRsxnY-184" value="" style="html=1;shape=mxgraph.flowchart.annotation_2;align=left;labelPosition=right;fontFamily=Helvetica;fontSize=11;fontColor=default;labelBackgroundColor=default;direction=south;" vertex="1" parent="1">
          <mxGeometry x="113.89" y="4220" width="142.5" height="35" as="geometry" />
        </mxCell>
        <mxCell id="zF4Q_hd38RbBPgWRsxnY-185" value="" style="shape=partialRectangle;whiteSpace=wrap;html=1;bottom=1;right=1;left=1;top=0;fillColor=none;routingCenterX=-0.5;" vertex="1" parent="1">
          <mxGeometry x="113.89" y="4285" width="142.5" height="20" as="geometry" />
        </mxCell>
        <mxCell id="zF4Q_hd38RbBPgWRsxnY-186" value="&lt;b&gt;File:&lt;/b&gt; Super-Store.xls&lt;div&gt;&lt;b&gt;Type: &lt;/b&gt;Excel&lt;br&gt;&lt;b&gt;SQL Query:&lt;/b&gt;&lt;/div&gt;" style="text;html=1;align=left;verticalAlign=middle;whiteSpace=wrap;rounded=0;fontFamily=Helvetica;fontSize=11;fontColor=default;labelBackgroundColor=default;" vertex="1" parent="1">
          <mxGeometry x="120.14000000000001" y="4255" width="130" height="30" as="geometry" />
        </mxCell>
        <mxCell id="zF4Q_hd38RbBPgWRsxnY-187" value="Lookup" style="rounded=1;whiteSpace=wrap;html=1;" vertex="1" parent="1">
          <mxGeometry x="383.90999999999997" y="4150" width="120" height="60" as="geometry" />
        </mxCell>
        <mxCell id="zF4Q_hd38RbBPgWRsxnY-188" value="" style="html=1;shape=mxgraph.flowchart.annotation_2;align=left;labelPosition=right;direction=north;" vertex="1" parent="1">
          <mxGeometry x="342.11" y="4100" width="203.61" height="50" as="geometry" />
        </mxCell>
        <mxCell id="zF4Q_hd38RbBPgWRsxnY-189" value="" style="shape=partialRectangle;whiteSpace=wrap;html=1;bottom=1;right=1;left=1;top=0;fillColor=none;routingCenterX=-0.5;direction=west;" vertex="1" parent="1">
          <mxGeometry x="342.11" y="4050" width="207.89" height="30" as="geometry" />
        </mxCell>
        <mxCell id="zF4Q_hd38RbBPgWRsxnY-190" value="&lt;b&gt;Retrieve:&lt;/b&gt;&amp;nbsp;category_id&lt;div&gt;&lt;b style=&quot;background-color: transparent; color: light-dark(rgb(0, 0, 0), rgb(255, 255, 255));&quot;&gt;From:&lt;/b&gt;&lt;span style=&quot;background-color: transparent; color: light-dark(rgb(0, 0, 0), rgb(255, 255, 255));&quot;&gt; Category.category_id&lt;/span&gt;&lt;div&gt;&lt;b&gt;Where:&lt;/b&gt;&amp;nbsp;Category&lt;/div&gt;&lt;div&gt;&lt;b&gt;Matches:&lt;/b&gt;&amp;nbsp;Category.category_name&lt;/div&gt;&lt;/div&gt;" style="text;html=1;align=left;verticalAlign=middle;resizable=0;points=[];autosize=1;strokeColor=none;fillColor=none;rotation=0;" vertex="1" parent="1">
          <mxGeometry x="348.49999999999994" y="4050" width="210" height="70" as="geometry" />
        </mxCell>
        <mxCell id="zF4Q_hd38RbBPgWRsxnY-191" value="Insert Data" style="rounded=1;whiteSpace=wrap;html=1;" vertex="1" parent="1">
          <mxGeometry x="1009.39" y="4265" width="120" height="60" as="geometry" />
        </mxCell>
        <mxCell id="zF4Q_hd38RbBPgWRsxnY-192" value="" style="html=1;shape=mxgraph.flowchart.annotation_2;align=left;labelPosition=right;fontFamily=Helvetica;fontSize=11;fontColor=default;labelBackgroundColor=default;direction=south;" vertex="1" parent="1">
          <mxGeometry x="992.64" y="4325" width="156.23" height="25" as="geometry" />
        </mxCell>
        <mxCell id="zF4Q_hd38RbBPgWRsxnY-193" value="" style="shape=partialRectangle;whiteSpace=wrap;html=1;bottom=1;right=1;left=1;top=0;fillColor=none;routingCenterX=-0.5;" vertex="1" parent="1">
          <mxGeometry x="992.02" y="4415" width="157.48" height="25" as="geometry" />
        </mxCell>
        <mxCell id="zF4Q_hd38RbBPgWRsxnY-194" value="&lt;b&gt;DataBase:&lt;/b&gt; SuperStoreDW&lt;br&gt;&lt;b&gt;Table:&lt;/b&gt;&amp;nbsp;ShippingbehaviourS&lt;div&gt;&lt;b&gt;Mappings:&lt;/b&gt;&lt;/div&gt;&lt;div&gt; State -&amp;gt; state_name&lt;br&gt;Category -&amp;gt; category_name&lt;br&gt;Shipping -&amp;gt; ship_mode&lt;br&gt;&lt;br&gt;&lt;/div&gt;" style="text;html=1;align=left;verticalAlign=middle;whiteSpace=wrap;rounded=0;fontFamily=Helvetica;fontSize=11;fontColor=default;labelBackgroundColor=default;" vertex="1" parent="1">
          <mxGeometry x="1004" y="4375" width="200" height="30" as="geometry" />
        </mxCell>
        <mxCell id="zF4Q_hd38RbBPgWRsxnY-195" value="" style="edgeStyle=elbowEdgeStyle;fontSize=12;html=1;endArrow=blockThin;endFill=1;startArrow=diamondThin;startFill=0;endSize=6;startSize=10;rounded=0;exitX=1;exitY=0.5;exitDx=0;exitDy=0;entryX=0;entryY=0.5;entryDx=0;entryDy=0;" edge="1" parent="1" target="zF4Q_hd38RbBPgWRsxnY-202">
          <mxGeometry width="160" relative="1" as="geometry">
            <mxPoint x="503.12" y="4180" as="sourcePoint" />
            <mxPoint x="613.12" y="4180" as="targetPoint" />
          </mxGeometry>
        </mxCell>
        <mxCell id="zF4Q_hd38RbBPgWRsxnY-196" value="Found" style="text;html=1;align=center;verticalAlign=middle;whiteSpace=wrap;rounded=0;" vertex="1" parent="1">
          <mxGeometry x="513.12" y="4150" width="60" height="30" as="geometry" />
        </mxCell>
        <mxCell id="zF4Q_hd38RbBPgWRsxnY-197" value="Insert Data" style="rounded=1;whiteSpace=wrap;html=1;" vertex="1" parent="1">
          <mxGeometry x="625.38" y="4390" width="120" height="60" as="geometry" />
        </mxCell>
        <mxCell id="zF4Q_hd38RbBPgWRsxnY-198" value="Not Found" style="text;html=1;align=center;verticalAlign=middle;whiteSpace=wrap;rounded=0;" vertex="1" parent="1">
          <mxGeometry x="449.64" y="4215" width="60" height="30" as="geometry" />
        </mxCell>
        <mxCell id="zF4Q_hd38RbBPgWRsxnY-199" value="" style="html=1;shape=mxgraph.flowchart.annotation_2;align=left;labelPosition=right;fontFamily=Helvetica;fontSize=11;fontColor=default;labelBackgroundColor=default;direction=south;" vertex="1" parent="1">
          <mxGeometry x="604.26" y="4450" width="156.23" height="40" as="geometry" />
        </mxCell>
        <mxCell id="zF4Q_hd38RbBPgWRsxnY-200" value="" style="shape=partialRectangle;whiteSpace=wrap;html=1;bottom=1;right=1;left=1;top=0;fillColor=none;routingCenterX=-0.5;" vertex="1" parent="1">
          <mxGeometry x="602.64" y="4500" width="156.23" height="20" as="geometry" />
        </mxCell>
        <mxCell id="zF4Q_hd38RbBPgWRsxnY-201" value="&lt;b&gt;File: &lt;/b&gt;Errors.txt&lt;br&gt;&lt;b&gt;Type:&lt;/b&gt; Text" style="text;html=1;align=left;verticalAlign=middle;whiteSpace=wrap;rounded=0;" vertex="1" parent="1">
          <mxGeometry x="610.89" y="4480" width="160" height="30" as="geometry" />
        </mxCell>
        <mxCell id="zF4Q_hd38RbBPgWRsxnY-202" value="Lookup" style="rounded=1;whiteSpace=wrap;html=1;" vertex="1" parent="1">
          <mxGeometry x="642.64" y="4150" width="120" height="60" as="geometry" />
        </mxCell>
        <mxCell id="zF4Q_hd38RbBPgWRsxnY-203" value="Lookup" style="rounded=1;whiteSpace=wrap;html=1;" vertex="1" parent="1">
          <mxGeometry x="900" y="4150" width="120" height="60" as="geometry" />
        </mxCell>
        <mxCell id="zF4Q_hd38RbBPgWRsxnY-204" value="Found" style="text;html=1;align=center;verticalAlign=middle;whiteSpace=wrap;rounded=0;" vertex="1" parent="1">
          <mxGeometry x="770.12" y="4150" width="60" height="30" as="geometry" />
        </mxCell>
        <mxCell id="zF4Q_hd38RbBPgWRsxnY-205" value="Found" style="text;html=1;align=center;verticalAlign=middle;whiteSpace=wrap;rounded=0;" vertex="1" parent="1">
          <mxGeometry x="1027.64" y="4150" width="60" height="30" as="geometry" />
        </mxCell>
        <mxCell id="zF4Q_hd38RbBPgWRsxnY-206" value="" style="shape=partialRectangle;whiteSpace=wrap;html=1;bottom=1;right=1;left=1;top=0;fillColor=none;routingCenterX=-0.5;direction=west;" vertex="1" parent="1">
          <mxGeometry x="621.26" y="4050" width="198.74" height="30" as="geometry" />
        </mxCell>
        <mxCell id="zF4Q_hd38RbBPgWRsxnY-207" value="&lt;b&gt;Retrieve:&lt;/b&gt;&amp;nbsp;shipping_id&lt;br&gt;&lt;b&gt;From:&lt;/b&gt; Shipping.shipping_id&lt;div&gt;&lt;b&gt;Where:&lt;/b&gt;&amp;nbsp;Ship Mode&lt;/div&gt;&lt;div&gt;&lt;b&gt;Matches:&lt;/b&gt;&amp;nbsp;Shipping.shipping_mode&lt;/div&gt;" style="text;html=1;align=left;verticalAlign=middle;resizable=0;points=[];autosize=1;strokeColor=none;fillColor=none;rotation=0;" vertex="1" parent="1">
          <mxGeometry x="628.12" y="4050" width="210" height="70" as="geometry" />
        </mxCell>
        <mxCell id="zF4Q_hd38RbBPgWRsxnY-208" value="" style="shape=partialRectangle;whiteSpace=wrap;html=1;bottom=1;right=1;left=1;top=0;fillColor=none;routingCenterX=-0.5;direction=west;" vertex="1" parent="1">
          <mxGeometry x="881.49" y="4050" width="160.76" height="30" as="geometry" />
        </mxCell>
        <mxCell id="zF4Q_hd38RbBPgWRsxnY-209" value="&lt;b&gt;Retrieve:&lt;/b&gt;&amp;nbsp;state_id&lt;br&gt;&lt;b&gt;From:&lt;/b&gt; State.state_id&lt;div&gt;&lt;b&gt;Where:&lt;/b&gt;&amp;nbsp;State&lt;/div&gt;&lt;div&gt;&lt;b&gt;Matches:&lt;/b&gt;&amp;nbsp;State.state_name&lt;/div&gt;" style="text;html=1;align=left;verticalAlign=middle;resizable=0;points=[];autosize=1;strokeColor=none;fillColor=none;rotation=0;" vertex="1" parent="1">
          <mxGeometry x="888.12" y="4050" width="170" height="70" as="geometry" />
        </mxCell>
        <mxCell id="zF4Q_hd38RbBPgWRsxnY-210" style="edgeStyle=orthogonalEdgeStyle;rounded=0;orthogonalLoop=1;jettySize=auto;html=1;exitX=0.5;exitY=1;exitDx=0;exitDy=0;entryX=0.5;entryY=0;entryDx=0;entryDy=0;" edge="1" parent="1" source="zF4Q_hd38RbBPgWRsxnY-211" target="zF4Q_hd38RbBPgWRsxnY-197">
          <mxGeometry relative="1" as="geometry" />
        </mxCell>
        <mxCell id="zF4Q_hd38RbBPgWRsxnY-211" value="Union" style="rounded=1;whiteSpace=wrap;html=1;" vertex="1" parent="1">
          <mxGeometry x="619.26" y="4300" width="120" height="60" as="geometry" />
        </mxCell>
        <mxCell id="zF4Q_hd38RbBPgWRsxnY-212" value="Not Found" style="text;html=1;align=center;verticalAlign=middle;whiteSpace=wrap;rounded=0;" vertex="1" parent="1">
          <mxGeometry x="640.12" y="4220" width="60" height="30" as="geometry" />
        </mxCell>
        <mxCell id="zF4Q_hd38RbBPgWRsxnY-213" value="Not Found" style="text;html=1;align=center;verticalAlign=middle;whiteSpace=wrap;rounded=0;" vertex="1" parent="1">
          <mxGeometry x="894.26" y="4225" width="60" height="30" as="geometry" />
        </mxCell>
        <mxCell id="zF4Q_hd38RbBPgWRsxnY-214" value="" style="html=1;shape=mxgraph.flowchart.annotation_2;align=left;labelPosition=right;direction=north;" vertex="1" parent="1">
          <mxGeometry x="621.26" y="4100" width="198.74" height="50" as="geometry" />
        </mxCell>
        <mxCell id="zF4Q_hd38RbBPgWRsxnY-215" value="" style="html=1;shape=mxgraph.flowchart.annotation_2;align=left;labelPosition=right;direction=north;" vertex="1" parent="1">
          <mxGeometry x="880.25" y="4100" width="162" height="50" as="geometry" />
        </mxCell>
        <mxCell id="zF4Q_hd38RbBPgWRsxnY-216" value="" style="edgeStyle=elbowEdgeStyle;fontSize=12;html=1;endArrow=blockThin;endFill=1;startArrow=diamondThin;startFill=0;endSize=6;startSize=10;rounded=0;exitX=1;exitY=0.5;exitDx=0;exitDy=0;entryX=0;entryY=0.5;entryDx=0;entryDy=0;" edge="1" parent="1" source="zF4Q_hd38RbBPgWRsxnY-202">
          <mxGeometry width="160" relative="1" as="geometry">
            <mxPoint x="760.48" y="4180" as="sourcePoint" />
            <mxPoint x="900" y="4180" as="targetPoint" />
          </mxGeometry>
        </mxCell>
        <mxCell id="zF4Q_hd38RbBPgWRsxnY-217" value="" style="edgeStyle=elbowEdgeStyle;fontSize=12;html=1;endArrow=blockThin;endFill=1;startArrow=diamondThin;startFill=0;endSize=6;startSize=10;rounded=0;exitX=1;exitY=0.5;exitDx=0;exitDy=0;entryX=0.5;entryY=0;entryDx=0;entryDy=0;" edge="1" parent="1" source="zF4Q_hd38RbBPgWRsxnY-203" target="zF4Q_hd38RbBPgWRsxnY-191">
          <mxGeometry width="160" relative="1" as="geometry">
            <mxPoint x="1050.76" y="4200" as="sourcePoint" />
            <mxPoint x="1188.1200000000001" y="4200" as="targetPoint" />
            <Array as="points">
              <mxPoint x="1069.64" y="4180" />
            </Array>
          </mxGeometry>
        </mxCell>
        <mxCell id="zF4Q_hd38RbBPgWRsxnY-218" style="edgeStyle=orthogonalEdgeStyle;rounded=0;orthogonalLoop=1;jettySize=auto;html=1;exitX=0.5;exitY=1;exitDx=0;exitDy=0;endArrow=blockThin;endFill=1;startArrow=diamondThin;startFill=0;entryX=0;entryY=0.5;entryDx=0;entryDy=0;" edge="1" parent="1" source="zF4Q_hd38RbBPgWRsxnY-187" target="zF4Q_hd38RbBPgWRsxnY-211">
          <mxGeometry relative="1" as="geometry">
            <mxPoint x="562.14" y="4430" as="targetPoint" />
            <mxPoint x="457.14" y="4300" as="sourcePoint" />
          </mxGeometry>
        </mxCell>
        <mxCell id="zF4Q_hd38RbBPgWRsxnY-219" style="edgeStyle=orthogonalEdgeStyle;rounded=0;orthogonalLoop=1;jettySize=auto;html=1;exitX=0.5;exitY=1;exitDx=0;exitDy=0;endArrow=blockThin;endFill=1;startArrow=diamondThin;startFill=0;entryX=0.5;entryY=0;entryDx=0;entryDy=0;" edge="1" parent="1" source="zF4Q_hd38RbBPgWRsxnY-202" target="zF4Q_hd38RbBPgWRsxnY-211">
          <mxGeometry relative="1" as="geometry">
            <mxPoint x="629.64" y="4340" as="targetPoint" />
            <mxPoint x="453.64" y="4220" as="sourcePoint" />
            <Array as="points">
              <mxPoint x="702.64" y="4255" />
              <mxPoint x="679.64" y="4255" />
            </Array>
          </mxGeometry>
        </mxCell>
        <mxCell id="zF4Q_hd38RbBPgWRsxnY-220" style="edgeStyle=orthogonalEdgeStyle;rounded=0;orthogonalLoop=1;jettySize=auto;html=1;exitX=0.5;exitY=1;exitDx=0;exitDy=0;endArrow=blockThin;endFill=1;startArrow=diamondThin;startFill=0;entryX=1;entryY=0.5;entryDx=0;entryDy=0;" edge="1" parent="1" source="zF4Q_hd38RbBPgWRsxnY-203" target="zF4Q_hd38RbBPgWRsxnY-211">
          <mxGeometry relative="1" as="geometry">
            <mxPoint x="639.64" y="4350" as="targetPoint" />
            <mxPoint x="463.64" y="4230" as="sourcePoint" />
          </mxGeometry>
        </mxCell>
        <mxCell id="zF4Q_hd38RbBPgWRsxnY-221" value="&lt;h1 style=&quot;margin-top: 0px;&quot;&gt;ShippingBehaviour&lt;/h1&gt;" style="text;html=1;whiteSpace=wrap;overflow=hidden;rounded=0;" vertex="1" parent="1">
          <mxGeometry x="-253.02" y="4785" width="270" height="120" as="geometry" />
        </mxCell>
        <mxCell id="zF4Q_hd38RbBPgWRsxnY-222" style="edgeStyle=orthogonalEdgeStyle;rounded=0;orthogonalLoop=1;jettySize=auto;html=1;exitX=1;exitY=0.5;exitDx=0;exitDy=0;exitPerimeter=0;entryX=0;entryY=0.5;entryDx=0;entryDy=0;" edge="1" parent="1" source="zF4Q_hd38RbBPgWRsxnY-223" target="zF4Q_hd38RbBPgWRsxnY-227">
          <mxGeometry relative="1" as="geometry" />
        </mxCell>
        <mxCell id="zF4Q_hd38RbBPgWRsxnY-223" value="Input Data" style="points=[[0.25,0,0],[0.5,0,0],[0.75,0,0],[1,0.25,0],[1,0.5,0],[1,0.75,0],[0.75,1,0],[0.5,1,0],[0.25,1,0],[0,0.75,0],[0,0.5,0],[0,0.25,0]];shape=mxgraph.bpmn.task2;whiteSpace=wrap;rectStyle=rounded;size=10;html=1;container=1;expand=0;collapsible=0;taskMarker=abstract;fontFamily=Helvetica;fontSize=11;fontColor=default;labelBackgroundColor=default;" vertex="1" parent="1">
          <mxGeometry x="77.56000000000003" y="4760" width="120" height="80" as="geometry" />
        </mxCell>
        <mxCell id="zF4Q_hd38RbBPgWRsxnY-224" value="" style="html=1;shape=mxgraph.flowchart.annotation_2;align=left;labelPosition=right;fontFamily=Helvetica;fontSize=11;fontColor=default;labelBackgroundColor=default;direction=south;" vertex="1" parent="1">
          <mxGeometry x="62.4" y="4840" width="142.5" height="35" as="geometry" />
        </mxCell>
        <mxCell id="zF4Q_hd38RbBPgWRsxnY-225" value="" style="shape=partialRectangle;whiteSpace=wrap;html=1;bottom=1;right=1;left=1;top=0;fillColor=none;routingCenterX=-0.5;" vertex="1" parent="1">
          <mxGeometry x="62.4" y="4905" width="142.5" height="20" as="geometry" />
        </mxCell>
        <mxCell id="zF4Q_hd38RbBPgWRsxnY-226" value="&lt;b&gt;File:&lt;/b&gt; Super-Store.xls&lt;div&gt;&lt;b&gt;Type: &lt;/b&gt;Excel&lt;br&gt;&lt;b&gt;SQL Query:&lt;/b&gt;&lt;/div&gt;" style="text;html=1;align=left;verticalAlign=middle;whiteSpace=wrap;rounded=0;fontFamily=Helvetica;fontSize=11;fontColor=default;labelBackgroundColor=default;" vertex="1" parent="1">
          <mxGeometry x="68.65" y="4875" width="130" height="30" as="geometry" />
        </mxCell>
        <mxCell id="zF4Q_hd38RbBPgWRsxnY-227" value="Lookup" style="rounded=1;whiteSpace=wrap;html=1;" vertex="1" parent="1">
          <mxGeometry x="332.42" y="4770" width="120" height="60" as="geometry" />
        </mxCell>
        <mxCell id="zF4Q_hd38RbBPgWRsxnY-228" value="" style="html=1;shape=mxgraph.flowchart.annotation_2;align=left;labelPosition=right;direction=north;" vertex="1" parent="1">
          <mxGeometry x="314.9" y="4720" width="195.1" height="50" as="geometry" />
        </mxCell>
        <mxCell id="zF4Q_hd38RbBPgWRsxnY-229" value="" style="shape=partialRectangle;whiteSpace=wrap;html=1;bottom=1;right=1;left=1;top=0;fillColor=none;routingCenterX=-0.5;direction=west;" vertex="1" parent="1">
          <mxGeometry x="314.9" y="4670" width="205.1" height="30" as="geometry" />
        </mxCell>
        <mxCell id="zF4Q_hd38RbBPgWRsxnY-230" value="&lt;b&gt;Retrieve:&lt;/b&gt;&amp;nbsp;category_id&lt;br&gt;&lt;b&gt;From:&lt;/b&gt;&amp;nbsp;Category.category_id&lt;div&gt;&lt;b style=&quot;background-color: transparent; color: light-dark(rgb(0, 0, 0), rgb(255, 255, 255));&quot;&gt;Where:&lt;/b&gt;&lt;span style=&quot;background-color: transparent; color: light-dark(rgb(0, 0, 0), rgb(255, 255, 255));&quot;&gt;&amp;nbsp;Category&lt;/span&gt;&lt;div&gt;&lt;b&gt;Matches:&lt;/b&gt;&amp;nbsp;Category.category_name&lt;/div&gt;&lt;/div&gt;" style="text;html=1;align=left;verticalAlign=middle;resizable=0;points=[];autosize=1;strokeColor=none;fillColor=none;rotation=0;" vertex="1" parent="1">
          <mxGeometry x="322.9" y="4670" width="210" height="70" as="geometry" />
        </mxCell>
        <mxCell id="zF4Q_hd38RbBPgWRsxnY-231" value="Insert Data" style="rounded=1;whiteSpace=wrap;html=1;" vertex="1" parent="1">
          <mxGeometry x="957.9" y="4885" width="120" height="60" as="geometry" />
        </mxCell>
        <mxCell id="zF4Q_hd38RbBPgWRsxnY-232" value="" style="html=1;shape=mxgraph.flowchart.annotation_2;align=left;labelPosition=right;fontFamily=Helvetica;fontSize=11;fontColor=default;labelBackgroundColor=default;direction=south;" vertex="1" parent="1">
          <mxGeometry x="941.15" y="4945" width="156.23" height="30" as="geometry" />
        </mxCell>
        <mxCell id="zF4Q_hd38RbBPgWRsxnY-233" value="" style="shape=partialRectangle;whiteSpace=wrap;html=1;bottom=1;right=1;left=1;top=0;fillColor=none;routingCenterX=-0.5;" vertex="1" parent="1">
          <mxGeometry x="941.15" y="5030" width="156.23" height="25" as="geometry" />
        </mxCell>
        <mxCell id="zF4Q_hd38RbBPgWRsxnY-234" value="&lt;b&gt;DataBase:&lt;/b&gt; SuperStoreDW&lt;br&gt;&lt;b&gt;Table:&lt;/b&gt;&amp;nbsp;Location&lt;div&gt;&lt;b&gt;Mappings:&lt;/b&gt;&lt;/div&gt;&lt;div&gt;Region -&amp;gt; region_name&lt;br&gt;Category -&amp;gt; category_name&lt;br&gt;Shipping -&amp;gt; ship_mode&lt;/div&gt;" style="text;html=1;align=left;verticalAlign=middle;whiteSpace=wrap;rounded=0;fontFamily=Helvetica;fontSize=11;fontColor=default;labelBackgroundColor=default;" vertex="1" parent="1">
          <mxGeometry x="952.51" y="4995" width="200" height="30" as="geometry" />
        </mxCell>
        <mxCell id="zF4Q_hd38RbBPgWRsxnY-235" value="" style="edgeStyle=elbowEdgeStyle;fontSize=12;html=1;endArrow=blockThin;endFill=1;startArrow=diamondThin;startFill=0;endSize=6;startSize=10;rounded=0;exitX=1;exitY=0.5;exitDx=0;exitDy=0;entryX=0;entryY=0.5;entryDx=0;entryDy=0;" edge="1" parent="1" target="zF4Q_hd38RbBPgWRsxnY-242">
          <mxGeometry width="160" relative="1" as="geometry">
            <mxPoint x="451.63000000000005" y="4800" as="sourcePoint" />
            <mxPoint x="561.63" y="4800" as="targetPoint" />
          </mxGeometry>
        </mxCell>
        <mxCell id="zF4Q_hd38RbBPgWRsxnY-236" value="Found" style="text;html=1;align=center;verticalAlign=middle;whiteSpace=wrap;rounded=0;" vertex="1" parent="1">
          <mxGeometry x="461.63000000000005" y="4770" width="60" height="30" as="geometry" />
        </mxCell>
        <mxCell id="zF4Q_hd38RbBPgWRsxnY-237" value="Insert Data" style="rounded=1;whiteSpace=wrap;html=1;" vertex="1" parent="1">
          <mxGeometry x="573.89" y="5010" width="120" height="60" as="geometry" />
        </mxCell>
        <mxCell id="zF4Q_hd38RbBPgWRsxnY-238" value="Not Found" style="text;html=1;align=center;verticalAlign=middle;whiteSpace=wrap;rounded=0;" vertex="1" parent="1">
          <mxGeometry x="398.15000000000003" y="4835" width="60" height="30" as="geometry" />
        </mxCell>
        <mxCell id="zF4Q_hd38RbBPgWRsxnY-239" value="" style="html=1;shape=mxgraph.flowchart.annotation_2;align=left;labelPosition=right;fontFamily=Helvetica;fontSize=11;fontColor=default;labelBackgroundColor=default;direction=south;" vertex="1" parent="1">
          <mxGeometry x="552.77" y="5070" width="156.23" height="40" as="geometry" />
        </mxCell>
        <mxCell id="zF4Q_hd38RbBPgWRsxnY-240" value="" style="shape=partialRectangle;whiteSpace=wrap;html=1;bottom=1;right=1;left=1;top=0;fillColor=none;routingCenterX=-0.5;" vertex="1" parent="1">
          <mxGeometry x="551.15" y="5120" width="156.23" height="20" as="geometry" />
        </mxCell>
        <mxCell id="zF4Q_hd38RbBPgWRsxnY-241" value="&lt;b&gt;File: &lt;/b&gt;Errors.txt&lt;br&gt;&lt;b&gt;Type:&lt;/b&gt; Text" style="text;html=1;align=left;verticalAlign=middle;whiteSpace=wrap;rounded=0;" vertex="1" parent="1">
          <mxGeometry x="559.4" y="5100" width="160" height="30" as="geometry" />
        </mxCell>
        <mxCell id="zF4Q_hd38RbBPgWRsxnY-242" value="Lookup" style="rounded=1;whiteSpace=wrap;html=1;" vertex="1" parent="1">
          <mxGeometry x="591.15" y="4770" width="120" height="60" as="geometry" />
        </mxCell>
        <mxCell id="zF4Q_hd38RbBPgWRsxnY-243" value="Lookup" style="rounded=1;whiteSpace=wrap;html=1;" vertex="1" parent="1">
          <mxGeometry x="848.51" y="4770" width="120" height="60" as="geometry" />
        </mxCell>
        <mxCell id="zF4Q_hd38RbBPgWRsxnY-244" value="Found" style="text;html=1;align=center;verticalAlign=middle;whiteSpace=wrap;rounded=0;" vertex="1" parent="1">
          <mxGeometry x="718.63" y="4770" width="60" height="30" as="geometry" />
        </mxCell>
        <mxCell id="zF4Q_hd38RbBPgWRsxnY-245" value="Found" style="text;html=1;align=center;verticalAlign=middle;whiteSpace=wrap;rounded=0;" vertex="1" parent="1">
          <mxGeometry x="976.15" y="4770" width="60" height="30" as="geometry" />
        </mxCell>
        <mxCell id="zF4Q_hd38RbBPgWRsxnY-246" value="" style="shape=partialRectangle;whiteSpace=wrap;html=1;bottom=1;right=1;left=1;top=0;fillColor=none;routingCenterX=-0.5;direction=west;" vertex="1" parent="1">
          <mxGeometry x="569.77" y="4670" width="200.23" height="30" as="geometry" />
        </mxCell>
        <mxCell id="zF4Q_hd38RbBPgWRsxnY-247" value="&lt;b&gt;Retrieve:&lt;/b&gt;&amp;nbsp;shipping_id&lt;br&gt;&lt;b&gt;From:&lt;/b&gt; Shipping.shipping_id&lt;div&gt;&lt;b&gt;Where:&lt;/b&gt;&amp;nbsp;Ship Mode&lt;/div&gt;&lt;div&gt;&lt;b&gt;Matches:&lt;/b&gt;&amp;nbsp;Shipping.shipping_mode&lt;/div&gt;" style="text;html=1;align=left;verticalAlign=middle;resizable=0;points=[];autosize=1;strokeColor=none;fillColor=none;rotation=0;" vertex="1" parent="1">
          <mxGeometry x="576.63" y="4670" width="210" height="70" as="geometry" />
        </mxCell>
        <mxCell id="zF4Q_hd38RbBPgWRsxnY-248" value="" style="shape=partialRectangle;whiteSpace=wrap;html=1;bottom=1;right=1;left=1;top=0;fillColor=none;routingCenterX=-0.5;direction=west;" vertex="1" parent="1">
          <mxGeometry x="830" y="4670" width="180" height="30" as="geometry" />
        </mxCell>
        <mxCell id="zF4Q_hd38RbBPgWRsxnY-249" value="&lt;b&gt;Retrieve:&lt;/b&gt;&amp;nbsp;region_id&lt;br&gt;&lt;b&gt;From:&lt;/b&gt;&amp;nbsp;Region.region_id&lt;div&gt;&lt;b&gt;Where:&lt;/b&gt;&amp;nbsp;Region&lt;/div&gt;&lt;div&gt;&lt;b&gt;Matches:&lt;/b&gt;&amp;nbsp;Region.region_name&lt;/div&gt;" style="text;html=1;align=left;verticalAlign=middle;resizable=0;points=[];autosize=1;strokeColor=none;fillColor=none;rotation=0;" vertex="1" parent="1">
          <mxGeometry x="836.63" y="4670" width="190" height="70" as="geometry" />
        </mxCell>
        <mxCell id="zF4Q_hd38RbBPgWRsxnY-250" style="edgeStyle=orthogonalEdgeStyle;rounded=0;orthogonalLoop=1;jettySize=auto;html=1;exitX=0.5;exitY=1;exitDx=0;exitDy=0;entryX=0.5;entryY=0;entryDx=0;entryDy=0;" edge="1" parent="1" source="zF4Q_hd38RbBPgWRsxnY-251" target="zF4Q_hd38RbBPgWRsxnY-237">
          <mxGeometry relative="1" as="geometry" />
        </mxCell>
        <mxCell id="zF4Q_hd38RbBPgWRsxnY-251" value="Union" style="rounded=1;whiteSpace=wrap;html=1;" vertex="1" parent="1">
          <mxGeometry x="567.77" y="4920" width="120" height="60" as="geometry" />
        </mxCell>
        <mxCell id="zF4Q_hd38RbBPgWRsxnY-252" value="Not Found" style="text;html=1;align=center;verticalAlign=middle;whiteSpace=wrap;rounded=0;" vertex="1" parent="1">
          <mxGeometry x="588.63" y="4840" width="60" height="30" as="geometry" />
        </mxCell>
        <mxCell id="zF4Q_hd38RbBPgWRsxnY-253" value="Not Found" style="text;html=1;align=center;verticalAlign=middle;whiteSpace=wrap;rounded=0;" vertex="1" parent="1">
          <mxGeometry x="842.77" y="4845" width="60" height="30" as="geometry" />
        </mxCell>
        <mxCell id="zF4Q_hd38RbBPgWRsxnY-254" value="" style="html=1;shape=mxgraph.flowchart.annotation_2;align=left;labelPosition=right;direction=north;" vertex="1" parent="1">
          <mxGeometry x="569.77" y="4720" width="200.23" height="50" as="geometry" />
        </mxCell>
        <mxCell id="zF4Q_hd38RbBPgWRsxnY-255" value="" style="html=1;shape=mxgraph.flowchart.annotation_2;align=left;labelPosition=right;direction=north;" vertex="1" parent="1">
          <mxGeometry x="828.76" y="4720" width="181.24" height="50" as="geometry" />
        </mxCell>
        <mxCell id="zF4Q_hd38RbBPgWRsxnY-256" value="" style="edgeStyle=elbowEdgeStyle;fontSize=12;html=1;endArrow=blockThin;endFill=1;startArrow=diamondThin;startFill=0;endSize=6;startSize=10;rounded=0;exitX=1;exitY=0.5;exitDx=0;exitDy=0;entryX=0;entryY=0.5;entryDx=0;entryDy=0;" edge="1" parent="1" source="zF4Q_hd38RbBPgWRsxnY-242">
          <mxGeometry width="160" relative="1" as="geometry">
            <mxPoint x="708.99" y="4800" as="sourcePoint" />
            <mxPoint x="848.51" y="4800" as="targetPoint" />
          </mxGeometry>
        </mxCell>
        <mxCell id="zF4Q_hd38RbBPgWRsxnY-257" value="" style="edgeStyle=elbowEdgeStyle;fontSize=12;html=1;endArrow=blockThin;endFill=1;startArrow=diamondThin;startFill=0;endSize=6;startSize=10;rounded=0;exitX=1;exitY=0.5;exitDx=0;exitDy=0;entryX=0.5;entryY=0;entryDx=0;entryDy=0;" edge="1" parent="1" source="zF4Q_hd38RbBPgWRsxnY-243" target="zF4Q_hd38RbBPgWRsxnY-231">
          <mxGeometry width="160" relative="1" as="geometry">
            <mxPoint x="999.2699999999999" y="4820" as="sourcePoint" />
            <mxPoint x="1136.63" y="4820" as="targetPoint" />
            <Array as="points">
              <mxPoint x="1018.15" y="4800" />
            </Array>
          </mxGeometry>
        </mxCell>
        <mxCell id="zF4Q_hd38RbBPgWRsxnY-258" style="edgeStyle=orthogonalEdgeStyle;rounded=0;orthogonalLoop=1;jettySize=auto;html=1;exitX=0.5;exitY=1;exitDx=0;exitDy=0;endArrow=blockThin;endFill=1;startArrow=diamondThin;startFill=0;entryX=0;entryY=0.5;entryDx=0;entryDy=0;" edge="1" parent="1" source="zF4Q_hd38RbBPgWRsxnY-227" target="zF4Q_hd38RbBPgWRsxnY-251">
          <mxGeometry relative="1" as="geometry">
            <mxPoint x="510.65" y="5050" as="targetPoint" />
            <mxPoint x="405.65000000000003" y="4920" as="sourcePoint" />
          </mxGeometry>
        </mxCell>
        <mxCell id="zF4Q_hd38RbBPgWRsxnY-259" style="edgeStyle=orthogonalEdgeStyle;rounded=0;orthogonalLoop=1;jettySize=auto;html=1;exitX=0.5;exitY=1;exitDx=0;exitDy=0;endArrow=blockThin;endFill=1;startArrow=diamondThin;startFill=0;entryX=0.5;entryY=0;entryDx=0;entryDy=0;" edge="1" parent="1" source="zF4Q_hd38RbBPgWRsxnY-242" target="zF4Q_hd38RbBPgWRsxnY-251">
          <mxGeometry relative="1" as="geometry">
            <mxPoint x="578.15" y="4960" as="targetPoint" />
            <mxPoint x="402.15000000000003" y="4840" as="sourcePoint" />
            <Array as="points">
              <mxPoint x="651.15" y="4875" />
              <mxPoint x="628.15" y="4875" />
            </Array>
          </mxGeometry>
        </mxCell>
        <mxCell id="zF4Q_hd38RbBPgWRsxnY-260" style="edgeStyle=orthogonalEdgeStyle;rounded=0;orthogonalLoop=1;jettySize=auto;html=1;exitX=0.5;exitY=1;exitDx=0;exitDy=0;endArrow=blockThin;endFill=1;startArrow=diamondThin;startFill=0;entryX=1;entryY=0.5;entryDx=0;entryDy=0;" edge="1" parent="1" source="zF4Q_hd38RbBPgWRsxnY-243" target="zF4Q_hd38RbBPgWRsxnY-251">
          <mxGeometry relative="1" as="geometry">
            <mxPoint x="588.15" y="4970" as="targetPoint" />
            <mxPoint x="412.15000000000003" y="4850" as="sourcePoint" />
          </mxGeometry>
        </mxCell>
        <mxCell id="zF4Q_hd38RbBPgWRsxnY-261" value="&lt;h1 style=&quot;margin-top: 0px;&quot;&gt;OrderM&lt;/h1&gt;" style="text;html=1;whiteSpace=wrap;overflow=hidden;rounded=0;" vertex="1" parent="1">
          <mxGeometry x="-253.02" y="5435" width="140" height="55" as="geometry" />
        </mxCell>
        <mxCell id="zF4Q_hd38RbBPgWRsxnY-302" value="Input Data" style="points=[[0.25,0,0],[0.5,0,0],[0.75,0,0],[1,0.25,0],[1,0.5,0],[1,0.75,0],[0.75,1,0],[0.5,1,0],[0.25,1,0],[0,0.75,0],[0,0.5,0],[0,0.25,0]];shape=mxgraph.bpmn.task2;whiteSpace=wrap;rectStyle=rounded;size=10;html=1;container=1;expand=0;collapsible=0;taskMarker=abstract;fontFamily=Helvetica;fontSize=11;fontColor=default;labelBackgroundColor=default;" vertex="1" parent="1">
          <mxGeometry x="-24.83999999999996" y="5420" width="120" height="80" as="geometry" />
        </mxCell>
        <mxCell id="zF4Q_hd38RbBPgWRsxnY-303" value="" style="html=1;shape=mxgraph.flowchart.annotation_2;align=left;labelPosition=right;fontFamily=Helvetica;fontSize=11;fontColor=default;labelBackgroundColor=default;direction=south;" vertex="1" parent="1">
          <mxGeometry x="-39.999999999999986" y="5500" width="142.5" height="35" as="geometry" />
        </mxCell>
        <mxCell id="zF4Q_hd38RbBPgWRsxnY-304" value="" style="shape=partialRectangle;whiteSpace=wrap;html=1;bottom=1;right=1;left=1;top=0;fillColor=none;routingCenterX=-0.5;" vertex="1" parent="1">
          <mxGeometry x="-39.999999999999986" y="5565" width="142.5" height="20" as="geometry" />
        </mxCell>
        <mxCell id="zF4Q_hd38RbBPgWRsxnY-305" value="&lt;b&gt;File:&lt;/b&gt; Super-Store.xls&lt;div&gt;&lt;b&gt;Type: &lt;/b&gt;Excel&lt;br&gt;&lt;b&gt;SQL Query:&lt;/b&gt;&lt;/div&gt;" style="text;html=1;align=left;verticalAlign=middle;whiteSpace=wrap;rounded=0;fontFamily=Helvetica;fontSize=11;fontColor=default;labelBackgroundColor=default;" vertex="1" parent="1">
          <mxGeometry x="-33.749999999999986" y="5535" width="130" height="30" as="geometry" />
        </mxCell>
        <mxCell id="zF4Q_hd38RbBPgWRsxnY-306" value="Lookup" style="rounded=1;whiteSpace=wrap;html=1;" vertex="1" parent="1">
          <mxGeometry x="166.78999999999996" y="5440" width="120" height="60" as="geometry" />
        </mxCell>
        <mxCell id="zF4Q_hd38RbBPgWRsxnY-307" value="" style="html=1;shape=mxgraph.flowchart.annotation_2;align=left;labelPosition=right;direction=north;" vertex="1" parent="1">
          <mxGeometry x="120" y="5390" width="270" height="50" as="geometry" />
        </mxCell>
        <mxCell id="zF4Q_hd38RbBPgWRsxnY-308" value="" style="shape=partialRectangle;whiteSpace=wrap;html=1;bottom=1;right=1;left=1;top=0;fillColor=none;routingCenterX=-0.5;direction=west;" vertex="1" parent="1">
          <mxGeometry x="120" y="5340" width="270" height="30" as="geometry" />
        </mxCell>
        <mxCell id="zF4Q_hd38RbBPgWRsxnY-309" value="&lt;b&gt;Retrieve:&lt;/b&gt;&amp;nbsp;calendar_month_id&lt;br&gt;&lt;b&gt;From:&lt;/b&gt;&amp;nbsp;CalendarMonth.calendar_month_id&lt;div&gt;&lt;b&gt;Where:&lt;/b&gt;&amp;nbsp;Month&lt;/div&gt;&lt;div&gt;&lt;b style=&quot;background-color: transparent; color: light-dark(rgb(0, 0, 0), rgb(255, 255, 255));&quot;&gt;Matches:&lt;/b&gt;&lt;span style=&quot;background-color: transparent; color: light-dark(rgb(0, 0, 0), rgb(255, 255, 255));&quot;&gt;&amp;nbsp;CalendarMonth.calendar_month_name&lt;/span&gt;&lt;/div&gt;" style="text;html=1;align=left;verticalAlign=middle;resizable=0;points=[];autosize=1;strokeColor=none;fillColor=none;rotation=0;" vertex="1" parent="1">
          <mxGeometry x="120.74999999999989" y="5340" width="290" height="70" as="geometry" />
        </mxCell>
        <mxCell id="zF4Q_hd38RbBPgWRsxnY-310" value="Insert Data" style="rounded=1;whiteSpace=wrap;html=1;" vertex="1" parent="1">
          <mxGeometry x="792.2699999999999" y="5555" width="120" height="60" as="geometry" />
        </mxCell>
        <mxCell id="zF4Q_hd38RbBPgWRsxnY-311" value="" style="html=1;shape=mxgraph.flowchart.annotation_2;align=left;labelPosition=right;fontFamily=Helvetica;fontSize=11;fontColor=default;labelBackgroundColor=default;direction=south;" vertex="1" parent="1">
          <mxGeometry x="775.5199999999999" y="5615" width="156.23" height="30" as="geometry" />
        </mxCell>
        <mxCell id="zF4Q_hd38RbBPgWRsxnY-312" value="" style="shape=partialRectangle;whiteSpace=wrap;html=1;bottom=1;right=1;left=1;top=0;fillColor=none;routingCenterX=-0.5;" vertex="1" parent="1">
          <mxGeometry x="775.5199999999999" y="5670" width="156.23" height="25" as="geometry" />
        </mxCell>
        <mxCell id="zF4Q_hd38RbBPgWRsxnY-313" value="&lt;b&gt;DataBase:&lt;/b&gt; SuperStoreDW&lt;br&gt;&lt;b&gt;Table:&lt;/b&gt;&amp;nbsp;OrderM&lt;div&gt;&lt;b&gt;Mappings:&lt;/b&gt;&lt;/div&gt;&lt;div&gt; State -&amp;gt; state_name&lt;br&gt;&lt;/div&gt;" style="text;html=1;align=left;verticalAlign=middle;whiteSpace=wrap;rounded=0;fontFamily=Helvetica;fontSize=11;fontColor=default;labelBackgroundColor=default;" vertex="1" parent="1">
          <mxGeometry x="780.48" y="5650" width="200" height="30" as="geometry" />
        </mxCell>
        <mxCell id="zF4Q_hd38RbBPgWRsxnY-314" value="" style="edgeStyle=elbowEdgeStyle;fontSize=12;html=1;endArrow=blockThin;endFill=1;startArrow=diamondThin;startFill=0;endSize=6;startSize=10;rounded=0;exitX=1;exitY=0.5;exitDx=0;exitDy=0;" edge="1" parent="1">
          <mxGeometry width="160" relative="1" as="geometry">
            <mxPoint x="286" y="5470" as="sourcePoint" />
            <mxPoint x="680" y="5470" as="targetPoint" />
          </mxGeometry>
        </mxCell>
        <mxCell id="zF4Q_hd38RbBPgWRsxnY-315" value="Found" style="text;html=1;align=center;verticalAlign=middle;whiteSpace=wrap;rounded=0;" vertex="1" parent="1">
          <mxGeometry x="296" y="5440" width="60" height="30" as="geometry" />
        </mxCell>
        <mxCell id="zF4Q_hd38RbBPgWRsxnY-316" value="Insert Data" style="rounded=1;whiteSpace=wrap;html=1;" vertex="1" parent="1">
          <mxGeometry x="408.2599999999999" y="5680" width="120" height="60" as="geometry" />
        </mxCell>
        <mxCell id="zF4Q_hd38RbBPgWRsxnY-317" value="Not Found" style="text;html=1;align=center;verticalAlign=middle;whiteSpace=wrap;rounded=0;" vertex="1" parent="1">
          <mxGeometry x="232.51999999999998" y="5505" width="60" height="30" as="geometry" />
        </mxCell>
        <mxCell id="zF4Q_hd38RbBPgWRsxnY-318" value="" style="html=1;shape=mxgraph.flowchart.annotation_2;align=left;labelPosition=right;fontFamily=Helvetica;fontSize=11;fontColor=default;labelBackgroundColor=default;direction=south;" vertex="1" parent="1">
          <mxGeometry x="387.14" y="5740" width="156.23" height="40" as="geometry" />
        </mxCell>
        <mxCell id="zF4Q_hd38RbBPgWRsxnY-319" value="" style="shape=partialRectangle;whiteSpace=wrap;html=1;bottom=1;right=1;left=1;top=0;fillColor=none;routingCenterX=-0.5;" vertex="1" parent="1">
          <mxGeometry x="385.51999999999987" y="5790" width="156.23" height="20" as="geometry" />
        </mxCell>
        <mxCell id="zF4Q_hd38RbBPgWRsxnY-320" value="&lt;b&gt;File: &lt;/b&gt;Errors.txt&lt;br&gt;&lt;b&gt;Type:&lt;/b&gt; Text" style="text;html=1;align=left;verticalAlign=middle;whiteSpace=wrap;rounded=0;" vertex="1" parent="1">
          <mxGeometry x="393.76999999999987" y="5770" width="160" height="30" as="geometry" />
        </mxCell>
        <mxCell id="zF4Q_hd38RbBPgWRsxnY-322" value="Lookup" style="rounded=1;whiteSpace=wrap;html=1;" vertex="1" parent="1">
          <mxGeometry x="682.88" y="5440" width="120" height="60" as="geometry" />
        </mxCell>
        <mxCell id="zF4Q_hd38RbBPgWRsxnY-324" value="Found" style="text;html=1;align=center;verticalAlign=middle;whiteSpace=wrap;rounded=0;" vertex="1" parent="1">
          <mxGeometry x="810.5199999999999" y="5440" width="60" height="30" as="geometry" />
        </mxCell>
        <mxCell id="zF4Q_hd38RbBPgWRsxnY-327" value="" style="shape=partialRectangle;whiteSpace=wrap;html=1;bottom=1;right=1;left=1;top=0;fillColor=none;routingCenterX=-0.5;direction=west;" vertex="1" parent="1">
          <mxGeometry x="663.13" y="5340" width="160.76" height="30" as="geometry" />
        </mxCell>
        <mxCell id="zF4Q_hd38RbBPgWRsxnY-328" value="&lt;b&gt;Retrieve:&lt;/b&gt;&amp;nbsp;state_id&lt;br&gt;&lt;b&gt;From:&lt;/b&gt; State.state_id&lt;div&gt;&lt;b&gt;Where:&lt;/b&gt;&amp;nbsp;State&lt;/div&gt;&lt;div&gt;&lt;b&gt;Matches:&lt;/b&gt;&amp;nbsp;State.state_name&lt;/div&gt;" style="text;html=1;align=left;verticalAlign=middle;resizable=0;points=[];autosize=1;strokeColor=none;fillColor=none;rotation=0;" vertex="1" parent="1">
          <mxGeometry x="670.9999999999999" y="5340" width="170" height="70" as="geometry" />
        </mxCell>
        <mxCell id="zF4Q_hd38RbBPgWRsxnY-329" style="edgeStyle=orthogonalEdgeStyle;rounded=0;orthogonalLoop=1;jettySize=auto;html=1;exitX=0.5;exitY=1;exitDx=0;exitDy=0;entryX=0.5;entryY=0;entryDx=0;entryDy=0;" edge="1" parent="1" source="zF4Q_hd38RbBPgWRsxnY-330" target="zF4Q_hd38RbBPgWRsxnY-316">
          <mxGeometry relative="1" as="geometry" />
        </mxCell>
        <mxCell id="zF4Q_hd38RbBPgWRsxnY-330" value="Union" style="rounded=1;whiteSpace=wrap;html=1;" vertex="1" parent="1">
          <mxGeometry x="402.14" y="5590" width="120" height="60" as="geometry" />
        </mxCell>
        <mxCell id="zF4Q_hd38RbBPgWRsxnY-332" value="Not Found" style="text;html=1;align=center;verticalAlign=middle;whiteSpace=wrap;rounded=0;" vertex="1" parent="1">
          <mxGeometry x="677.14" y="5515" width="60" height="30" as="geometry" />
        </mxCell>
        <mxCell id="zF4Q_hd38RbBPgWRsxnY-334" value="" style="html=1;shape=mxgraph.flowchart.annotation_2;align=left;labelPosition=right;direction=north;" vertex="1" parent="1">
          <mxGeometry x="663.13" y="5390" width="162" height="50" as="geometry" />
        </mxCell>
        <mxCell id="zF4Q_hd38RbBPgWRsxnY-336" value="" style="edgeStyle=elbowEdgeStyle;fontSize=12;html=1;endArrow=blockThin;endFill=1;startArrow=diamondThin;startFill=0;endSize=6;startSize=10;rounded=0;exitX=1;exitY=0.5;exitDx=0;exitDy=0;entryX=0.5;entryY=0;entryDx=0;entryDy=0;" edge="1" parent="1" source="zF4Q_hd38RbBPgWRsxnY-322" target="zF4Q_hd38RbBPgWRsxnY-310">
          <mxGeometry width="160" relative="1" as="geometry">
            <mxPoint x="833.6399999999998" y="5490" as="sourcePoint" />
            <mxPoint x="971.0000000000001" y="5490" as="targetPoint" />
            <Array as="points">
              <mxPoint x="852.5200000000001" y="5470" />
            </Array>
          </mxGeometry>
        </mxCell>
        <mxCell id="zF4Q_hd38RbBPgWRsxnY-337" style="edgeStyle=orthogonalEdgeStyle;rounded=0;orthogonalLoop=1;jettySize=auto;html=1;exitX=0.5;exitY=1;exitDx=0;exitDy=0;endArrow=blockThin;endFill=1;startArrow=diamondThin;startFill=0;entryX=0;entryY=0.5;entryDx=0;entryDy=0;" edge="1" parent="1" source="zF4Q_hd38RbBPgWRsxnY-306" target="zF4Q_hd38RbBPgWRsxnY-330">
          <mxGeometry relative="1" as="geometry">
            <mxPoint x="345.01999999999987" y="5720" as="targetPoint" />
            <mxPoint x="240.01999999999998" y="5590" as="sourcePoint" />
          </mxGeometry>
        </mxCell>
        <mxCell id="zF4Q_hd38RbBPgWRsxnY-339" style="edgeStyle=orthogonalEdgeStyle;rounded=0;orthogonalLoop=1;jettySize=auto;html=1;exitX=0.5;exitY=1;exitDx=0;exitDy=0;endArrow=blockThin;endFill=1;startArrow=diamondThin;startFill=0;entryX=1;entryY=0.5;entryDx=0;entryDy=0;" edge="1" parent="1" source="zF4Q_hd38RbBPgWRsxnY-322" target="zF4Q_hd38RbBPgWRsxnY-330">
          <mxGeometry relative="1" as="geometry">
            <mxPoint x="422.51999999999987" y="5640" as="targetPoint" />
            <mxPoint x="246.51999999999998" y="5520" as="sourcePoint" />
          </mxGeometry>
        </mxCell>
        <mxCell id="zF4Q_hd38RbBPgWRsxnY-354" style="edgeStyle=orthogonalEdgeStyle;rounded=0;orthogonalLoop=1;jettySize=auto;html=1;exitX=1;exitY=0.5;exitDx=0;exitDy=0;exitPerimeter=0;" edge="1" parent="1" source="zF4Q_hd38RbBPgWRsxnY-302">
          <mxGeometry relative="1" as="geometry">
            <mxPoint x="166.62" y="5460" as="targetPoint" />
            <mxPoint x="100.0999999999998" y="5460" as="sourcePoint" />
          </mxGeometry>
        </mxCell>
        <mxCell id="ViMXkvorcAcRnZs4NSMj-5" value="As surrogate keys são automaticamente criadas no &quot;input data&quot;&lt;br&gt;&lt;br&gt;Cada um dos User Keys que não estão diretamente no dataset, precisam de outra surrogate key que nós assumimos ser criada automaticamente para simplificar os diagramas.&amp;nbsp;&lt;br&gt;&lt;br&gt;As User Keys já presentes no dataset só temos que renomear em Mappings" style="text;html=1;align=center;verticalAlign=middle;whiteSpace=wrap;rounded=0;fontFamily=Helvetica;fontSize=11;fontColor=default;labelBackgroundColor=default;" vertex="1" parent="1">
          <mxGeometry x="1445.88" y="160" width="160" height="120" as="geometry" />
        </mxCell>
        <mxCell id="ViMXkvorcAcRnZs4NSMj-8" value="" style="endArrow=none;dashed=1;html=1;rounded=0;strokeWidth=9;" edge="1" parent="1">
          <mxGeometry width="50" height="50" relative="1" as="geometry">
            <mxPoint x="-800" y="3975" as="sourcePoint" />
            <mxPoint x="2200" y="3970" as="targetPoint" />
          </mxGeometry>
        </mxCell>
        <mxCell id="ViMXkvorcAcRnZs4NSMj-9" value="&lt;font style=&quot;font-size: 33px;&quot;&gt;Dimensoes&lt;/font&gt;" style="text;html=1;align=center;verticalAlign=middle;whiteSpace=wrap;rounded=0;" vertex="1" parent="1">
          <mxGeometry x="-524.3" y="3920" width="60" height="30" as="geometry" />
        </mxCell>
        <mxCell id="ViMXkvorcAcRnZs4NSMj-10" value="&lt;font style=&quot;font-size: 33px;&quot;&gt;Fact Tables&lt;/font&gt;" style="text;html=1;align=center;verticalAlign=middle;whiteSpace=wrap;rounded=0;" vertex="1" parent="1">
          <mxGeometry x="-600" y="4000" width="211.41" height="30" as="geometry" />
        </mxCell>
        <mxCell id="ViMXkvorcAcRnZs4NSMj-13" value="No &quot;retrieve&quot; colocamos o nome da FK da fact table.&lt;br&gt;No &quot;from&quot; colocamos o nome da PK da dimensão que estamos a aceder." style="text;html=1;align=center;verticalAlign=middle;whiteSpace=wrap;rounded=0;fontFamily=Helvetica;fontSize=11;fontColor=default;labelBackgroundColor=default;" vertex="1" parent="1">
          <mxGeometry x="1470" y="4065" width="160" height="120" as="geometry" />
        </mxCell>
        <mxCell id="zF4Q_hd38RbBPgWRsxnY-358" value="&lt;h1 style=&quot;margin-top: 0px;&quot;&gt;Orders&lt;/h1&gt;" style="text;html=1;whiteSpace=wrap;overflow=hidden;rounded=0;" vertex="1" parent="1">
          <mxGeometry x="-253.02" y="6023" width="140" height="55" as="geometry" />
        </mxCell>
        <mxCell id="zF4Q_hd38RbBPgWRsxnY-359" style="edgeStyle=orthogonalEdgeStyle;rounded=0;orthogonalLoop=1;jettySize=auto;html=1;exitX=1;exitY=0.5;exitDx=0;exitDy=0;exitPerimeter=0;entryX=0;entryY=0.5;entryDx=0;entryDy=0;" edge="1" parent="1" source="zF4Q_hd38RbBPgWRsxnY-360" target="zF4Q_hd38RbBPgWRsxnY-364">
          <mxGeometry relative="1" as="geometry" />
        </mxCell>
        <mxCell id="zF4Q_hd38RbBPgWRsxnY-360" value="Input Data" style="points=[[0.25,0,0],[0.5,0,0],[0.75,0,0],[1,0.25,0],[1,0.5,0],[1,0.75,0],[0.75,1,0],[0.5,1,0],[0.25,1,0],[0,0.75,0],[0,0.5,0],[0,0.25,0]];shape=mxgraph.bpmn.task2;whiteSpace=wrap;rectStyle=rounded;size=10;html=1;container=1;expand=0;collapsible=0;taskMarker=abstract;fontFamily=Helvetica;fontSize=11;fontColor=default;labelBackgroundColor=default;" vertex="1" parent="1">
          <mxGeometry x="5.160000000000025" y="6020" width="120" height="80" as="geometry" />
        </mxCell>
        <mxCell id="zF4Q_hd38RbBPgWRsxnY-361" value="" style="html=1;shape=mxgraph.flowchart.annotation_2;align=left;labelPosition=right;fontFamily=Helvetica;fontSize=11;fontColor=default;labelBackgroundColor=default;direction=south;" vertex="1" parent="1">
          <mxGeometry x="-10" y="6100" width="142.5" height="35" as="geometry" />
        </mxCell>
        <mxCell id="zF4Q_hd38RbBPgWRsxnY-362" value="" style="shape=partialRectangle;whiteSpace=wrap;html=1;bottom=1;right=1;left=1;top=0;fillColor=none;routingCenterX=-0.5;" vertex="1" parent="1">
          <mxGeometry x="-10" y="6165" width="142.5" height="20" as="geometry" />
        </mxCell>
        <mxCell id="zF4Q_hd38RbBPgWRsxnY-363" value="&lt;b&gt;File:&lt;/b&gt; Super-Store.xls&lt;div&gt;&lt;b&gt;Type: &lt;/b&gt;Excel&lt;br&gt;&lt;b&gt;SQL Query:&lt;/b&gt;&lt;/div&gt;" style="text;html=1;align=left;verticalAlign=middle;whiteSpace=wrap;rounded=0;fontFamily=Helvetica;fontSize=11;fontColor=default;labelBackgroundColor=default;" vertex="1" parent="1">
          <mxGeometry x="-3.75" y="6135" width="130" height="30" as="geometry" />
        </mxCell>
        <mxCell id="zF4Q_hd38RbBPgWRsxnY-364" value="Lookup" style="rounded=1;whiteSpace=wrap;html=1;" vertex="1" parent="1">
          <mxGeometry x="260.02" y="6030" width="120" height="60" as="geometry" />
        </mxCell>
        <mxCell id="zF4Q_hd38RbBPgWRsxnY-365" value="" style="html=1;shape=mxgraph.flowchart.annotation_2;align=left;labelPosition=right;direction=north;" vertex="1" parent="1">
          <mxGeometry x="242.5" y="5980" width="207.5" height="50" as="geometry" />
        </mxCell>
        <mxCell id="zF4Q_hd38RbBPgWRsxnY-366" value="" style="shape=partialRectangle;whiteSpace=wrap;html=1;bottom=1;right=1;left=1;top=0;fillColor=none;routingCenterX=-0.5;direction=west;" vertex="1" parent="1">
          <mxGeometry x="242.5" y="5930" width="207.5" height="30" as="geometry" />
        </mxCell>
        <mxCell id="zF4Q_hd38RbBPgWRsxnY-367" value="&lt;b&gt;Retrieve:&lt;/b&gt;&amp;nbsp;customer_id&lt;br&gt;&lt;b&gt;From:&lt;/b&gt;&amp;nbsp;Customer.customer_id&lt;div&gt;&lt;b style=&quot;background-color: transparent; color: light-dark(rgb(0, 0, 0), rgb(255, 255, 255));&quot;&gt;Where:&lt;/b&gt;&lt;span style=&quot;background-color: transparent; color: light-dark(rgb(0, 0, 0), rgb(255, 255, 255));&quot;&gt;&amp;nbsp;Customer&lt;/span&gt;&lt;div&gt;&lt;b&gt;Matches:&lt;/b&gt;&amp;nbsp;Customer.customer_code&lt;/div&gt;&lt;/div&gt;" style="text;html=1;align=left;verticalAlign=middle;resizable=0;points=[];autosize=1;strokeColor=none;fillColor=none;rotation=0;" vertex="1" parent="1">
          <mxGeometry x="250.49999999999997" y="5930" width="220" height="70" as="geometry" />
        </mxCell>
        <mxCell id="zF4Q_hd38RbBPgWRsxnY-368" value="Insert Data" style="rounded=1;whiteSpace=wrap;html=1;" vertex="1" parent="1">
          <mxGeometry x="1289.88" y="6147.5" width="120" height="60" as="geometry" />
        </mxCell>
        <mxCell id="zF4Q_hd38RbBPgWRsxnY-369" value="" style="html=1;shape=mxgraph.flowchart.annotation_2;align=left;labelPosition=right;fontFamily=Helvetica;fontSize=11;fontColor=default;labelBackgroundColor=default;direction=south;" vertex="1" parent="1">
          <mxGeometry x="1273.13" y="6207.5" width="156.23" height="30" as="geometry" />
        </mxCell>
        <mxCell id="zF4Q_hd38RbBPgWRsxnY-370" value="" style="shape=partialRectangle;whiteSpace=wrap;html=1;bottom=1;right=1;left=1;top=0;fillColor=none;routingCenterX=-0.5;" vertex="1" parent="1">
          <mxGeometry x="1273.13" y="6250" width="156.23" height="25" as="geometry" />
        </mxCell>
        <mxCell id="zF4Q_hd38RbBPgWRsxnY-371" value="&lt;b&gt;DataBase:&lt;/b&gt; SuperStoreDW&lt;br&gt;&lt;b&gt;Table:&lt;/b&gt;&amp;nbsp;Order&lt;div&gt;&lt;br&gt;&lt;/div&gt;" style="text;html=1;align=left;verticalAlign=middle;whiteSpace=wrap;rounded=0;fontFamily=Helvetica;fontSize=11;fontColor=default;labelBackgroundColor=default;" vertex="1" parent="1">
          <mxGeometry x="1281.5900000000001" y="6240" width="200" height="30" as="geometry" />
        </mxCell>
        <mxCell id="zF4Q_hd38RbBPgWRsxnY-372" value="" style="edgeStyle=elbowEdgeStyle;fontSize=12;html=1;endArrow=blockThin;endFill=1;startArrow=diamondThin;startFill=0;endSize=6;startSize=10;rounded=0;exitX=1;exitY=0.5;exitDx=0;exitDy=0;entryX=0;entryY=0.5;entryDx=0;entryDy=0;" edge="1" parent="1" target="zF4Q_hd38RbBPgWRsxnY-379">
          <mxGeometry width="160" relative="1" as="geometry">
            <mxPoint x="379.23" y="6060" as="sourcePoint" />
            <mxPoint x="489.23" y="6060" as="targetPoint" />
          </mxGeometry>
        </mxCell>
        <mxCell id="zF4Q_hd38RbBPgWRsxnY-373" value="Found" style="text;html=1;align=center;verticalAlign=middle;whiteSpace=wrap;rounded=0;" vertex="1" parent="1">
          <mxGeometry x="389.23" y="6030" width="60" height="30" as="geometry" />
        </mxCell>
        <mxCell id="zF4Q_hd38RbBPgWRsxnY-374" value="Insert Data" style="rounded=1;whiteSpace=wrap;html=1;" vertex="1" parent="1">
          <mxGeometry x="501.49" y="6270" width="120" height="60" as="geometry" />
        </mxCell>
        <mxCell id="zF4Q_hd38RbBPgWRsxnY-375" value="Not Found" style="text;html=1;align=center;verticalAlign=middle;whiteSpace=wrap;rounded=0;" vertex="1" parent="1">
          <mxGeometry x="325.75" y="6095" width="60" height="30" as="geometry" />
        </mxCell>
        <mxCell id="zF4Q_hd38RbBPgWRsxnY-376" value="" style="html=1;shape=mxgraph.flowchart.annotation_2;align=left;labelPosition=right;fontFamily=Helvetica;fontSize=11;fontColor=default;labelBackgroundColor=default;direction=south;" vertex="1" parent="1">
          <mxGeometry x="480.37" y="6330" width="156.23" height="40" as="geometry" />
        </mxCell>
        <mxCell id="zF4Q_hd38RbBPgWRsxnY-377" value="" style="shape=partialRectangle;whiteSpace=wrap;html=1;bottom=1;right=1;left=1;top=0;fillColor=none;routingCenterX=-0.5;" vertex="1" parent="1">
          <mxGeometry x="480.37" y="6380" width="156.23" height="20" as="geometry" />
        </mxCell>
        <mxCell id="zF4Q_hd38RbBPgWRsxnY-378" value="&lt;b&gt;File: &lt;/b&gt;Errors.txt&lt;br&gt;&lt;b&gt;Type:&lt;/b&gt; Text" style="text;html=1;align=left;verticalAlign=middle;whiteSpace=wrap;rounded=0;" vertex="1" parent="1">
          <mxGeometry x="487" y="6360" width="163" height="30" as="geometry" />
        </mxCell>
        <mxCell id="zF4Q_hd38RbBPgWRsxnY-379" value="Lookup" style="rounded=1;whiteSpace=wrap;html=1;" vertex="1" parent="1">
          <mxGeometry x="518.75" y="6030" width="120" height="60" as="geometry" />
        </mxCell>
        <mxCell id="ViMXkvorcAcRnZs4NSMj-17" style="edgeStyle=orthogonalEdgeStyle;rounded=0;orthogonalLoop=1;jettySize=auto;html=1;exitX=1;exitY=0.5;exitDx=0;exitDy=0;entryX=0;entryY=0.5;entryDx=0;entryDy=0;endArrow=blockThin;endFill=1;startArrow=diamondThin;startFill=0;" edge="1" parent="1" source="zF4Q_hd38RbBPgWRsxnY-380" target="ViMXkvorcAcRnZs4NSMj-14">
          <mxGeometry relative="1" as="geometry" />
        </mxCell>
        <mxCell id="zF4Q_hd38RbBPgWRsxnY-380" value="Lookup" style="rounded=1;whiteSpace=wrap;html=1;" vertex="1" parent="1">
          <mxGeometry x="776.11" y="6030" width="120" height="60" as="geometry" />
        </mxCell>
        <mxCell id="zF4Q_hd38RbBPgWRsxnY-381" value="Found" style="text;html=1;align=center;verticalAlign=middle;whiteSpace=wrap;rounded=0;" vertex="1" parent="1">
          <mxGeometry x="646.23" y="6030" width="60" height="30" as="geometry" />
        </mxCell>
        <mxCell id="zF4Q_hd38RbBPgWRsxnY-382" value="Found" style="text;html=1;align=center;verticalAlign=middle;whiteSpace=wrap;rounded=0;" vertex="1" parent="1">
          <mxGeometry x="1308.13" y="6032.5" width="60" height="30" as="geometry" />
        </mxCell>
        <mxCell id="zF4Q_hd38RbBPgWRsxnY-383" value="" style="shape=partialRectangle;whiteSpace=wrap;html=1;bottom=1;right=1;left=1;top=0;fillColor=none;routingCenterX=-0.5;direction=west;" vertex="1" parent="1">
          <mxGeometry x="497.37" y="5930" width="200.23" height="30" as="geometry" />
        </mxCell>
        <mxCell id="zF4Q_hd38RbBPgWRsxnY-384" value="&lt;b&gt;Retrieve:&lt;/b&gt;&amp;nbsp;order_calendar_id&lt;div&gt;&lt;b&gt;From:&lt;/b&gt;&amp;nbsp;Calendar.calendar_id&lt;div&gt;&lt;b&gt;Where:&lt;/b&gt;&amp;nbsp;OrderDate&lt;/div&gt;&lt;div&gt;&lt;b&gt;Matches:&lt;/b&gt;&amp;nbsp;Calendar.full_date&lt;/div&gt;&lt;/div&gt;" style="text;html=1;align=left;verticalAlign=middle;resizable=0;points=[];autosize=1;strokeColor=none;fillColor=none;rotation=0;" vertex="1" parent="1">
          <mxGeometry x="504.23" y="5930" width="180" height="70" as="geometry" />
        </mxCell>
        <mxCell id="zF4Q_hd38RbBPgWRsxnY-385" value="" style="shape=partialRectangle;whiteSpace=wrap;html=1;bottom=1;right=1;left=1;top=0;fillColor=none;routingCenterX=-0.5;direction=west;" vertex="1" parent="1">
          <mxGeometry x="757.6" y="5930" width="180" height="30" as="geometry" />
        </mxCell>
        <mxCell id="zF4Q_hd38RbBPgWRsxnY-386" value="&lt;b&gt;Retrieve:&lt;/b&gt;&amp;nbsp;shipping_calendar_id&lt;br&gt;&lt;b&gt;From: &lt;/b&gt;Calendar.calendar_id&lt;div&gt;&lt;b&gt;Where:&lt;/b&gt;&amp;nbsp;Ship Date&lt;/div&gt;&lt;div&gt;&lt;b&gt;Matches:&lt;/b&gt;&amp;nbsp;Calendar.full_date&lt;/div&gt;" style="text;html=1;align=left;verticalAlign=middle;resizable=0;points=[];autosize=1;strokeColor=none;fillColor=none;rotation=0;" vertex="1" parent="1">
          <mxGeometry x="764.23" y="5930" width="190" height="70" as="geometry" />
        </mxCell>
        <mxCell id="zF4Q_hd38RbBPgWRsxnY-387" style="edgeStyle=orthogonalEdgeStyle;rounded=0;orthogonalLoop=1;jettySize=auto;html=1;exitX=0.5;exitY=1;exitDx=0;exitDy=0;entryX=0.5;entryY=0;entryDx=0;entryDy=0;" edge="1" parent="1" source="zF4Q_hd38RbBPgWRsxnY-388" target="zF4Q_hd38RbBPgWRsxnY-374">
          <mxGeometry relative="1" as="geometry" />
        </mxCell>
        <mxCell id="zF4Q_hd38RbBPgWRsxnY-388" value="Union" style="rounded=1;whiteSpace=wrap;html=1;" vertex="1" parent="1">
          <mxGeometry x="495.37" y="6180" width="120" height="60" as="geometry" />
        </mxCell>
        <mxCell id="zF4Q_hd38RbBPgWRsxnY-389" value="Not Found" style="text;html=1;align=center;verticalAlign=middle;whiteSpace=wrap;rounded=0;" vertex="1" parent="1">
          <mxGeometry x="516.23" y="6100" width="60" height="30" as="geometry" />
        </mxCell>
        <mxCell id="zF4Q_hd38RbBPgWRsxnY-390" value="Not Found" style="text;html=1;align=center;verticalAlign=middle;whiteSpace=wrap;rounded=0;" vertex="1" parent="1">
          <mxGeometry x="770.37" y="6105" width="60" height="30" as="geometry" />
        </mxCell>
        <mxCell id="zF4Q_hd38RbBPgWRsxnY-391" value="" style="html=1;shape=mxgraph.flowchart.annotation_2;align=left;labelPosition=right;direction=north;" vertex="1" parent="1">
          <mxGeometry x="497.37" y="5980" width="200.23" height="50" as="geometry" />
        </mxCell>
        <mxCell id="zF4Q_hd38RbBPgWRsxnY-392" value="" style="html=1;shape=mxgraph.flowchart.annotation_2;align=left;labelPosition=right;direction=north;" vertex="1" parent="1">
          <mxGeometry x="756.36" y="5980" width="181.24" height="50" as="geometry" />
        </mxCell>
        <mxCell id="zF4Q_hd38RbBPgWRsxnY-393" value="" style="edgeStyle=elbowEdgeStyle;fontSize=12;html=1;endArrow=blockThin;endFill=1;startArrow=diamondThin;startFill=0;endSize=6;startSize=10;rounded=0;exitX=1;exitY=0.5;exitDx=0;exitDy=0;entryX=0;entryY=0.5;entryDx=0;entryDy=0;" edge="1" parent="1" source="zF4Q_hd38RbBPgWRsxnY-379">
          <mxGeometry width="160" relative="1" as="geometry">
            <mxPoint x="636.59" y="6060" as="sourcePoint" />
            <mxPoint x="776.11" y="6060" as="targetPoint" />
          </mxGeometry>
        </mxCell>
        <mxCell id="zF4Q_hd38RbBPgWRsxnY-394" value="" style="edgeStyle=elbowEdgeStyle;fontSize=12;html=1;endArrow=blockThin;endFill=1;startArrow=diamondThin;startFill=0;endSize=6;startSize=10;rounded=0;exitX=1;exitY=0.5;exitDx=0;exitDy=0;entryX=0.5;entryY=0;entryDx=0;entryDy=0;" edge="1" parent="1" target="zF4Q_hd38RbBPgWRsxnY-368">
          <mxGeometry width="160" relative="1" as="geometry">
            <mxPoint x="1300.4900000000002" y="6062.5" as="sourcePoint" />
            <mxPoint x="1468.6100000000001" y="6082.5" as="targetPoint" />
            <Array as="points">
              <mxPoint x="1350.13" y="6062.5" />
            </Array>
          </mxGeometry>
        </mxCell>
        <mxCell id="zF4Q_hd38RbBPgWRsxnY-395" style="edgeStyle=orthogonalEdgeStyle;rounded=0;orthogonalLoop=1;jettySize=auto;html=1;exitX=0.5;exitY=1;exitDx=0;exitDy=0;endArrow=blockThin;endFill=1;startArrow=diamondThin;startFill=0;entryX=0;entryY=0.5;entryDx=0;entryDy=0;" edge="1" parent="1" source="zF4Q_hd38RbBPgWRsxnY-364" target="zF4Q_hd38RbBPgWRsxnY-388">
          <mxGeometry relative="1" as="geometry">
            <mxPoint x="438.25" y="6310" as="targetPoint" />
            <mxPoint x="333.25" y="6180" as="sourcePoint" />
          </mxGeometry>
        </mxCell>
        <mxCell id="zF4Q_hd38RbBPgWRsxnY-396" style="edgeStyle=orthogonalEdgeStyle;rounded=0;orthogonalLoop=1;jettySize=auto;html=1;exitX=0.5;exitY=1;exitDx=0;exitDy=0;endArrow=blockThin;endFill=1;startArrow=diamondThin;startFill=0;entryX=0.5;entryY=0;entryDx=0;entryDy=0;" edge="1" parent="1" source="zF4Q_hd38RbBPgWRsxnY-379" target="zF4Q_hd38RbBPgWRsxnY-388">
          <mxGeometry relative="1" as="geometry">
            <mxPoint x="505.75" y="6220" as="targetPoint" />
            <mxPoint x="329.75" y="6100" as="sourcePoint" />
            <Array as="points">
              <mxPoint x="578.75" y="6135" />
              <mxPoint x="555.75" y="6135" />
            </Array>
          </mxGeometry>
        </mxCell>
        <mxCell id="zF4Q_hd38RbBPgWRsxnY-397" style="edgeStyle=orthogonalEdgeStyle;rounded=0;orthogonalLoop=1;jettySize=auto;html=1;exitX=0.5;exitY=1;exitDx=0;exitDy=0;endArrow=blockThin;endFill=1;startArrow=diamondThin;startFill=0;entryX=1;entryY=0.25;entryDx=0;entryDy=0;" edge="1" parent="1" source="zF4Q_hd38RbBPgWRsxnY-380" target="zF4Q_hd38RbBPgWRsxnY-388">
          <mxGeometry relative="1" as="geometry">
            <mxPoint x="515.75" y="6230" as="targetPoint" />
            <mxPoint x="339.75" y="6110" as="sourcePoint" />
          </mxGeometry>
        </mxCell>
        <mxCell id="ViMXkvorcAcRnZs4NSMj-16" style="edgeStyle=orthogonalEdgeStyle;rounded=0;orthogonalLoop=1;jettySize=auto;html=1;exitX=1;exitY=0.5;exitDx=0;exitDy=0;entryX=0;entryY=0.5;entryDx=0;entryDy=0;endArrow=blockThin;endFill=1;startArrow=diamondThin;startFill=0;" edge="1" parent="1" source="ViMXkvorcAcRnZs4NSMj-14" target="ViMXkvorcAcRnZs4NSMj-15">
          <mxGeometry relative="1" as="geometry" />
        </mxCell>
        <mxCell id="ViMXkvorcAcRnZs4NSMj-20" style="edgeStyle=orthogonalEdgeStyle;rounded=0;orthogonalLoop=1;jettySize=auto;html=1;exitX=0.5;exitY=1;exitDx=0;exitDy=0;entryX=1;entryY=0.5;entryDx=0;entryDy=0;endArrow=blockThin;endFill=1;startArrow=diamondThin;startFill=0;" edge="1" parent="1" source="ViMXkvorcAcRnZs4NSMj-14" target="zF4Q_hd38RbBPgWRsxnY-388">
          <mxGeometry relative="1" as="geometry" />
        </mxCell>
        <mxCell id="ViMXkvorcAcRnZs4NSMj-14" value="Lookup" style="rounded=1;whiteSpace=wrap;html=1;" vertex="1" parent="1">
          <mxGeometry x="981.5" y="6030" width="120" height="60" as="geometry" />
        </mxCell>
        <mxCell id="ViMXkvorcAcRnZs4NSMj-21" style="edgeStyle=orthogonalEdgeStyle;rounded=0;orthogonalLoop=1;jettySize=auto;html=1;exitX=0.5;exitY=1;exitDx=0;exitDy=0;entryX=1;entryY=0.75;entryDx=0;entryDy=0;endArrow=blockThin;endFill=1;startArrow=diamondThin;startFill=0;" edge="1" parent="1" source="ViMXkvorcAcRnZs4NSMj-15" target="zF4Q_hd38RbBPgWRsxnY-388">
          <mxGeometry relative="1" as="geometry" />
        </mxCell>
        <mxCell id="ViMXkvorcAcRnZs4NSMj-15" value="Lookup" style="rounded=1;whiteSpace=wrap;html=1;" vertex="1" parent="1">
          <mxGeometry x="1180" y="6030" width="120" height="60" as="geometry" />
        </mxCell>
        <mxCell id="ViMXkvorcAcRnZs4NSMj-18" value="Found" style="text;html=1;align=center;verticalAlign=middle;whiteSpace=wrap;rounded=0;" vertex="1" parent="1">
          <mxGeometry x="891.96" y="6030" width="60" height="30" as="geometry" />
        </mxCell>
        <mxCell id="ViMXkvorcAcRnZs4NSMj-19" value="Found" style="text;html=1;align=center;verticalAlign=middle;whiteSpace=wrap;rounded=0;" vertex="1" parent="1">
          <mxGeometry x="1102.26" y="6030" width="60" height="30" as="geometry" />
        </mxCell>
        <mxCell id="ViMXkvorcAcRnZs4NSMj-22" value="Not Found" style="text;html=1;align=center;verticalAlign=middle;whiteSpace=wrap;rounded=0;" vertex="1" parent="1">
          <mxGeometry x="976.15" y="6102.5" width="60" height="30" as="geometry" />
        </mxCell>
        <mxCell id="ViMXkvorcAcRnZs4NSMj-23" value="Not Found" style="text;html=1;align=center;verticalAlign=middle;whiteSpace=wrap;rounded=0;" vertex="1" parent="1">
          <mxGeometry x="1170" y="6102.5" width="60" height="30" as="geometry" />
        </mxCell>
        <mxCell id="ViMXkvorcAcRnZs4NSMj-24" value="" style="shape=partialRectangle;whiteSpace=wrap;html=1;bottom=1;right=1;left=1;top=0;fillColor=none;routingCenterX=-0.5;direction=west;" vertex="1" parent="1">
          <mxGeometry x="965.85" y="5930" width="194.15" height="30" as="geometry" />
        </mxCell>
        <mxCell id="ViMXkvorcAcRnZs4NSMj-25" value="&lt;b&gt;Retrieve:&lt;/b&gt;&amp;nbsp;location_id&lt;br&gt;&lt;b&gt;From:&lt;/b&gt;&amp;nbsp;Location.location_id&lt;div&gt;&lt;b&gt;Where:&lt;/b&gt;&amp;nbsp;Location&lt;/div&gt;&lt;div&gt;&lt;b&gt;Matches:&lt;/b&gt;&amp;nbsp;Location.location_code&lt;/div&gt;" style="text;html=1;align=left;verticalAlign=middle;resizable=0;points=[];autosize=1;strokeColor=none;fillColor=none;rotation=0;" vertex="1" parent="1">
          <mxGeometry x="972.48" y="5930" width="200" height="70" as="geometry" />
        </mxCell>
        <mxCell id="ViMXkvorcAcRnZs4NSMj-26" value="" style="html=1;shape=mxgraph.flowchart.annotation_2;align=left;labelPosition=right;direction=north;" vertex="1" parent="1">
          <mxGeometry x="964.61" y="5980" width="195.39" height="50" as="geometry" />
        </mxCell>
        <mxCell id="ViMXkvorcAcRnZs4NSMj-27" value="" style="shape=partialRectangle;whiteSpace=wrap;html=1;bottom=1;right=1;left=1;top=0;fillColor=none;routingCenterX=-0.5;direction=west;" vertex="1" parent="1">
          <mxGeometry x="1181.24" y="5930" width="180" height="30" as="geometry" />
        </mxCell>
        <mxCell id="ViMXkvorcAcRnZs4NSMj-28" value="&lt;b&gt;Retrieve:&lt;/b&gt;&amp;nbsp;shipping_id&lt;br&gt;&lt;b&gt;From:&lt;/b&gt;&amp;nbsp;Shipping.shipping_id&lt;div&gt;&lt;b&gt;Where:&lt;/b&gt;&amp;nbsp;Shipping&lt;/div&gt;&lt;div&gt;&lt;b&gt;Matches:&lt;/b&gt;&amp;nbsp;Shipping.ship_mode&lt;/div&gt;" style="text;html=1;align=left;verticalAlign=middle;resizable=0;points=[];autosize=1;strokeColor=none;fillColor=none;rotation=0;" vertex="1" parent="1">
          <mxGeometry x="1187.87" y="5930" width="190" height="70" as="geometry" />
        </mxCell>
        <mxCell id="ViMXkvorcAcRnZs4NSMj-29" value="" style="html=1;shape=mxgraph.flowchart.annotation_2;align=left;labelPosition=right;direction=north;" vertex="1" parent="1">
          <mxGeometry x="1180" y="5980" width="181.24" height="50" as="geometry" />
        </mxCell>
        <mxCell id="zF4Q_hd38RbBPgWRsxnY-400" value="&lt;h1 style=&quot;margin-top: 0px;&quot;&gt;Item&lt;/h1&gt;" style="text;html=1;whiteSpace=wrap;overflow=hidden;rounded=0;" vertex="1" parent="1">
          <mxGeometry x="-238.61" y="6605" width="140" height="55" as="geometry" />
        </mxCell>
        <mxCell id="zF4Q_hd38RbBPgWRsxnY-401" value="&lt;h1 style=&quot;forced-color-adjust: none; color: rgb(0, 0, 0); font-family: Helvetica; font-style: normal; font-variant-ligatures: normal; font-variant-caps: normal; letter-spacing: normal; orphans: 2; text-align: left; text-indent: 0px; text-transform: none; widows: 2; word-spacing: 0px; -webkit-text-stroke-width: 0px; white-space: normal; background-color: rgb(251, 251, 251); text-decoration-thickness: initial; text-decoration-style: initial; text-decoration-color: initial; margin-top: 0px;&quot;&gt;ProductPerformance&lt;/h1&gt;" style="text;whiteSpace=wrap;html=1;" vertex="1" parent="1">
          <mxGeometry x="-270" y="7200" width="80" height="70" as="geometry" />
        </mxCell>
        <mxCell id="zF4Q_hd38RbBPgWRsxnY-402" style="edgeStyle=orthogonalEdgeStyle;rounded=0;orthogonalLoop=1;jettySize=auto;html=1;exitX=1;exitY=0.5;exitDx=0;exitDy=0;exitPerimeter=0;entryX=0;entryY=0.5;entryDx=0;entryDy=0;" edge="1" parent="1" source="zF4Q_hd38RbBPgWRsxnY-403" target="zF4Q_hd38RbBPgWRsxnY-407">
          <mxGeometry relative="1" as="geometry" />
        </mxCell>
        <mxCell id="zF4Q_hd38RbBPgWRsxnY-403" value="Input Data" style="points=[[0.25,0,0],[0.5,0,0],[0.75,0,0],[1,0.25,0],[1,0.5,0],[1,0.75,0],[0.75,1,0],[0.5,1,0],[0.25,1,0],[0,0.75,0],[0,0.5,0],[0,0.25,0]];shape=mxgraph.bpmn.task2;whiteSpace=wrap;rectStyle=rounded;size=10;html=1;container=1;expand=0;collapsible=0;taskMarker=abstract;fontFamily=Helvetica;fontSize=11;fontColor=default;labelBackgroundColor=default;" vertex="1" parent="1">
          <mxGeometry x="45.660000000000025" y="6590" width="120" height="80" as="geometry" />
        </mxCell>
        <mxCell id="zF4Q_hd38RbBPgWRsxnY-404" value="" style="html=1;shape=mxgraph.flowchart.annotation_2;align=left;labelPosition=right;fontFamily=Helvetica;fontSize=11;fontColor=default;labelBackgroundColor=default;direction=south;" vertex="1" parent="1">
          <mxGeometry x="30.5" y="6670" width="142.5" height="35" as="geometry" />
        </mxCell>
        <mxCell id="zF4Q_hd38RbBPgWRsxnY-405" value="" style="shape=partialRectangle;whiteSpace=wrap;html=1;bottom=1;right=1;left=1;top=0;fillColor=none;routingCenterX=-0.5;" vertex="1" parent="1">
          <mxGeometry x="30.5" y="6735" width="142.5" height="20" as="geometry" />
        </mxCell>
        <mxCell id="zF4Q_hd38RbBPgWRsxnY-406" value="&lt;b&gt;File:&lt;/b&gt; Super-Store.xls&lt;div&gt;&lt;b&gt;Type: &lt;/b&gt;Excel&lt;br&gt;&lt;b&gt;SQL Query:&lt;/b&gt;&lt;/div&gt;" style="text;html=1;align=left;verticalAlign=middle;whiteSpace=wrap;rounded=0;fontFamily=Helvetica;fontSize=11;fontColor=default;labelBackgroundColor=default;" vertex="1" parent="1">
          <mxGeometry x="36.75" y="6705" width="130" height="30" as="geometry" />
        </mxCell>
        <mxCell id="zF4Q_hd38RbBPgWRsxnY-407" value="Lookup" style="rounded=1;whiteSpace=wrap;html=1;" vertex="1" parent="1">
          <mxGeometry x="300.52" y="6600" width="120" height="60" as="geometry" />
        </mxCell>
        <mxCell id="zF4Q_hd38RbBPgWRsxnY-408" value="" style="html=1;shape=mxgraph.flowchart.annotation_2;align=left;labelPosition=right;direction=north;" vertex="1" parent="1">
          <mxGeometry x="283" y="6550" width="207.5" height="50" as="geometry" />
        </mxCell>
        <mxCell id="zF4Q_hd38RbBPgWRsxnY-409" value="" style="shape=partialRectangle;whiteSpace=wrap;html=1;bottom=1;right=1;left=1;top=0;fillColor=none;routingCenterX=-0.5;direction=west;" vertex="1" parent="1">
          <mxGeometry x="283" y="6500" width="207.5" height="30" as="geometry" />
        </mxCell>
        <mxCell id="zF4Q_hd38RbBPgWRsxnY-410" value="&lt;b&gt;Retrieve:&lt;/b&gt;&amp;nbsp;customer_id&lt;br&gt;&lt;b&gt;From:&lt;/b&gt;&amp;nbsp;Customer.customer_id&lt;div&gt;&lt;b style=&quot;background-color: transparent; color: light-dark(rgb(0, 0, 0), rgb(255, 255, 255));&quot;&gt;Where:&lt;/b&gt;&lt;span style=&quot;background-color: transparent; color: light-dark(rgb(0, 0, 0), rgb(255, 255, 255));&quot;&gt;&amp;nbsp;Customer&lt;/span&gt;&lt;div&gt;&lt;b&gt;Matches:&lt;/b&gt;&amp;nbsp;Customer.customer_code&lt;/div&gt;&lt;/div&gt;" style="text;html=1;align=left;verticalAlign=middle;resizable=0;points=[];autosize=1;strokeColor=none;fillColor=none;rotation=0;" vertex="1" parent="1">
          <mxGeometry x="291" y="6500" width="220" height="70" as="geometry" />
        </mxCell>
        <mxCell id="zF4Q_hd38RbBPgWRsxnY-411" value="Insert Data" style="rounded=1;whiteSpace=wrap;html=1;" vertex="1" parent="1">
          <mxGeometry x="1142.1000000000001" y="6717.5" width="120" height="60" as="geometry" />
        </mxCell>
        <mxCell id="zF4Q_hd38RbBPgWRsxnY-412" value="" style="html=1;shape=mxgraph.flowchart.annotation_2;align=left;labelPosition=right;fontFamily=Helvetica;fontSize=11;fontColor=default;labelBackgroundColor=default;direction=south;" vertex="1" parent="1">
          <mxGeometry x="1125.3500000000001" y="6777.5" width="156.23" height="30" as="geometry" />
        </mxCell>
        <mxCell id="zF4Q_hd38RbBPgWRsxnY-413" value="" style="shape=partialRectangle;whiteSpace=wrap;html=1;bottom=1;right=1;left=1;top=0;fillColor=none;routingCenterX=-0.5;" vertex="1" parent="1">
          <mxGeometry x="1125.4900000000002" y="6830" width="156.23" height="25" as="geometry" />
        </mxCell>
        <mxCell id="zF4Q_hd38RbBPgWRsxnY-414" value="&lt;b&gt;DataBase:&lt;/b&gt; SuperStoreDW&lt;br&gt;&lt;b&gt;Table:&lt;/b&gt;&amp;nbsp;Item&lt;div&gt;&lt;br&gt;&lt;/div&gt;" style="text;html=1;align=left;verticalAlign=middle;whiteSpace=wrap;rounded=0;fontFamily=Helvetica;fontSize=11;fontColor=default;labelBackgroundColor=default;" vertex="1" parent="1">
          <mxGeometry x="1129.8300000000002" y="6810" width="200" height="30" as="geometry" />
        </mxCell>
        <mxCell id="zF4Q_hd38RbBPgWRsxnY-415" value="" style="edgeStyle=elbowEdgeStyle;fontSize=12;html=1;endArrow=blockThin;endFill=1;startArrow=diamondThin;startFill=0;endSize=6;startSize=10;rounded=0;exitX=1;exitY=0.5;exitDx=0;exitDy=0;" edge="1" parent="1">
          <mxGeometry width="160" relative="1" as="geometry">
            <mxPoint x="419.73" y="6630" as="sourcePoint" />
            <mxPoint x="810" y="6630" as="targetPoint" />
          </mxGeometry>
        </mxCell>
        <mxCell id="zF4Q_hd38RbBPgWRsxnY-416" value="Found" style="text;html=1;align=center;verticalAlign=middle;whiteSpace=wrap;rounded=0;" vertex="1" parent="1">
          <mxGeometry x="429.73" y="6600" width="60" height="30" as="geometry" />
        </mxCell>
        <mxCell id="zF4Q_hd38RbBPgWRsxnY-417" value="Insert Data" style="rounded=1;whiteSpace=wrap;html=1;" vertex="1" parent="1">
          <mxGeometry x="541.99" y="6840" width="120" height="60" as="geometry" />
        </mxCell>
        <mxCell id="zF4Q_hd38RbBPgWRsxnY-418" value="Not Found" style="text;html=1;align=center;verticalAlign=middle;whiteSpace=wrap;rounded=0;" vertex="1" parent="1">
          <mxGeometry x="366.25" y="6665" width="60" height="30" as="geometry" />
        </mxCell>
        <mxCell id="zF4Q_hd38RbBPgWRsxnY-419" value="" style="html=1;shape=mxgraph.flowchart.annotation_2;align=left;labelPosition=right;fontFamily=Helvetica;fontSize=11;fontColor=default;labelBackgroundColor=default;direction=south;" vertex="1" parent="1">
          <mxGeometry x="520.87" y="6900" width="156.23" height="40" as="geometry" />
        </mxCell>
        <mxCell id="zF4Q_hd38RbBPgWRsxnY-420" value="" style="shape=partialRectangle;whiteSpace=wrap;html=1;bottom=1;right=1;left=1;top=0;fillColor=none;routingCenterX=-0.5;" vertex="1" parent="1">
          <mxGeometry x="520.87" y="6950" width="156.23" height="20" as="geometry" />
        </mxCell>
        <mxCell id="zF4Q_hd38RbBPgWRsxnY-421" value="&lt;b&gt;File: &lt;/b&gt;Errors.txt&lt;br&gt;&lt;b&gt;Type:&lt;/b&gt; Text" style="text;html=1;align=left;verticalAlign=middle;whiteSpace=wrap;rounded=0;" vertex="1" parent="1">
          <mxGeometry x="527.5" y="6930" width="160" height="30" as="geometry" />
        </mxCell>
        <mxCell id="zF4Q_hd38RbBPgWRsxnY-423" style="edgeStyle=orthogonalEdgeStyle;rounded=0;orthogonalLoop=1;jettySize=auto;html=1;exitX=1;exitY=0.5;exitDx=0;exitDy=0;entryX=0;entryY=0.5;entryDx=0;entryDy=0;endArrow=blockThin;endFill=1;startArrow=diamondThin;startFill=0;" edge="1" parent="1" source="zF4Q_hd38RbBPgWRsxnY-424" target="zF4Q_hd38RbBPgWRsxnY-444">
          <mxGeometry relative="1" as="geometry" />
        </mxCell>
        <mxCell id="zF4Q_hd38RbBPgWRsxnY-424" value="Lookup" style="rounded=1;whiteSpace=wrap;html=1;" vertex="1" parent="1">
          <mxGeometry x="628.26" y="6600" width="120" height="60" as="geometry" />
        </mxCell>
        <mxCell id="zF4Q_hd38RbBPgWRsxnY-426" value="Found" style="text;html=1;align=center;verticalAlign=middle;whiteSpace=wrap;rounded=0;" vertex="1" parent="1">
          <mxGeometry x="1160.2800000000002" y="6602.5" width="60" height="30" as="geometry" />
        </mxCell>
        <mxCell id="zF4Q_hd38RbBPgWRsxnY-429" value="" style="shape=partialRectangle;whiteSpace=wrap;html=1;bottom=1;right=1;left=1;top=0;fillColor=none;routingCenterX=-0.5;direction=west;" vertex="1" parent="1">
          <mxGeometry x="609.75" y="6500" width="180" height="30" as="geometry" />
        </mxCell>
        <mxCell id="zF4Q_hd38RbBPgWRsxnY-430" value="&lt;b&gt;Retrieve:&lt;/b&gt;&amp;nbsp;calendar_id&lt;br&gt;&lt;b&gt;From: &lt;/b&gt;Calendar.calendar_id&lt;div&gt;&lt;b&gt;Where:&lt;/b&gt;&amp;nbsp;Calendar&lt;/div&gt;&lt;div&gt;&lt;b&gt;Matches:&lt;/b&gt;&amp;nbsp;Calendar.full_date&lt;/div&gt;" style="text;html=1;align=left;verticalAlign=middle;resizable=0;points=[];autosize=1;strokeColor=none;fillColor=none;rotation=0;" vertex="1" parent="1">
          <mxGeometry x="616.38" y="6500" width="180" height="70" as="geometry" />
        </mxCell>
        <mxCell id="zF4Q_hd38RbBPgWRsxnY-431" style="edgeStyle=orthogonalEdgeStyle;rounded=0;orthogonalLoop=1;jettySize=auto;html=1;exitX=0.5;exitY=1;exitDx=0;exitDy=0;entryX=0.5;entryY=0;entryDx=0;entryDy=0;" edge="1" parent="1" source="zF4Q_hd38RbBPgWRsxnY-432" target="zF4Q_hd38RbBPgWRsxnY-417">
          <mxGeometry relative="1" as="geometry" />
        </mxCell>
        <mxCell id="zF4Q_hd38RbBPgWRsxnY-432" value="Union" style="rounded=1;whiteSpace=wrap;html=1;" vertex="1" parent="1">
          <mxGeometry x="535.87" y="6750" width="120" height="60" as="geometry" />
        </mxCell>
        <mxCell id="zF4Q_hd38RbBPgWRsxnY-434" value="Not Found" style="text;html=1;align=center;verticalAlign=middle;whiteSpace=wrap;rounded=0;" vertex="1" parent="1">
          <mxGeometry x="619.26" y="6672.5" width="60" height="30" as="geometry" />
        </mxCell>
        <mxCell id="zF4Q_hd38RbBPgWRsxnY-436" value="" style="html=1;shape=mxgraph.flowchart.annotation_2;align=left;labelPosition=right;direction=north;" vertex="1" parent="1">
          <mxGeometry x="608.51" y="6550" width="181.24" height="50" as="geometry" />
        </mxCell>
        <mxCell id="zF4Q_hd38RbBPgWRsxnY-438" value="" style="edgeStyle=elbowEdgeStyle;fontSize=12;html=1;endArrow=blockThin;endFill=1;startArrow=diamondThin;startFill=0;endSize=6;startSize=10;rounded=0;exitX=1;exitY=0.5;exitDx=0;exitDy=0;entryX=0.5;entryY=0;entryDx=0;entryDy=0;" edge="1" parent="1" target="zF4Q_hd38RbBPgWRsxnY-411">
          <mxGeometry width="160" relative="1" as="geometry">
            <mxPoint x="1152.7100000000003" y="6632.5" as="sourcePoint" />
            <mxPoint x="1320.8300000000002" y="6652.5" as="targetPoint" />
            <Array as="points">
              <mxPoint x="1202.3500000000001" y="6632.5" />
            </Array>
          </mxGeometry>
        </mxCell>
        <mxCell id="zF4Q_hd38RbBPgWRsxnY-439" style="edgeStyle=orthogonalEdgeStyle;rounded=0;orthogonalLoop=1;jettySize=auto;html=1;exitX=0.5;exitY=1;exitDx=0;exitDy=0;endArrow=blockThin;endFill=1;startArrow=diamondThin;startFill=0;entryX=0;entryY=0.5;entryDx=0;entryDy=0;" edge="1" parent="1" source="zF4Q_hd38RbBPgWRsxnY-407" target="zF4Q_hd38RbBPgWRsxnY-432">
          <mxGeometry relative="1" as="geometry">
            <mxPoint x="478.75" y="6880" as="targetPoint" />
            <mxPoint x="373.75" y="6750" as="sourcePoint" />
          </mxGeometry>
        </mxCell>
        <mxCell id="zF4Q_hd38RbBPgWRsxnY-441" style="edgeStyle=orthogonalEdgeStyle;rounded=0;orthogonalLoop=1;jettySize=auto;html=1;exitX=0.5;exitY=1;exitDx=0;exitDy=0;endArrow=blockThin;endFill=1;startArrow=diamondThin;startFill=0;entryX=1;entryY=0.25;entryDx=0;entryDy=0;" edge="1" parent="1" source="zF4Q_hd38RbBPgWRsxnY-424" target="zF4Q_hd38RbBPgWRsxnY-432">
          <mxGeometry relative="1" as="geometry">
            <mxPoint x="556.25" y="6800" as="targetPoint" />
            <mxPoint x="380.25" y="6680" as="sourcePoint" />
          </mxGeometry>
        </mxCell>
        <mxCell id="zF4Q_hd38RbBPgWRsxnY-442" style="edgeStyle=orthogonalEdgeStyle;rounded=0;orthogonalLoop=1;jettySize=auto;html=1;exitX=1;exitY=0.5;exitDx=0;exitDy=0;entryX=0;entryY=0.5;entryDx=0;entryDy=0;endArrow=blockThin;endFill=1;startArrow=diamondThin;startFill=0;" edge="1" parent="1" source="zF4Q_hd38RbBPgWRsxnY-444" target="zF4Q_hd38RbBPgWRsxnY-446">
          <mxGeometry relative="1" as="geometry" />
        </mxCell>
        <mxCell id="zF4Q_hd38RbBPgWRsxnY-443" style="edgeStyle=orthogonalEdgeStyle;rounded=0;orthogonalLoop=1;jettySize=auto;html=1;exitX=0.5;exitY=1;exitDx=0;exitDy=0;entryX=1;entryY=0.5;entryDx=0;entryDy=0;endArrow=blockThin;endFill=1;startArrow=diamondThin;startFill=0;" edge="1" parent="1" source="zF4Q_hd38RbBPgWRsxnY-444" target="zF4Q_hd38RbBPgWRsxnY-432">
          <mxGeometry relative="1" as="geometry" />
        </mxCell>
        <mxCell id="zF4Q_hd38RbBPgWRsxnY-444" value="Lookup" style="rounded=1;whiteSpace=wrap;html=1;" vertex="1" parent="1">
          <mxGeometry x="833.65" y="6600" width="120" height="60" as="geometry" />
        </mxCell>
        <mxCell id="zF4Q_hd38RbBPgWRsxnY-445" style="edgeStyle=orthogonalEdgeStyle;rounded=0;orthogonalLoop=1;jettySize=auto;html=1;exitX=0.5;exitY=1;exitDx=0;exitDy=0;entryX=1;entryY=0.75;entryDx=0;entryDy=0;endArrow=blockThin;endFill=1;startArrow=diamondThin;startFill=0;" edge="1" parent="1" source="zF4Q_hd38RbBPgWRsxnY-446" target="zF4Q_hd38RbBPgWRsxnY-432">
          <mxGeometry relative="1" as="geometry" />
        </mxCell>
        <mxCell id="zF4Q_hd38RbBPgWRsxnY-446" value="Lookup" style="rounded=1;whiteSpace=wrap;html=1;" vertex="1" parent="1">
          <mxGeometry x="1032.15" y="6600" width="120" height="60" as="geometry" />
        </mxCell>
        <mxCell id="zF4Q_hd38RbBPgWRsxnY-447" value="Found" style="text;html=1;align=center;verticalAlign=middle;whiteSpace=wrap;rounded=0;" vertex="1" parent="1">
          <mxGeometry x="744.11" y="6600" width="60" height="30" as="geometry" />
        </mxCell>
        <mxCell id="zF4Q_hd38RbBPgWRsxnY-448" value="Found" style="text;html=1;align=center;verticalAlign=middle;whiteSpace=wrap;rounded=0;" vertex="1" parent="1">
          <mxGeometry x="954.41" y="6600" width="60" height="30" as="geometry" />
        </mxCell>
        <mxCell id="zF4Q_hd38RbBPgWRsxnY-449" value="Not Found" style="text;html=1;align=center;verticalAlign=middle;whiteSpace=wrap;rounded=0;" vertex="1" parent="1">
          <mxGeometry x="826.12" y="6675" width="60" height="30" as="geometry" />
        </mxCell>
        <mxCell id="zF4Q_hd38RbBPgWRsxnY-450" value="Not Found" style="text;html=1;align=center;verticalAlign=middle;whiteSpace=wrap;rounded=0;" vertex="1" parent="1">
          <mxGeometry x="1022.51" y="6675" width="60" height="30" as="geometry" />
        </mxCell>
        <mxCell id="zF4Q_hd38RbBPgWRsxnY-451" value="" style="shape=partialRectangle;whiteSpace=wrap;html=1;bottom=1;right=1;left=1;top=0;fillColor=none;routingCenterX=-0.5;direction=west;" vertex="1" parent="1">
          <mxGeometry x="818" y="6500" width="193.65" height="30" as="geometry" />
        </mxCell>
        <mxCell id="zF4Q_hd38RbBPgWRsxnY-452" value="&lt;b&gt;Retrieve:&lt;/b&gt;&amp;nbsp;location_id&lt;br&gt;&lt;b&gt;From:&lt;/b&gt;&amp;nbsp;Location.location_id&lt;div&gt;&lt;b&gt;Where:&lt;/b&gt;&amp;nbsp;Location&lt;/div&gt;&lt;div&gt;&lt;b&gt;Matches:&lt;/b&gt;&amp;nbsp;Location.location_code&lt;/div&gt;" style="text;html=1;align=left;verticalAlign=middle;resizable=0;points=[];autosize=1;strokeColor=none;fillColor=none;rotation=0;" vertex="1" parent="1">
          <mxGeometry x="824.63" y="6500" width="200" height="70" as="geometry" />
        </mxCell>
        <mxCell id="zF4Q_hd38RbBPgWRsxnY-453" value="" style="html=1;shape=mxgraph.flowchart.annotation_2;align=left;labelPosition=right;direction=north;" vertex="1" parent="1">
          <mxGeometry x="816.76" y="6550" width="194.89" height="50" as="geometry" />
        </mxCell>
        <mxCell id="zF4Q_hd38RbBPgWRsxnY-454" value="" style="shape=partialRectangle;whiteSpace=wrap;html=1;bottom=1;right=1;left=1;top=0;fillColor=none;routingCenterX=-0.5;direction=west;" vertex="1" parent="1">
          <mxGeometry x="1033.39" y="6500" width="188.26" height="30" as="geometry" />
        </mxCell>
        <mxCell id="zF4Q_hd38RbBPgWRsxnY-455" value="&lt;b&gt;Retrieve:&lt;/b&gt;&amp;nbsp;product_id&lt;br&gt;&lt;b&gt;From:&lt;/b&gt;&amp;nbsp;Product.product_id&lt;div&gt;&lt;b&gt;Where:&lt;/b&gt;&amp;nbsp;Product&lt;/div&gt;&lt;div&gt;&lt;b&gt;Matches:&lt;/b&gt;&amp;nbsp;Product.product_code&lt;/div&gt;" style="text;html=1;align=left;verticalAlign=middle;resizable=0;points=[];autosize=1;strokeColor=none;fillColor=none;rotation=0;" vertex="1" parent="1">
          <mxGeometry x="1040.02" y="6500" width="200" height="70" as="geometry" />
        </mxCell>
        <mxCell id="zF4Q_hd38RbBPgWRsxnY-456" value="" style="html=1;shape=mxgraph.flowchart.annotation_2;align=left;labelPosition=right;direction=north;" vertex="1" parent="1">
          <mxGeometry x="1032.15" y="6550" width="189.5" height="50" as="geometry" />
        </mxCell>
        <mxCell id="zF4Q_hd38RbBPgWRsxnY-457" style="edgeStyle=orthogonalEdgeStyle;rounded=0;orthogonalLoop=1;jettySize=auto;html=1;exitX=1;exitY=0.5;exitDx=0;exitDy=0;exitPerimeter=0;entryX=0;entryY=0.5;entryDx=0;entryDy=0;" edge="1" parent="1" source="zF4Q_hd38RbBPgWRsxnY-458" target="zF4Q_hd38RbBPgWRsxnY-462">
          <mxGeometry relative="1" as="geometry" />
        </mxCell>
        <mxCell id="zF4Q_hd38RbBPgWRsxnY-458" value="Input Data" style="points=[[0.25,0,0],[0.5,0,0],[0.75,0,0],[1,0.25,0],[1,0.5,0],[1,0.75,0],[0.75,1,0],[0.5,1,0],[0.25,1,0],[0,0.75,0],[0,0.5,0],[0,0.25,0]];shape=mxgraph.bpmn.task2;whiteSpace=wrap;rectStyle=rounded;size=10;html=1;container=1;expand=0;collapsible=0;taskMarker=abstract;fontFamily=Helvetica;fontSize=11;fontColor=default;labelBackgroundColor=default;" vertex="1" parent="1">
          <mxGeometry x="70.16000000000003" y="7170" width="120" height="80" as="geometry" />
        </mxCell>
        <mxCell id="zF4Q_hd38RbBPgWRsxnY-459" value="" style="html=1;shape=mxgraph.flowchart.annotation_2;align=left;labelPosition=right;fontFamily=Helvetica;fontSize=11;fontColor=default;labelBackgroundColor=default;direction=south;" vertex="1" parent="1">
          <mxGeometry x="55.00000000000001" y="7250" width="142.5" height="35" as="geometry" />
        </mxCell>
        <mxCell id="zF4Q_hd38RbBPgWRsxnY-460" value="" style="shape=partialRectangle;whiteSpace=wrap;html=1;bottom=1;right=1;left=1;top=0;fillColor=none;routingCenterX=-0.5;" vertex="1" parent="1">
          <mxGeometry x="55.00000000000001" y="7315" width="142.5" height="20" as="geometry" />
        </mxCell>
        <mxCell id="zF4Q_hd38RbBPgWRsxnY-461" value="&lt;b&gt;File:&lt;/b&gt; Super-Store.xls&lt;div&gt;&lt;b&gt;Type: &lt;/b&gt;Excel&lt;br&gt;&lt;b&gt;SQL Query:&lt;/b&gt;&lt;/div&gt;" style="text;html=1;align=left;verticalAlign=middle;whiteSpace=wrap;rounded=0;fontFamily=Helvetica;fontSize=11;fontColor=default;labelBackgroundColor=default;" vertex="1" parent="1">
          <mxGeometry x="61.25000000000001" y="7285" width="130" height="30" as="geometry" />
        </mxCell>
        <mxCell id="zF4Q_hd38RbBPgWRsxnY-462" value="Lookup" style="rounded=1;whiteSpace=wrap;html=1;" vertex="1" parent="1">
          <mxGeometry x="325.02000000000004" y="7180" width="120" height="60" as="geometry" />
        </mxCell>
        <mxCell id="zF4Q_hd38RbBPgWRsxnY-463" value="" style="html=1;shape=mxgraph.flowchart.annotation_2;align=left;labelPosition=right;direction=north;" vertex="1" parent="1">
          <mxGeometry x="260" y="7130" width="250" height="50" as="geometry" />
        </mxCell>
        <mxCell id="zF4Q_hd38RbBPgWRsxnY-464" value="" style="shape=partialRectangle;whiteSpace=wrap;html=1;bottom=1;right=1;left=1;top=0;fillColor=none;routingCenterX=-0.5;direction=west;" vertex="1" parent="1">
          <mxGeometry x="260" y="7080" width="250" height="30" as="geometry" />
        </mxCell>
        <mxCell id="zF4Q_hd38RbBPgWRsxnY-465" value="&lt;b&gt;Retrieve:&lt;/b&gt;&amp;nbsp;calendar_month_id&lt;br&gt;&lt;b&gt;From:&lt;/b&gt;&amp;nbsp;Calendar.calendar_month_id&lt;div&gt;&lt;b style=&quot;background-color: transparent; color: light-dark(rgb(0, 0, 0), rgb(255, 255, 255));&quot;&gt;Where:&lt;/b&gt;&lt;span style=&quot;background-color: transparent; color: light-dark(rgb(0, 0, 0), rgb(255, 255, 255));&quot;&gt;&amp;nbsp;Calendar&lt;/span&gt;&lt;div&gt;&lt;b&gt;Matches:&lt;/b&gt;&amp;nbsp;Calendar.calendar_month_number&lt;/div&gt;&lt;/div&gt;" style="text;html=1;align=left;verticalAlign=middle;resizable=0;points=[];autosize=1;strokeColor=none;fillColor=none;rotation=0;" vertex="1" parent="1">
          <mxGeometry x="266.62" y="7080" width="260" height="70" as="geometry" />
        </mxCell>
        <mxCell id="zF4Q_hd38RbBPgWRsxnY-466" value="Insert Data" style="rounded=1;whiteSpace=wrap;html=1;" vertex="1" parent="1">
          <mxGeometry x="950.5" y="7295" width="120" height="60" as="geometry" />
        </mxCell>
        <mxCell id="zF4Q_hd38RbBPgWRsxnY-467" value="" style="html=1;shape=mxgraph.flowchart.annotation_2;align=left;labelPosition=right;fontFamily=Helvetica;fontSize=11;fontColor=default;labelBackgroundColor=default;direction=south;" vertex="1" parent="1">
          <mxGeometry x="933.75" y="7355" width="156.23" height="30" as="geometry" />
        </mxCell>
        <mxCell id="zF4Q_hd38RbBPgWRsxnY-468" value="" style="shape=partialRectangle;whiteSpace=wrap;html=1;bottom=1;right=1;left=1;top=0;fillColor=none;routingCenterX=-0.5;" vertex="1" parent="1">
          <mxGeometry x="933.75" y="7407.5" width="156.23" height="25" as="geometry" />
        </mxCell>
        <mxCell id="zF4Q_hd38RbBPgWRsxnY-469" value="&lt;b&gt;DataBase:&lt;/b&gt; SuperStoreDW&lt;br&gt;&lt;b&gt;Table:&lt;/b&gt;&amp;nbsp;ProductPerformance&lt;div&gt;&lt;br&gt;&lt;/div&gt;" style="text;html=1;align=left;verticalAlign=middle;whiteSpace=wrap;rounded=0;fontFamily=Helvetica;fontSize=11;fontColor=default;labelBackgroundColor=default;" vertex="1" parent="1">
          <mxGeometry x="942.36" y="7390" width="200" height="30" as="geometry" />
        </mxCell>
        <mxCell id="zF4Q_hd38RbBPgWRsxnY-470" value="" style="edgeStyle=elbowEdgeStyle;fontSize=12;html=1;endArrow=blockThin;endFill=1;startArrow=diamondThin;startFill=0;endSize=6;startSize=10;rounded=0;exitX=1;exitY=0.5;exitDx=0;exitDy=0;entryX=0;entryY=0.5;entryDx=0;entryDy=0;" edge="1" parent="1" target="zF4Q_hd38RbBPgWRsxnY-477">
          <mxGeometry width="160" relative="1" as="geometry">
            <mxPoint x="444.2300000000001" y="7210" as="sourcePoint" />
            <mxPoint x="554.23" y="7210" as="targetPoint" />
          </mxGeometry>
        </mxCell>
        <mxCell id="zF4Q_hd38RbBPgWRsxnY-471" value="Found" style="text;html=1;align=center;verticalAlign=middle;whiteSpace=wrap;rounded=0;" vertex="1" parent="1">
          <mxGeometry x="454.2300000000001" y="7180" width="60" height="30" as="geometry" />
        </mxCell>
        <mxCell id="zF4Q_hd38RbBPgWRsxnY-472" value="Insert Data" style="rounded=1;whiteSpace=wrap;html=1;" vertex="1" parent="1">
          <mxGeometry x="566.49" y="7420" width="120" height="60" as="geometry" />
        </mxCell>
        <mxCell id="zF4Q_hd38RbBPgWRsxnY-473" value="Not Found" style="text;html=1;align=center;verticalAlign=middle;whiteSpace=wrap;rounded=0;" vertex="1" parent="1">
          <mxGeometry x="390.75000000000006" y="7245" width="60" height="30" as="geometry" />
        </mxCell>
        <mxCell id="zF4Q_hd38RbBPgWRsxnY-474" value="" style="html=1;shape=mxgraph.flowchart.annotation_2;align=left;labelPosition=right;fontFamily=Helvetica;fontSize=11;fontColor=default;labelBackgroundColor=default;direction=south;" vertex="1" parent="1">
          <mxGeometry x="545.37" y="7480" width="156.23" height="40" as="geometry" />
        </mxCell>
        <mxCell id="zF4Q_hd38RbBPgWRsxnY-475" value="" style="shape=partialRectangle;whiteSpace=wrap;html=1;bottom=1;right=1;left=1;top=0;fillColor=none;routingCenterX=-0.5;" vertex="1" parent="1">
          <mxGeometry x="545.37" y="7530" width="156.23" height="20" as="geometry" />
        </mxCell>
        <mxCell id="zF4Q_hd38RbBPgWRsxnY-476" value="&lt;b&gt;File: &lt;/b&gt;Errors.txt&lt;br&gt;&lt;b&gt;Type:&lt;/b&gt; Text" style="text;html=1;align=left;verticalAlign=middle;whiteSpace=wrap;rounded=0;" vertex="1" parent="1">
          <mxGeometry x="552" y="7510" width="160" height="30" as="geometry" />
        </mxCell>
        <mxCell id="zF4Q_hd38RbBPgWRsxnY-477" value="Lookup" style="rounded=1;whiteSpace=wrap;html=1;" vertex="1" parent="1">
          <mxGeometry x="583.75" y="7180" width="120" height="60" as="geometry" />
        </mxCell>
        <mxCell id="zF4Q_hd38RbBPgWRsxnY-478" value="Lookup" style="rounded=1;whiteSpace=wrap;html=1;" vertex="1" parent="1">
          <mxGeometry x="841.11" y="7180" width="120" height="60" as="geometry" />
        </mxCell>
        <mxCell id="zF4Q_hd38RbBPgWRsxnY-479" value="Found" style="text;html=1;align=center;verticalAlign=middle;whiteSpace=wrap;rounded=0;" vertex="1" parent="1">
          <mxGeometry x="711.23" y="7180" width="60" height="30" as="geometry" />
        </mxCell>
        <mxCell id="zF4Q_hd38RbBPgWRsxnY-480" value="Found" style="text;html=1;align=center;verticalAlign=middle;whiteSpace=wrap;rounded=0;" vertex="1" parent="1">
          <mxGeometry x="968.75" y="7180" width="60" height="30" as="geometry" />
        </mxCell>
        <mxCell id="zF4Q_hd38RbBPgWRsxnY-481" value="" style="shape=partialRectangle;whiteSpace=wrap;html=1;bottom=1;right=1;left=1;top=0;fillColor=none;routingCenterX=-0.5;direction=west;" vertex="1" parent="1">
          <mxGeometry x="562.37" y="7080" width="200.23" height="30" as="geometry" />
        </mxCell>
        <mxCell id="zF4Q_hd38RbBPgWRsxnY-482" value="&lt;b&gt;Retrieve:&lt;/b&gt;&amp;nbsp;category_id&lt;br&gt;&lt;b&gt;From:&lt;/b&gt;&amp;nbsp;Category.category_id&lt;div&gt;&lt;b&gt;Where:&lt;/b&gt;&amp;nbsp;Category&lt;/div&gt;&lt;div&gt;&lt;b&gt;Matches:&lt;/b&gt;&amp;nbsp;Category.category_name&lt;/div&gt;" style="text;html=1;align=left;verticalAlign=middle;resizable=0;points=[];autosize=1;strokeColor=none;fillColor=none;rotation=0;" vertex="1" parent="1">
          <mxGeometry x="569.23" y="7080" width="210" height="70" as="geometry" />
        </mxCell>
        <mxCell id="zF4Q_hd38RbBPgWRsxnY-483" value="" style="shape=partialRectangle;whiteSpace=wrap;html=1;bottom=1;right=1;left=1;top=0;fillColor=none;routingCenterX=-0.5;direction=west;" vertex="1" parent="1">
          <mxGeometry x="822.6" y="7080" width="180" height="30" as="geometry" />
        </mxCell>
        <mxCell id="zF4Q_hd38RbBPgWRsxnY-484" value="&lt;b&gt;Retrieve:&lt;/b&gt;&amp;nbsp;state_id&lt;br&gt;&lt;b&gt;From:&lt;/b&gt;&amp;nbsp;State.state_id&lt;div&gt;&lt;b&gt;Where:&lt;/b&gt;&amp;nbsp;State&lt;/div&gt;&lt;div&gt;&lt;b&gt;Matches:&lt;/b&gt;&amp;nbsp;State.state_name&lt;/div&gt;" style="text;html=1;align=left;verticalAlign=middle;resizable=0;points=[];autosize=1;strokeColor=none;fillColor=none;rotation=0;" vertex="1" parent="1">
          <mxGeometry x="829.23" y="7080" width="170" height="70" as="geometry" />
        </mxCell>
        <mxCell id="zF4Q_hd38RbBPgWRsxnY-485" style="edgeStyle=orthogonalEdgeStyle;rounded=0;orthogonalLoop=1;jettySize=auto;html=1;exitX=0.5;exitY=1;exitDx=0;exitDy=0;entryX=0.5;entryY=0;entryDx=0;entryDy=0;" edge="1" parent="1" source="zF4Q_hd38RbBPgWRsxnY-486" target="zF4Q_hd38RbBPgWRsxnY-472">
          <mxGeometry relative="1" as="geometry" />
        </mxCell>
        <mxCell id="zF4Q_hd38RbBPgWRsxnY-486" value="Union" style="rounded=1;whiteSpace=wrap;html=1;" vertex="1" parent="1">
          <mxGeometry x="560.37" y="7330" width="120" height="60" as="geometry" />
        </mxCell>
        <mxCell id="zF4Q_hd38RbBPgWRsxnY-487" value="Not Found" style="text;html=1;align=center;verticalAlign=middle;whiteSpace=wrap;rounded=0;" vertex="1" parent="1">
          <mxGeometry x="581.23" y="7250" width="60" height="30" as="geometry" />
        </mxCell>
        <mxCell id="zF4Q_hd38RbBPgWRsxnY-488" value="Not Found" style="text;html=1;align=center;verticalAlign=middle;whiteSpace=wrap;rounded=0;" vertex="1" parent="1">
          <mxGeometry x="835.37" y="7255" width="60" height="30" as="geometry" />
        </mxCell>
        <mxCell id="zF4Q_hd38RbBPgWRsxnY-489" value="" style="html=1;shape=mxgraph.flowchart.annotation_2;align=left;labelPosition=right;direction=north;" vertex="1" parent="1">
          <mxGeometry x="562.37" y="7130" width="200.23" height="50" as="geometry" />
        </mxCell>
        <mxCell id="zF4Q_hd38RbBPgWRsxnY-490" value="" style="html=1;shape=mxgraph.flowchart.annotation_2;align=left;labelPosition=right;direction=north;" vertex="1" parent="1">
          <mxGeometry x="821.36" y="7130" width="181.24" height="50" as="geometry" />
        </mxCell>
        <mxCell id="zF4Q_hd38RbBPgWRsxnY-491" value="" style="edgeStyle=elbowEdgeStyle;fontSize=12;html=1;endArrow=blockThin;endFill=1;startArrow=diamondThin;startFill=0;endSize=6;startSize=10;rounded=0;exitX=1;exitY=0.5;exitDx=0;exitDy=0;entryX=0;entryY=0.5;entryDx=0;entryDy=0;" edge="1" parent="1" source="zF4Q_hd38RbBPgWRsxnY-477">
          <mxGeometry width="160" relative="1" as="geometry">
            <mxPoint x="701.59" y="7210" as="sourcePoint" />
            <mxPoint x="841.11" y="7210" as="targetPoint" />
          </mxGeometry>
        </mxCell>
        <mxCell id="zF4Q_hd38RbBPgWRsxnY-492" value="" style="edgeStyle=elbowEdgeStyle;fontSize=12;html=1;endArrow=blockThin;endFill=1;startArrow=diamondThin;startFill=0;endSize=6;startSize=10;rounded=0;exitX=1;exitY=0.5;exitDx=0;exitDy=0;entryX=0.5;entryY=0;entryDx=0;entryDy=0;" edge="1" parent="1" source="zF4Q_hd38RbBPgWRsxnY-478" target="zF4Q_hd38RbBPgWRsxnY-466">
          <mxGeometry width="160" relative="1" as="geometry">
            <mxPoint x="991.8699999999999" y="7230" as="sourcePoint" />
            <mxPoint x="1129.23" y="7230" as="targetPoint" />
            <Array as="points">
              <mxPoint x="1010.7500000000001" y="7210" />
            </Array>
          </mxGeometry>
        </mxCell>
        <mxCell id="zF4Q_hd38RbBPgWRsxnY-493" style="edgeStyle=orthogonalEdgeStyle;rounded=0;orthogonalLoop=1;jettySize=auto;html=1;exitX=0.5;exitY=1;exitDx=0;exitDy=0;endArrow=blockThin;endFill=1;startArrow=diamondThin;startFill=0;entryX=0;entryY=0.5;entryDx=0;entryDy=0;" edge="1" parent="1" source="zF4Q_hd38RbBPgWRsxnY-462" target="zF4Q_hd38RbBPgWRsxnY-486">
          <mxGeometry relative="1" as="geometry">
            <mxPoint x="503.25" y="7460" as="targetPoint" />
            <mxPoint x="398.25000000000006" y="7330" as="sourcePoint" />
          </mxGeometry>
        </mxCell>
        <mxCell id="zF4Q_hd38RbBPgWRsxnY-494" style="edgeStyle=orthogonalEdgeStyle;rounded=0;orthogonalLoop=1;jettySize=auto;html=1;exitX=0.5;exitY=1;exitDx=0;exitDy=0;endArrow=blockThin;endFill=1;startArrow=diamondThin;startFill=0;entryX=0.5;entryY=0;entryDx=0;entryDy=0;" edge="1" parent="1" source="zF4Q_hd38RbBPgWRsxnY-477" target="zF4Q_hd38RbBPgWRsxnY-486">
          <mxGeometry relative="1" as="geometry">
            <mxPoint x="570.75" y="7370" as="targetPoint" />
            <mxPoint x="394.75000000000006" y="7250" as="sourcePoint" />
            <Array as="points">
              <mxPoint x="643.75" y="7285" />
              <mxPoint x="620.75" y="7285" />
            </Array>
          </mxGeometry>
        </mxCell>
        <mxCell id="zF4Q_hd38RbBPgWRsxnY-495" style="edgeStyle=orthogonalEdgeStyle;rounded=0;orthogonalLoop=1;jettySize=auto;html=1;exitX=0.5;exitY=1;exitDx=0;exitDy=0;endArrow=blockThin;endFill=1;startArrow=diamondThin;startFill=0;entryX=1;entryY=0.5;entryDx=0;entryDy=0;" edge="1" parent="1" source="zF4Q_hd38RbBPgWRsxnY-478" target="zF4Q_hd38RbBPgWRsxnY-486">
          <mxGeometry relative="1" as="geometry">
            <mxPoint x="580.75" y="7380" as="targetPoint" />
            <mxPoint x="404.75000000000006" y="7260" as="sourcePoint" />
          </mxGeometry>
        </mxCell>
      </root>
    </mxGraphModel>
  </diagram>
</mxfile>
